<svg width="375" height="31" viewBox="0 0 375 31" fill="none" xmlns="http://www.w3.org/2000/svg">
<path d="M362.005 1.54235C334.631 4.78528 315.157 6.7685 293.639 8.48848C268.784 10.4814 251.115 11.2986 230.313 11.4213C207.843 11.5424 190.223 10.8948 162.875 8.91161C151.856 8.11218 139.054 7.08827 111.843 4.82242C84.8442 2.57595 68.1491 1.38246 57.8139 0.978713C39.4507 0.245501 20.7974 0.826902 3.30909 2.67931L0.0498622 3.01846L0 17.0044L1.56693e-06 31L374.988 31V15.4911C374.988 6.95584 375.015 -0.0080679 374.988 7.01529e-06C374.934 0.00969724 369.077 0.705778 362.005 1.54235Z" fill="#DBA191"/>
</svg>
