<svg width="38" height="40" viewBox="0 0 38 40" fill="none" xmlns="http://www.w3.org/2000/svg">
<path d="M19.5031 27.0586C19.5031 27.0586 20.0662 27.5822 19.9621 27.8772C19.7232 28.5561 18.6536 28.8716 17.959 28.6839C16.8503 28.3842 15.8364 27.1103 15.8463 25.9619C15.8609 24.2763 17.5846 22.912 19.0153 22.0211C20.4882 21.104 22.3594 20.8548 24.0939 20.8834C25.9824 20.915 27.9978 21.2722 29.5789 22.3054C30.4589 22.8805 31.1853 23.7903 31.5291 24.7836C31.724 25.3467 31.5291 26.5712 31.5291 26.5712C31.5291 26.5712 33.0807 24.4291 33.6418 23.2397C34.3104 21.822 35.2922 20.3265 35.1043 18.7704C35.0184 18.058 34.5472 17.3661 33.9666 16.942C32.1047 15.5877 29.5644 15.3527 27.2631 15.2763C24.8843 15.1976 22.4652 15.7045 20.2345 16.5358C18.7149 17.101 17.2272 17.8999 16.0498 19.0139C14.7237 20.2686 13.4528 21.7952 13.0027 23.5644C12.7109 24.711 12.7732 26.054 13.3277 27.0992C13.8285 28.0428 14.815 28.7323 15.8059 29.1307C16.7764 29.5208 17.939 29.6959 18.9343 29.3744C19.5928 29.162 20.4971 28.7253 20.5188 28.0334C20.5509 27.0149 19.5033 27.0583 19.5033 27.0583L19.5031 27.0586Z" fill="#18D1FF"/>
<path d="M18.9514 27.6579C18.9514 27.6579 18.8045 27.2049 18.93 27.0424C19.1338 26.7792 19.5928 26.7078 19.9062 26.8246C20.3587 26.9958 20.7637 27.5096 20.7646 27.9926C20.7656 28.6129 20.2206 29.2149 19.6676 29.4959C18.4603 30.1095 16.886 29.9348 15.6048 29.4959C14.5182 29.1238 13.4538 28.3796 12.8828 27.3832C12.0539 25.9378 11.8604 24.0505 12.2327 22.4266C12.6129 20.7681 13.848 19.3788 15.0362 18.1605C16.3135 16.8506 17.8591 15.7405 19.5461 15.032C21.4784 14.2208 23.6315 14.0039 25.7217 13.8537C27.52 13.7246 29.3542 13.7619 31.1256 14.0974C32.2365 14.3081 33.3605 14.6212 34.335 15.1944C34.7183 15.4199 35.3254 16.0884 35.3254 16.0884C35.3254 16.0884 35.0589 12.6683 34.5383 11.0504C34.0873 9.64944 33.6087 8.12916 32.5475 7.10964C31.7962 6.3876 30.7224 6.03035 29.7036 5.81233C27.7683 5.39856 25.7176 5.49807 23.7719 5.85001C21.4989 6.26104 19.3025 7.14646 17.266 8.23688C15.3599 9.2576 13.5646 10.5429 12.0299 12.0663C10.7728 13.3143 9.58737 14.7167 8.86088 16.3324C8.12891 17.9602 7.75196 19.7885 7.76395 21.5733C7.77354 23.0025 8.06914 24.4749 8.69835 25.7581C9.28698 26.9587 10.2303 27.9909 11.258 28.846C12.1524 29.5899 13.2046 30.1705 14.3051 30.5473C15.3419 30.9021 16.4613 31.1022 17.5557 31.0398C18.8358 30.967 20.2927 30.8669 21.2689 30.0357C21.8392 29.55 22.2515 28.7341 22.1934 27.9874C22.1526 27.4642 21.7778 26.9462 21.3316 26.6697C20.8444 26.3676 20.1773 26.1817 19.6235 26.3303C19.1097 26.468 18.6788 26.7436 18.6139 27.1729C18.583 27.3767 18.9537 27.6581 18.9537 27.6581L18.9514 27.6579Z" fill="#0166FE"/>
<path d="M19.1227 28.0212C19.1227 28.0212 18.3349 27.8619 18.1298 27.5673C17.8352 27.1414 17.8557 26.5408 18.1448 26.1116C18.6209 25.405 19.6405 25.1342 20.4918 25.1012C21.9313 25.0421 23.6901 25.3546 24.5875 26.4815C25.3364 27.4223 25.4878 28.9986 24.9441 30.0712C24.3984 31.1476 22.9825 31.5656 21.8264 31.9119C20.0169 32.4539 18.032 32.4822 16.1659 32.188C14.2382 31.884 12.3553 31.1342 10.6897 30.1157C8.85442 28.995 7.17143 27.5271 5.90375 25.79C4.54394 23.9267 3.5287 21.7422 3.05054 19.4876C2.6181 17.4466 2.67839 15.2745 3.09678 13.2292C3.57507 10.911 4.49699 8.70722 5.81179 6.73903C6.81487 5.24392 8.16389 3.96459 9.63126 2.91956C10.9507 1.98104 12.4691 1.31997 14.003 0.802763C15.2486 0.382659 16.5557 0.0898021 17.8684 0.0204412C19.4993 -0.0657033 21.152 0.126623 22.7463 0.480621C24.0821 0.777245 25.4008 1.22133 26.6117 1.86099C28.0383 2.61574 30.5233 4.7142 30.5233 4.7142C30.5233 4.7142 25.4844 4.23262 23.022 4.66796C20.1208 5.18123 17.2565 6.22096 14.739 7.75118C12.8643 8.89058 11.211 10.44 9.86109 12.1689C8.77992 13.5535 7.91967 15.1461 7.3778 16.8169C6.82668 18.5124 6.53554 20.3312 6.64138 22.1089C6.71331 23.3122 7.02843 24.525 7.56174 25.606C8.09367 26.685 8.86726 27.6651 9.77067 28.4593C10.9445 29.4882 12.3031 30.2846 13.7742 30.8062C14.959 31.2234 16.2455 31.3741 17.5017 31.3584C18.5759 31.3447 19.7206 31.2953 20.6769 30.8062C21.4784 30.3962 22.3358 29.7787 22.6096 28.9194C22.8326 28.2215 22.6975 27.3108 22.2181 26.7564C21.7451 26.2094 20.8847 26.0662 20.1616 26.0662C19.6307 26.0661 19.0361 26.2061 18.6519 26.5725C18.4375 26.777 18.3271 27.0395 18.4053 27.3252C18.4944 27.6492 19.1236 28.0222 19.1236 28.0222L19.1241 28.0217L19.1227 28.0212ZM4.69705 34.4743L2.89195 36.2078L2.21598 36.8917C2.85741 37.6233 3.50153 38.3523 4.14832 39.0787L4.79227 39.8738V39.9136L4.35487 39.8896L3.90959 39.9136C3.82475 39.7916 3.73456 39.6697 3.63899 39.5478C3.54765 39.4206 3.45489 39.3007 3.36069 39.1881L1.62718 37.1604C1.6007 37.1392 1.56622 37.126 1.52374 37.1206C1.50251 37.1257 1.49189 37.131 1.49189 37.1366V39.9117L1.142 39.8877L0.792114 39.9117V34.4724L1.142 34.4964L1.49189 34.4724V36.9295C1.49714 36.9506 1.521 36.9559 1.56348 36.9454C1.6112 36.9348 1.65687 36.9136 1.70049 36.8817C1.74273 36.8446 1.83019 36.7624 1.96286 36.6351C2.01058 36.5874 2.06093 36.5397 2.11391 36.4919L4.07057 34.4728L4.3886 34.4967L4.69705 34.4743Z" fill="#0100CC"/>
<path d="M10.4388 37.1284C10.4388 36.768 10.4043 36.4499 10.3353 36.1741C10.2664 35.8933 10.1338 35.6282 9.93764 35.379C9.74149 35.1298 9.49762 34.939 9.20601 34.8064C8.91978 34.674 8.61231 34.6078 8.2836 34.6078C7.58908 34.6078 7.04047 34.8517 6.63778 35.3394C6.24022 35.8218 6.04145 36.4686 6.04145 37.2798C6.04145 38.059 6.25353 38.6714 6.67768 39.1168C7.07524 39.5303 7.58674 39.7371 8.21218 39.7371C8.95968 39.7371 9.54015 39.4137 9.95357 38.7669C10.2769 38.2634 10.4386 37.7173 10.4386 37.1288L10.4388 37.1284ZM8.18838 39.9988C7.30307 39.9988 6.59274 39.7443 6.05737 39.2354C5.52726 38.7212 5.26221 38.0373 5.26221 37.1837C5.26221 36.3303 5.54582 35.6384 6.11303 35.108C6.65901 34.5992 7.35616 34.3447 8.20448 34.3447C9.03144 34.3447 9.7206 34.5594 10.2719 34.9887C10.9028 35.4817 11.2182 36.1736 11.2182 37.0644C11.2182 37.9444 10.9372 38.6547 10.3752 39.1954C9.81325 39.732 9.08425 40.0003 8.18821 40.0003L8.18838 39.9988Z" fill="#0100CC"/>
<path d="M17.4121 34.4745H17.5791C17.6904 35.5294 17.7593 36.1762 17.7858 36.4149C17.8707 37.1941 17.9396 37.8011 17.9925 38.2359C18.0496 38.6652 18.1265 39.2245 18.2232 39.9137L17.8495 39.8898L17.4758 39.9137C17.4281 39.3836 17.3825 38.8773 17.3388 38.3946C17.3017 37.9123 17.2561 37.4351 17.2018 36.9632C17.1541 36.4915 17.1084 36.1071 17.0648 35.8101C16.7415 36.3932 16.4605 36.9022 16.2219 37.3369C15.9463 37.8458 15.7156 38.2858 15.53 38.657C15.3286 39.0652 15.1457 39.4548 14.9813 39.8259H14.8956L14.4582 38.9273C14.2673 38.5297 14.0977 38.1872 13.9492 37.8997C13.8008 37.6081 13.6179 37.2556 13.4005 36.8422C13.215 36.4976 13.0321 36.153 12.8518 35.8084C12.7605 36.5665 12.673 37.3325 12.5894 38.1064C12.5046 38.8805 12.4622 39.4822 12.4622 39.9115L12.1839 39.8875L11.8975 39.9115C12.0088 39.2223 12.1546 38.2443 12.3349 36.9773C12.5153 35.7049 12.624 34.87 12.661 34.4724H12.8665C13.1421 35.0131 13.3675 35.4558 13.5425 35.8004C13.7545 36.2085 14.0057 36.6777 14.296 37.2078C14.6141 37.7855 14.8871 38.2627 15.115 38.6392C15.8784 37.2503 16.6417 35.8613 17.4051 34.4724L17.4121 34.4745ZM19.3772 39.9166V34.4774L19.7271 34.5014L20.077 34.4774V39.9166L19.7271 39.8927L19.3772 39.9166ZM26.2386 34.4745V39.9137H26L25.5866 39.4287L22.1515 35.6277H22.072V39.9139L21.8494 39.8899L21.6267 39.9139V34.4746H21.935L25.7122 38.5698H25.7916V34.4746L26.0143 34.4986L26.2386 34.4745ZM27.7286 39.9166V34.4774H30.5515L30.5275 34.7159L30.5515 34.9545C30.3924 34.9225 30.2626 34.9013 30.1619 34.8908C30.0612 34.8748 29.9525 34.8668 29.8358 34.8668L29.0406 34.8509H28.4284V36.8452H29.6609C29.7616 36.8452 29.8942 36.8399 30.0586 36.8293C30.2283 36.8133 30.331 36.8053 30.3669 36.8053L30.3429 37.012L30.3669 37.2347C30.2714 37.2347 30.1389 37.2294 29.9692 37.2188C29.7995 37.2028 29.6968 37.1948 29.6609 37.1948H28.4284V39.9144L28.0785 39.8904L27.7286 39.9166Z" fill="#0100CC"/>
<path d="M36.5059 37.1284C36.5059 36.768 36.4714 36.4499 36.4025 36.1741C36.3335 35.8933 36.2009 35.6282 36.0048 35.379C35.8086 35.1298 35.5648 34.939 35.2732 34.8064C34.9869 34.674 34.6794 34.6078 34.3507 34.6078C33.6562 34.6078 33.1076 34.8517 32.7049 35.3394C32.3074 35.8218 32.1086 36.4686 32.1086 37.2798C32.1086 38.059 32.3207 38.6714 32.7448 39.1168C33.1424 39.5303 33.6539 39.7371 34.2793 39.7371C35.0268 39.7371 35.6073 39.4137 36.0207 38.7669C36.3441 38.2634 36.5057 37.7173 36.5057 37.1288L36.5059 37.1284ZM34.2555 39.9988C33.3702 39.9988 32.6599 39.7443 32.1245 39.2354C31.5944 38.7212 31.3293 38.0373 31.3293 37.1837C31.3293 36.3303 31.613 35.6384 32.1802 35.108C32.7262 34.5992 33.4233 34.3447 34.2716 34.3447C35.0986 34.3447 35.7877 34.5594 36.3391 34.9887C36.9699 35.4817 37.2853 36.1736 37.2853 37.0644C37.2853 37.9444 37.0043 38.6547 36.4424 39.1954C35.8804 39.732 35.1514 40.0003 34.2553 40.0003L34.2555 39.9988Z" fill="#0100CC"/>
</svg>
