<svg width="22" height="22" viewBox="0 0 22 22" fill="none" xmlns="http://www.w3.org/2000/svg">
<mask id="mask0_430_284" style="mask-type:luminance" maskUnits="userSpaceOnUse" x="0" y="0" width="22" height="22">
<path d="M21.8093 0.525879H0.45459V21.8806H21.8093V0.525879Z" fill="white"/>
</mask>
<g mask="url(#mask0_430_284)">
<path d="M19.3068 0.525879H2.95709C1.575 0.525879 0.45459 1.64629 0.45459 3.02838V19.3781C0.45459 20.7601 1.575 21.8806 2.95709 21.8806H19.3068C20.6889 21.8806 21.8093 20.7601 21.8093 19.3781V3.02838C21.8093 1.64629 20.6889 0.525879 19.3068 0.525879Z" fill="#B11F42"/>
<path d="M15.2989 4.69678H17.5065L12.6836 10.209L18.3573 17.7098H13.9149L10.4354 13.1606L6.45407 17.7098H4.24522L9.40369 11.8139L3.96094 4.69678H8.51614L11.6613 8.85493L15.2989 4.69678ZM14.5241 16.3885H15.7474L7.85147 5.9487H6.53883L14.5241 16.3885Z" fill="white"/>
</g>
</svg>
