<svg width="23" height="16" viewBox="0 0 23 16" fill="none" xmlns="http://www.w3.org/2000/svg">
<path d="M22.0319 5.94112C22.0796 4.52255 21.7777 3.11459 21.1544 1.84798C20.7315 1.32825 20.1445 0.977523 19.4959 0.856899C16.8128 0.606677 14.1187 0.504119 11.425 0.549665C8.74108 0.502052 6.05663 0.6013 3.38301 0.846988C2.85442 0.945815 2.36525 1.20065 1.97519 1.58038C1.10735 2.40298 1.01092 3.81031 0.914498 4.9996C0.774595 7.13791 0.774595 9.28346 0.914498 11.4218C0.942394 12.0912 1.03936 12.7556 1.20378 13.4039C1.32004 13.9045 1.55527 14.3676 1.8884 14.7518C2.28112 15.1516 2.78168 15.421 3.32516 15.5248C5.40403 15.7886 7.4987 15.8979 9.59287 15.8519C12.9678 15.9014 15.9281 15.8519 19.4284 15.5744C19.9852 15.4769 20.4998 15.2072 20.9037 14.8013C21.1736 14.5238 21.3753 14.184 21.4919 13.8103C21.8367 12.7227 22.0061 11.5844 21.9933 10.4406C22.0319 9.88561 22.0319 6.53577 22.0319 5.94112ZM9.24573 11.0353V4.90049L14.9542 7.98274C13.3535 8.89453 11.2418 9.92525 9.24573 11.0353Z" fill="#B11F42"/>
</svg>
