<svg width="22" height="23" viewBox="0 0 22 23" fill="none" xmlns="http://www.w3.org/2000/svg">
<path d="M20.2872 0H1.39503C1.0854 0 0.788438 0.129837 0.569491 0.360949C0.350543 0.592061 0.227539 0.905515 0.227539 1.23236V21.1741C0.227539 21.336 0.257737 21.4962 0.316409 21.6457C0.375082 21.7952 0.461079 21.9311 0.569491 22.0455C0.677903 22.16 0.806606 22.2507 0.948253 22.3127C1.0899 22.3746 1.24172 22.4065 1.39503 22.4065H11.5629V13.724H8.80332V10.363H11.5629V7.84227C11.5057 7.25046 11.5719 6.65262 11.7568 6.09068C11.9417 5.52874 12.2408 5.0163 12.6332 4.58931C13.0256 4.16231 13.5017 3.8311 14.0282 3.61891C14.5547 3.40672 15.1188 3.31868 15.6809 3.36097C16.507 3.35561 17.3327 3.40049 18.1539 3.49541V6.52028H16.4663C15.129 6.52028 14.8743 7.19248 14.8743 8.16716V10.3294H18.0584L17.6444 13.6904H14.8743V22.4065H20.2872C20.4405 22.4065 20.5924 22.3746 20.734 22.3127C20.8757 22.2507 21.0044 22.16 21.1128 22.0455C21.2212 21.9311 21.3072 21.7952 21.3659 21.6457C21.4245 21.4962 21.4547 21.336 21.4547 21.1741V1.23236C21.4547 1.07052 21.4245 0.91027 21.3659 0.760754C21.3072 0.611238 21.2212 0.475384 21.1128 0.360949C21.0044 0.246514 20.8757 0.155739 20.734 0.0938076C20.5924 0.0318759 20.4405 0 20.2872 0Z" fill="#B11F42"/>
</svg>
