<svg width="22" height="23" viewBox="0 0 22 23" fill="none" xmlns="http://www.w3.org/2000/svg">
<path d="M20.2024 0H1.09798C0.81649 0 0.546529 0.118034 0.347486 0.328135C0.148443 0.538237 0.0366211 0.823195 0.0366211 1.12032V21.2862C0.0366211 21.5833 0.148443 21.8682 0.347486 22.0783C0.546529 22.2884 0.81649 22.4065 1.09798 22.4065H20.2024C20.4839 22.4065 20.7539 22.2884 20.9529 22.0783C21.152 21.8682 21.2638 21.5833 21.2638 21.2862V1.12032C21.2638 0.823195 21.152 0.538237 20.9529 0.328135C20.7539 0.118034 20.4839 0 20.2024 0ZM16.7201 9.77483C16.6044 9.78676 16.4883 9.79311 16.372 9.79387C15.7423 9.79474 15.1223 9.62997 14.568 9.31447C14.0138 8.99896 13.5427 8.54266 13.1975 7.98679V14.1407C13.1977 15.0407 12.9451 15.9204 12.4715 16.6688C11.998 17.4171 11.3248 18.0005 10.5372 18.3449C9.7496 18.6894 8.88287 18.7796 8.04668 18.6041C7.21049 18.4286 6.44239 17.9953 5.83954 17.3589C5.23669 16.7226 4.82616 15.9118 4.65988 15.0292C4.49361 14.1465 4.57905 13.2316 4.90541 12.4003C5.23177 11.5689 5.78438 10.8583 6.49335 10.3585C7.20232 9.85866 8.03579 9.59199 8.88836 9.59221C8.97857 9.59221 9.0656 9.60117 9.15476 9.60678V11.8474C8.85781 11.8095 8.55665 11.836 8.26977 11.9254C7.98289 12.0148 7.71636 12.1652 7.48657 12.3673C7.25677 12.5694 7.06856 12.819 6.9335 13.1007C6.79844 13.3824 6.71938 13.6903 6.70119 14.0055C6.68299 14.3206 6.72605 14.6364 6.8277 14.9333C6.92936 15.2303 7.08747 15.5021 7.29231 15.7322C7.49716 15.9623 7.74441 16.1457 8.01888 16.2712C8.29335 16.3967 8.58924 16.4617 8.88836 16.462C9.47865 16.4733 10.0496 16.2396 10.4783 15.8111C10.907 15.3827 11.1593 14.7937 11.1809 14.171L11.2021 3.71723H13.2336C13.3263 4.64873 13.7263 5.51617 14.3637 6.16783C15.001 6.8195 15.8351 7.21391 16.7201 7.2821V9.77483Z" fill="#B11F42"/>
</svg>
