<svg width="23" height="23" viewBox="0 0 23 23" fill="none" xmlns="http://www.w3.org/2000/svg">
<path d="M11.205 8.42484C10.6554 8.42484 10.1181 8.58778 9.66116 8.89308C9.20418 9.19837 8.84801 9.6323 8.63769 10.14C8.42736 10.6477 8.37233 11.2063 8.47956 11.7453C8.58678 12.2842 8.85144 12.7793 9.24006 13.1679C9.62869 13.5564 10.1238 13.821 10.6629 13.9283C11.2019 14.0355 11.7606 13.9804 12.2684 13.7701C12.7762 13.5599 13.2102 13.2037 13.5155 12.7468C13.8209 12.2899 13.9838 11.7528 13.9838 11.2032C13.9838 10.8384 13.912 10.4771 13.7723 10.14C13.6327 9.8029 13.428 9.49661 13.1699 9.23861C12.9119 8.98061 12.6056 8.77596 12.2684 8.63633C11.9313 8.4967 11.5699 8.42484 11.205 8.42484ZM22.3316 5.68004C22.3257 4.81488 22.1663 3.95762 21.861 3.14811C21.636 2.55575 21.2881 2.01781 20.84 1.56978C20.3919 1.12175 19.8538 0.773827 19.2614 0.548959C18.4518 0.24363 17.5944 0.0843166 16.7291 0.0784226C15.2836 -7.45058e-08 14.8578 0 11.205 0C7.55217 0 7.12638 -7.45058e-08 5.68093 0.0784226C4.81564 0.0843166 3.95825 0.24363 3.1486 0.548959C2.55615 0.773827 2.01813 1.12175 1.57003 1.56978C1.12193 2.01781 0.773949 2.55575 0.549045 3.14811C0.243668 3.95762 0.0843298 4.81488 0.0784349 5.68004C-7.07916e-08 7.12526 0 7.55098 0 11.2032C0 14.8555 -7.07916e-08 15.2812 0.0784349 16.7264C0.0904959 17.5946 0.249619 18.4545 0.549045 19.2696C0.772952 19.8592 1.12064 20.394 1.5687 20.838C2.01488 21.2887 2.55406 21.6367 3.1486 21.8575C3.95825 22.1628 4.81564 22.3222 5.68093 22.3281C7.12638 22.4065 7.55217 22.4065 11.205 22.4065C14.8578 22.4065 15.2836 22.4065 16.7291 22.3281C17.5944 22.3222 18.4518 22.1628 19.2614 21.8575C19.8559 21.6367 20.3951 21.2887 20.8413 20.838C21.2894 20.394 21.637 19.8592 21.861 19.2696C22.166 18.4561 22.3253 17.5952 22.3316 16.7264C22.41 15.2812 22.41 14.8555 22.41 11.2032C22.41 7.55098 22.41 7.12526 22.3316 5.68004ZM19.4855 14.6426C19.4495 15.334 19.302 16.015 19.0485 16.6592C18.831 17.1966 18.5076 17.6848 18.0976 18.0947C17.6876 18.5047 17.1993 18.828 16.6618 19.0455C16.0114 19.2848 15.3265 19.4172 14.6337 19.4376C13.7485 19.4376 13.5132 19.4376 11.205 19.4376C8.89677 19.4376 8.66146 19.4376 7.77627 19.4376C7.0835 19.4172 6.3986 19.2848 5.74817 19.0455C5.19251 18.839 4.69072 18.5097 4.28031 18.082C3.87432 17.6801 3.56077 17.1946 3.3615 16.6592C3.12122 16.0096 2.99241 15.324 2.98053 14.6314C2.98053 13.7464 2.98053 13.5111 2.98053 11.2032C2.98053 8.89537 2.98053 8.6601 2.98053 7.77505C2.99241 7.08249 3.12122 6.39692 3.3615 5.74726C3.56799 5.1917 3.89741 4.68999 4.32513 4.27964C4.72888 3.8759 5.21398 3.56273 5.74817 3.36097C6.3986 3.12168 7.0835 2.98926 7.77627 2.96886C8.66146 2.96886 8.89677 2.96886 11.205 2.96886C13.5132 2.96886 13.7485 2.96886 14.6337 2.96886C15.3265 2.98926 16.0114 3.12168 16.6618 3.36097C17.2175 3.56743 17.7193 3.89679 18.1297 4.32445C18.5357 4.72636 18.8492 5.21189 19.0485 5.74726C19.2878 6.3976 19.4203 7.08238 19.4407 7.77505C19.4407 8.6601 19.4407 8.89537 19.4407 11.2032C19.4407 13.5111 19.5191 13.7464 19.4855 14.6314V14.6426ZM17.6927 6.30742C17.5593 5.94554 17.3489 5.6169 17.0762 5.34418C16.8034 5.07146 16.4747 4.86116 16.1128 4.72777C15.6158 4.55553 15.0924 4.4721 14.5665 4.4813C13.6925 4.4813 13.446 4.4813 11.205 4.4813C8.964 4.4813 8.71749 4.4813 7.8435 4.4813C7.31492 4.48646 6.79143 4.58507 6.29721 4.77258C5.94081 4.89991 5.6156 5.10163 5.3432 5.36434C5.07079 5.62704 4.85744 5.9447 4.71731 6.29622C4.55458 6.79517 4.47509 7.3175 4.482 7.84227C4.482 8.71612 4.482 8.96259 4.482 11.2032C4.482 13.4439 4.482 13.6904 4.482 14.5642C4.49311 15.0921 4.59155 15.6145 4.77333 16.1103C4.90674 16.4721 5.11708 16.8008 5.38984 17.0735C5.66261 17.3462 5.9913 17.5565 6.35323 17.6899C6.83131 17.8657 7.3344 17.964 7.8435 17.9812C8.71749 17.9812 8.964 17.9812 11.205 17.9812C13.446 17.9812 13.6925 17.9812 14.5665 17.9812C15.0951 17.976 15.6186 17.8774 16.1128 17.6899C16.4747 17.5565 16.8034 17.3462 17.0762 17.0735C17.3489 16.8008 17.5593 16.4721 17.6927 16.1103C17.8802 15.6161 17.9789 15.0927 17.984 14.5642C17.984 13.6904 17.984 13.4439 17.984 11.2032C17.984 8.96259 17.984 8.71612 17.984 7.84227C17.9843 7.31325 17.8855 6.78885 17.6927 6.29622V6.30742ZM11.205 15.4829C10.6434 15.4829 10.0874 15.3721 9.56869 15.1569C9.05001 14.9417 8.57889 14.6263 8.18232 14.2287C7.78575 13.8312 7.47152 13.3593 7.25764 12.8401C7.04376 12.321 6.93442 11.7647 6.93589 11.2032C6.9359 10.3563 7.18722 9.52846 7.65804 8.82444C8.12887 8.12042 8.79802 7.57189 9.5808 7.24831C10.3636 6.92472 11.2248 6.84063 12.0554 7.00667C12.886 7.17271 13.6486 7.58142 14.2468 8.18106C14.845 8.7807 15.2517 9.5443 15.4156 10.3752C15.5795 11.2061 15.4932 12.067 15.1675 12.8488C14.8418 13.6306 14.2914 14.2982 13.5861 14.7671C12.8807 15.236 12.052 15.4851 11.205 15.4829ZM15.687 7.76384C15.4393 7.73763 15.2101 7.62069 15.0435 7.43556C14.8769 7.25042 14.7847 7.01019 14.7847 6.76115C14.7847 6.51211 14.8769 6.27189 15.0435 6.08675C15.2101 5.90162 15.4393 5.78468 15.687 5.75846C15.9347 5.78468 16.1639 5.90162 16.3305 6.08675C16.4971 6.27189 16.5893 6.51211 16.5893 6.76115C16.5893 7.01019 16.4971 7.25042 16.3305 7.43556C16.1639 7.62069 15.9347 7.73763 15.687 7.76384Z" fill="#B11F42"/>
</svg>
