<svg width="40" height="40" viewBox="0 0 40 40" fill="none" xmlns="http://www.w3.org/2000/svg">
<rect width="40" height="40" rx="8" fill="#B11F42"/>
<path d="M22.4679 18.0637C22.3891 18.0637 22.3133 18.0381 22.2511 17.992C22.2343 17.9796 22.2185 17.9656 22.2039 17.9502L21.9969 17.7319L21.3294 17.0281L21.0775 16.7624L21.0571 16.7409C20.9266 16.6037 20.9236 16.3889 21.0498 16.2481L21.8787 15.3191C22.0625 15.1134 22.3453 15.0491 22.6002 15.1553C22.8544 15.2615 23.0079 15.5078 22.9909 15.7833L22.8763 17.6414C22.8562 17.9751 22.6105 18.0643 22.4685 18.0643L22.4679 18.0637ZM21.8162 16.483L22.1936 16.881L22.194 16.874L22.2482 15.9987L21.8177 16.4812L21.8162 16.483Z" fill="#F3EBE3"/>
<path d="M28.2774 8.95675V10.6916H29.127" fill="#B11F42"/>
<path d="M16.1516 29.8133C15.7584 29.8133 15.3883 29.6628 15.1049 29.3873C15.0411 29.3252 14.9835 29.2585 14.9325 29.1879C14.4744 29.147 13.0949 29.1066 11.9568 29.9219C11.6218 30.1616 11.3561 30.2417 11.1504 30.2417C10.9926 30.2417 10.87 30.1943 10.779 30.1349C10.4901 29.9474 10.3821 29.5602 10.4823 29.0742C10.6394 28.312 11.2711 27.4607 12.1734 27.3065C12.3776 27.2717 12.5701 27.2317 12.7526 27.1894L9.97679 27.2683C9.95252 27.2689 9.93067 27.2841 9.92157 27.3065L8.23283 31.4183C8.22434 31.4383 8.22676 31.4583 8.2389 31.4765C8.25104 31.4947 8.26863 31.5038 8.29048 31.5038H24.4364H31.7095C31.7314 31.5038 31.749 31.4947 31.7611 31.4765C31.7732 31.4583 31.7751 31.4389 31.7672 31.4183L30.0815 27.3144C30.0718 27.2914 30.0493 27.2762 30.0244 27.2762H24.7295C24.7286 27.3142 24.7276 27.353 24.7264 27.3927L24.7254 27.4266C24.722 27.5425 24.7185 27.6633 24.7185 27.7987C24.7185 28.6221 24.332 29.0875 24.0073 29.3327C23.764 29.5165 23.4691 29.6179 23.1542 29.6264L16.1947 29.8145H16.1529L16.1516 29.8133Z" fill="#F3EBE3"/>
<path d="M13.7942 17.5091L13.6091 19.3489C13.593 19.4713 13.5763 19.5971 13.5591 19.7258C13.2693 21.9026 12.8695 24.9059 13.581 26.4372L13.779 26.4315C13.8893 26.4283 13.9882 26.473 14.0566 26.5467C13.1884 25.2787 13.6374 21.9044 13.9205 19.7772L13.921 19.7731L13.9708 19.3962C13.9714 19.3926 13.972 19.3889 13.972 19.3853L14.1565 17.5497C14.3312 16.1547 15.6164 15.5709 16.1316 15.3913C16.3719 15.6522 16.651 15.8567 16.9496 15.9896C17.1268 16.0679 17.2633 16.1911 17.3452 16.3458C17.4128 16.4736 17.476 16.6131 17.5347 16.7637L18.037 17.1146C17.9376 16.7748 17.8156 16.4573 17.6662 16.1753L17.6629 16.169C16.962 16.1198 16.3353 15.7133 15.8955 15.0919C15.2579 15.3404 13.9781 16.0192 13.7942 17.5091Z" fill="#F3EBE3"/>
<path d="M19.6365 13.1334H15.9775C16.0122 13.7494 16.2105 14.3037 16.5131 14.7151C16.5239 14.7259 16.5341 14.7376 16.5436 14.7499C16.7433 15.0096 16.986 15.2075 17.2451 15.3234C17.2627 15.3312 17.2801 15.3393 17.2973 15.3476C17.4592 15.4116 17.6302 15.4459 17.807 15.4459C18.7712 15.4459 19.5637 14.4253 19.6365 13.1334Z" fill="#F3EBE3"/>
<path d="M16.0175 12.4052H19.5971C19.4351 11.5096 18.8343 11.0557 17.807 11.0557C16.7797 11.0557 16.1789 11.5096 16.0175 12.4052Z" fill="#F3EBE3"/>
<path d="M17.807 11.0557C18.8343 11.0557 19.4351 11.5096 19.5971 12.4052H19.9658C19.7704 11.1697 18.8786 10.6916 17.807 10.6916C16.736 10.6916 15.8437 11.1697 15.6482 12.4052H16.0175C16.1789 11.5096 16.7797 11.0557 17.807 11.0557Z" fill="#F3EBE3"/>
<path fill-rule="evenodd" clip-rule="evenodd" d="M28.2774 8.49619C27.0669 8.49619 26.082 9.48103 26.082 10.6916C26.082 11.9022 27.0669 12.8864 28.2774 12.8864C29.488 12.8864 30.4722 11.9016 30.4722 10.6916C30.4722 9.48164 29.4874 8.49619 28.2774 8.49619ZM28.2774 11.0557H29.127C29.3278 11.0557 29.491 10.8925 29.491 10.6916C29.491 10.4908 29.3278 10.3275 29.127 10.3275H28.6415V8.95675C28.6415 8.7559 28.4783 8.59267 28.2774 8.59267C28.0766 8.59267 27.9133 8.7559 27.9133 8.95675V10.6916C27.9133 10.8925 28.0766 11.0557 28.2774 11.0557Z" fill="#F3EBE3"/>
<path fill-rule="evenodd" clip-rule="evenodd" d="M30.8369 10.6916C30.8369 12.1052 29.691 13.2511 28.2774 13.2511C26.8639 13.2511 25.7179 12.1052 25.7179 10.6916C25.7179 9.27803 26.8639 8.1321 28.2774 8.1321C29.691 8.1321 30.8369 9.27803 30.8369 10.6916ZM26.082 10.6916C26.082 9.48103 27.0669 8.49619 28.2774 8.49619C29.4874 8.49619 30.4722 9.48164 30.4722 10.6916C30.4722 11.9016 29.488 12.8864 28.2774 12.8864C27.0669 12.8864 26.082 11.9022 26.082 10.6916Z" fill="#F3EBE3"/>
<path fill-rule="evenodd" clip-rule="evenodd" d="M28.2774 13.6146C26.6658 13.6146 25.3538 12.3033 25.3538 10.6916C25.3538 9.07993 26.6658 7.76802 28.2774 7.76802C29.8891 7.76802 31.2004 9.07933 31.2004 10.6916C31.2004 12.3039 29.8891 13.6146 28.2774 13.6146ZM28.2774 13.2511C29.691 13.2511 30.8369 12.1052 30.8369 10.6916C30.8369 9.27803 29.691 8.1321 28.2774 8.1321C26.8639 8.1321 25.7179 9.27803 25.7179 10.6916C25.7179 12.1052 26.8639 13.2511 28.2774 13.2511Z" fill="#F3EBE3"/>
<path fill-rule="evenodd" clip-rule="evenodd" d="M13.6066 26.9648C13.5673 26.9759 13.5274 26.9871 13.4869 26.9984C13.2604 27.0617 13.0172 27.1281 12.7526 27.1894L13.6182 27.1649C13.7854 27.3559 13.984 27.5087 14.2184 27.616C14.4805 27.7362 14.6504 28.0086 14.6504 28.3102C14.6504 28.6306 14.7492 28.9343 14.9325 29.1879C15.0298 29.1966 15.0855 29.2053 15.0885 29.2058C15.236 29.2307 15.3834 29.1622 15.4605 29.0341C15.4945 28.9777 15.5127 28.9128 15.5127 28.8466C15.5127 28.7905 15.4994 28.7355 15.475 28.6855L15.4696 28.6749C15.4299 28.5999 15.4032 28.5212 15.3896 28.4395C15.3827 28.3976 15.3792 28.3548 15.3792 28.3114C15.3792 28.0069 15.2881 27.7167 15.1274 27.4749C14.9791 27.2517 14.7716 27.0696 14.5218 26.9552C14.4897 26.9407 14.4576 26.924 14.425 26.9043C14.4126 26.8968 14.4002 26.8889 14.3877 26.8806C14.3845 26.8785 14.3814 26.8765 14.3782 26.8745C14.2944 26.8229 14.1935 26.8074 14.0982 26.8314C13.9562 26.8666 13.807 26.9085 13.6492 26.9529L13.6085 26.9643L13.6066 26.9648Z" fill="#F3EBE3"/>
<path fill-rule="evenodd" clip-rule="evenodd" d="M15.1049 29.3873C15.3883 29.6628 15.7584 29.8133 16.1516 29.8133L16.1529 29.8145H16.1947L23.1542 29.6264C23.4691 29.6179 23.764 29.5165 24.0073 29.3327C24.332 29.0875 24.7185 28.6221 24.7185 27.7987C24.7185 27.6633 24.722 27.5425 24.7254 27.4266L24.7264 27.3927C24.7276 27.353 24.7286 27.3142 24.7295 27.2762C24.7352 27.0043 24.7289 26.7744 24.6795 26.548C24.564 26.0186 24.2129 25.5084 23.23 24.5256C22.1529 23.4491 20.5486 22.9467 19.392 22.7155C19.0097 22.639 18.7476 22.3016 18.7694 21.9139C18.7862 21.6221 18.7971 21.3301 18.8025 21.0421L18.986 21.1293C19.1171 21.1912 19.2579 21.2215 19.398 21.2215C19.6663 21.2215 19.932 21.1105 20.1183 20.9041C20.1183 20.9041 20.7828 20.1729 21.4454 19.4387C21.8301 19.0115 22.1366 18.6705 22.3556 18.4241C22.4806 18.2834 22.5844 18.1662 22.6566 18.0825C22.7913 17.9265 22.9309 17.7651 22.8125 17.5406C22.7968 17.5109 22.7773 17.483 22.7537 17.4587L22.194 16.874L21.8313 16.4951C21.8269 16.4904 21.8223 16.4858 21.8177 16.4812C21.6858 16.3511 21.5045 16.2803 21.3186 16.2815C21.1256 16.2851 20.9418 16.3695 20.8131 16.5133L19.5576 17.9199C19.4769 18.0103 19.3416 18.0261 19.2427 17.9569L18.4978 17.4365C18.3682 16.8808 18.1974 16.3998 17.9884 16.0048C17.838 15.7206 17.6001 15.4945 17.2973 15.3476C17.2801 15.3393 17.2627 15.3312 17.2451 15.3234C16.986 15.2075 16.7433 15.0096 16.5436 14.7499C16.5341 14.7376 16.5239 14.7259 16.5131 14.7151C16.4239 14.6256 16.2936 14.5874 16.1686 14.6182C16.0685 14.6425 13.7074 15.2433 13.4332 17.4636C13.4325 17.466 13.4325 17.4714 13.4325 17.4714L13.2481 19.3052L13.1989 19.676L13.1985 19.6789C12.8999 21.9228 12.5181 24.7914 13.1908 26.4482C13.273 26.6509 13.3711 26.8354 13.4869 26.9984C13.5284 27.0567 13.5721 27.1122 13.6182 27.1649C13.7854 27.3559 13.984 27.5087 14.2184 27.616C14.4805 27.7362 14.6504 28.0086 14.6504 28.3102C14.6504 28.6306 14.7492 28.9343 14.9325 29.1879C14.9835 29.2585 15.0411 29.3252 15.1049 29.3873ZM13.779 26.4315C13.8893 26.4283 13.9882 26.473 14.0566 26.5467C14.0761 26.5678 14.0932 26.5912 14.1073 26.6165C14.1638 26.6894 14.2253 26.7541 14.2922 26.8099C14.32 26.833 14.3486 26.8546 14.3782 26.8745L14.3877 26.8806C14.4002 26.8889 14.4126 26.8968 14.425 26.9043C14.4563 26.923 14.4885 26.94 14.5218 26.9552C14.7716 27.0696 14.9791 27.2517 15.1274 27.4749C15.2881 27.7167 15.3792 28.0069 15.3792 28.3114C15.3792 28.3548 15.3827 28.3976 15.3896 28.4395C15.4032 28.5212 15.4299 28.5999 15.4696 28.6749L15.475 28.6855C15.5114 28.7514 15.5578 28.8124 15.6134 28.8666C15.7645 29.0135 15.9647 29.0924 16.1747 29.0857L23.1342 28.8976C23.2968 28.8933 23.4467 28.8424 23.5686 28.7507C23.8484 28.539 23.9904 28.2186 23.9904 27.7981C23.9904 27.6429 23.9944 27.5043 23.9979 27.3813L23.9982 27.3709C24.0213 26.5899 24.0286 26.3539 22.7148 25.0401C21.7173 24.0425 20.1153 23.6026 19.2488 23.4291C18.5194 23.2828 18.0006 22.6141 18.0424 21.8726C18.0647 21.4775 18.0768 21.0818 18.0782 20.6979L18.0782 20.6857C18.0786 20.5549 18.148 20.4405 18.2517 20.3767C18.2983 20.348 18.3518 20.3295 18.4091 20.3243C18.42 20.3233 18.4311 20.3228 18.4423 20.3228H18.4435C18.6277 20.3234 18.7797 20.4611 18.8032 20.6388L19.142 20.7998C19.3829 20.9139 19.6699 20.8568 19.8483 20.659C19.8483 20.659 21.6012 18.7298 22.2511 17.992C22.2343 17.9796 22.2185 17.9656 22.2039 17.9502L21.9969 17.7319L21.3294 17.0281L21.0775 16.7624L19.8283 18.162C19.625 18.3895 19.2834 18.4296 19.0334 18.2548L18.4507 17.8478C18.4005 17.9109 18.3292 17.9577 18.2445 17.9763C18.2291 17.9797 18.2136 17.982 18.1983 17.9834L18.211 18.1249L16.5853 16.9892L16.5121 16.9381C16.347 16.8228 16.307 16.5958 16.4223 16.4308C16.5376 16.2657 16.7645 16.2257 16.9296 16.341L17.5347 16.7637L18.037 17.1146C17.9376 16.7748 17.8156 16.4573 17.6662 16.1753L17.6629 16.169C16.962 16.1198 16.3353 15.7133 15.8955 15.0919C15.2579 15.3404 13.9781 16.0192 13.7942 17.5091L13.6091 19.3489C13.593 19.4713 13.5763 19.5971 13.5591 19.7258C13.2693 21.9026 12.8695 24.9059 13.581 26.4372L13.779 26.4315Z" fill="#F3EBE3"/>
<path d="M19.8283 18.162C19.625 18.3895 19.2834 18.4296 19.0334 18.2548L18.4507 17.8478C18.4005 17.9109 18.3292 17.9577 18.2445 17.9763C18.2291 17.9797 18.2136 17.982 18.1983 17.9834L18.211 18.1249L18.8252 18.554C19.2263 18.8343 19.7743 18.77 20.1001 18.4053L21.3294 17.0281L21.0775 16.7624L19.8283 18.162Z" fill="#F3EBE3"/>
<path fill-rule="evenodd" clip-rule="evenodd" d="M19.9658 12.4052H20.0012C20.196 12.4052 20.3562 12.5587 20.3647 12.7535C20.3689 12.853 20.3325 12.9495 20.264 13.0211C20.1954 13.0927 20.1001 13.1334 20.0006 13.1334H19.6365C19.5637 14.4253 18.7712 15.4459 17.807 15.4459C17.6302 15.4459 17.4592 15.4116 17.2973 15.3476C16.9973 15.2289 16.7287 15.0083 16.5131 14.7151C16.2105 14.3037 16.0122 13.7494 15.9775 13.1334H15.6122C15.5127 13.1334 15.418 13.0927 15.3488 13.0211C15.2797 12.9495 15.2439 12.8524 15.2481 12.7535C15.2566 12.5587 15.4168 12.4052 15.6116 12.4052H15.6482C15.8437 11.1697 16.736 10.6916 17.807 10.6916C18.8786 10.6916 19.7704 11.1697 19.9658 12.4052ZM15.2481 12.7535C15.2451 12.8209 15.2439 12.881 15.2439 12.9386C15.2439 13.7647 15.4904 14.5195 15.8955 15.0919C16.3353 15.7133 16.962 16.1198 17.6629 16.169C17.7106 16.1724 17.7586 16.1741 17.807 16.1741L17.8058 16.1747C19.219 16.1747 20.3689 14.7232 20.3689 12.9392C20.3689 12.881 20.3677 12.8209 20.3647 12.7535C20.2961 11.2122 19.3635 10.3281 17.8064 10.3281C16.2493 10.3281 15.3167 11.2122 15.2481 12.7535Z" fill="#F3EBE3"/>
<path fill-rule="evenodd" clip-rule="evenodd" d="M24.0723 31.8679C24.0723 32.0688 24.2355 32.232 24.4364 32.232C24.522 32.232 24.4684 32.2023 24.3786 32.1526C24.258 32.0859 24.0723 31.9831 24.0723 31.8679ZM24.4364 31.5038C24.2355 31.5038 24.0723 31.667 24.0723 31.8679C24.0723 31.7527 24.258 31.6499 24.3786 31.5832C24.4684 31.5335 24.522 31.5038 24.4364 31.5038ZM24.6795 26.548H24.3635C24.1627 26.548 23.9995 26.7113 23.9995 26.9121C23.9995 27.113 24.1627 27.2762 24.3635 27.2762H24.7295C24.7352 27.0043 24.7289 26.7744 24.6795 26.548Z" fill="#F3EBE3"/>
<path fill-rule="evenodd" clip-rule="evenodd" d="M24.4364 32.232C24.522 32.232 24.4684 32.2023 24.3786 32.1526C24.258 32.0859 24.0723 31.9831 24.0723 31.8679C24.0723 31.7527 24.258 31.6499 24.3786 31.5832C24.4684 31.5335 24.522 31.5038 24.4364 31.5038C24.2355 31.5038 24.0723 31.667 24.0723 31.8679C24.0723 32.0688 24.2355 32.232 24.4364 32.232ZM13.581 26.4372L13.1908 26.4482C13.273 26.6509 13.3711 26.8354 13.4869 26.9984C13.2604 27.0617 13.0172 27.1281 12.7526 27.1894L13.6182 27.1649L13.7997 27.1597C14.0011 27.1536 14.1589 26.9862 14.1534 26.7853C14.1518 26.7239 14.1353 26.6664 14.1073 26.6165C14.0932 26.5912 14.0761 26.5678 14.0566 26.5467C13.9882 26.473 13.8893 26.4283 13.779 26.4315L13.581 26.4372Z" fill="#F3EBE3"/>
</svg>
