<svg width="40" height="40" viewBox="0 0 40 40" fill="none" xmlns="http://www.w3.org/2000/svg">
<rect width="40" height="40" rx="8" fill="#B11F42"/>
<path d="M11.7075 20.2841C11.2043 20.2841 10.795 20.692 10.795 21.1934V22.9417H12.62V21.1934C12.62 20.692 12.2106 20.2841 11.7075 20.2841Z" fill="#F3EBE3"/>
<path d="M7.5 32.5H9.325V29.4018C9.325 28.0927 10.3938 27.0277 11.7075 27.0277C13.0212 27.0277 14.0901 28.0927 14.0901 29.4018V32.5H15.915V16.5125H7.5V32.5ZM9.325 21.1934C9.325 19.8843 10.3938 18.8192 11.7075 18.8192C13.0212 18.8192 14.0901 19.8843 14.0901 21.1934V24.4065H9.325V21.1934Z" fill="#F3EBE3"/>
<path d="M8.5395 15.0476H14.8755L12.4425 12.6232V10.3393H13.9225V8.87441H12.4425V7.5H10.9725V8.87441H9.49253V10.3393H10.9725V12.6232L8.5395 15.0476Z" fill="#F3EBE3"/>
<path d="M11.7075 28.4926C11.2043 28.4926 10.795 28.9005 10.795 29.4019V32.5H12.62V29.4018C12.62 28.9004 12.2106 28.4926 11.7075 28.4926Z" fill="#F3EBE3"/>
<path d="M21.5926 28.4926C21.0894 28.4926 20.6801 28.9005 20.6801 29.4019V32.5H22.5051V29.4018C22.5051 28.9004 22.0958 28.4926 21.5926 28.4926Z" fill="#F3EBE3"/>
<path d="M28.2925 28.4926C27.7893 28.4926 27.38 28.9005 27.38 29.4019V32.5H29.205V29.4018C29.205 28.9004 28.7957 28.4926 28.2925 28.4926Z" fill="#F3EBE3"/>
<path d="M29.5758 20.8347L17.3851 20.8315V23.7443H31.7652L29.5758 20.8347Z" fill="#F3EBE3"/>
<path d="M17.3851 25.2092V32.5H19.2101V29.4018C19.2101 28.0927 20.2789 27.0277 21.5926 27.0277C22.9063 27.0277 23.9751 28.0927 23.9751 29.4018V32.5H25.9099V29.4018C25.9099 28.0927 26.9787 27.0277 28.2925 27.0277C29.6062 27.0277 30.675 28.0927 30.675 29.4018V32.5H32.5V25.2092H17.3851Z" fill="#F3EBE3"/>
</svg>
