<svg width="40" height="40" viewBox="0 0 40 40" fill="none" xmlns="http://www.w3.org/2000/svg">
<rect width="40" height="40" rx="8" fill="#B11F42"/>
<path d="M21.8311 7.69534C21.1199 7.69534 20.4921 7.97044 20 8.49427C19.5079 7.97044 18.8801 7.69534 18.169 7.69534C16.7315 7.69534 15.6055 8.82298 15.6055 10.2625C15.6055 11.7848 16.8614 12.7633 18.5995 14.1175C18.9008 14.3523 19.2123 14.5949 19.5425 14.8591C19.6762 14.9661 19.8382 15.0196 20 15.0196C20.1619 15.0196 20.3238 14.9661 20.4575 14.8591C20.7878 14.5949 21.0992 14.3523 21.4005 14.1175C23.1387 12.7633 24.3945 11.7848 24.3945 10.2625C24.3945 8.82298 23.2685 7.69534 21.8311 7.69534Z" fill="#F3EBE3"/>
<path d="M7.53937 21.2551C7.61374 21.4711 7.784 21.6407 8.0007 21.7121L16.1305 24.1612C16.4412 24.2657 16.7873 24.1493 16.9716 23.8729L19.0587 20.7415C19.1853 20.5513 19.2161 20.3131 19.1424 20.0978C19.0681 19.8818 18.8978 19.7122 18.6811 19.6408L10.5513 17.1917C10.2373 17.0851 9.894 17.2039 9.71017 17.48L7.62306 20.6114C7.49645 20.8016 7.46569 21.0398 7.53937 21.2551Z" fill="#F3EBE3"/>
<path d="M32.4606 21.2551C32.5343 21.0398 32.5035 20.8016 32.3769 20.6114L30.2898 17.48C30.106 17.2039 29.7627 17.0851 29.4487 17.1917L21.3189 19.6408C21.1022 19.7123 20.9319 19.8818 20.8576 20.0978C20.7839 20.3131 20.8147 20.5512 20.9413 20.7415L23.0284 23.8729C23.2127 24.1494 23.5588 24.2658 23.8695 24.1612L31.9993 21.7121C32.216 21.6406 32.3862 21.4711 32.4606 21.2551Z" fill="#F3EBE3"/>
<path d="M19.2676 23.0696L18.1904 24.6855C17.634 25.5176 16.5976 25.8639 15.6634 25.5495L10.4297 23.9787V28.8473C10.4297 29.1627 10.6314 29.4424 10.9304 29.5418L19.2676 32.3045V23.0696H19.2676Z" fill="#F3EBE3"/>
<path d="M29.5703 28.8473V23.9788L24.2944 25.5631C23.4594 25.8469 22.389 25.5519 21.8103 24.687L20.7324 23.0696V32.3046L29.0696 29.5419C29.3686 29.4424 29.5703 29.1627 29.5703 28.8473Z" fill="#F3EBE3"/>
<path d="M23.4812 14.3321C23.117 14.6368 22.7222 14.9446 22.3009 15.2729C22.0039 15.5042 21.697 15.7433 21.3725 16.0029C20.9844 16.3133 20.4969 16.4843 20 16.4843C19.503 16.4843 19.0155 16.3133 18.6274 16.0028C18.3029 15.7433 16.883 14.6368 16.5188 14.3321L11.5641 15.9692L19.1059 18.239C19.4516 18.3526 19.754 18.5418 19.9985 18.7839C20.2386 18.5435 20.5322 18.3577 20.8597 18.2497L28.4342 15.9687L23.4812 14.3321Z" fill="#F3EBE3"/>
</svg>
