<svg width="40" height="40" viewBox="0 0 40 40" fill="none" xmlns="http://www.w3.org/2000/svg">
<rect width="40" height="40" rx="8" fill="#B11F42"/>
<path d="M19.7683 23.9436H19.7669C19.7143 23.9436 19.6628 23.9334 19.615 23.9142C19.5518 23.8888 19.4951 23.8479 19.4507 23.7944C19.4478 23.791 19.4448 23.7875 19.4419 23.784C18.808 23.0278 17.6412 22.051 15.6738 21.6647C13.1579 21.1707 11.5859 22.1932 10.8376 22.8993C10.8127 22.9228 10.7888 22.9458 10.7658 22.9685C10.6056 23.1259 10.3487 23.1273 10.1871 22.9713C9.91432 22.7074 9.75963 22.3539 9.75203 21.9754L9.55491 12.3689L9.53781 11.5358L9.5269 11.0041C9.51516 10.426 9.85079 9.90119 10.3819 9.66846C11.9426 8.9834 15.997 7.73827 19.9127 10.9681C20.2372 11.2354 20.423 11.6339 20.423 12.0613V22.8773C20.423 23.213 20.3028 23.5396 20.0846 23.7972C20.0059 23.8904 19.8906 23.9436 19.7683 23.9436ZM14.3762 20.7047C14.8279 20.7047 15.3126 20.7496 15.8327 20.8518C17.6144 21.2013 18.8174 21.9927 19.5936 22.7365V12.0613C19.5936 11.8825 19.5176 11.7174 19.385 11.6076C15.8244 8.67056 12.1353 9.80382 10.7147 10.4274C10.4917 10.5255 10.3508 10.7451 10.3556 10.9875L10.58 21.9595C10.58 21.9803 10.5821 22.0003 10.5842 22.021C11.3494 21.3981 12.6007 20.7047 14.3762 20.7047Z" fill="#F3EBE3"/>
<path d="M15.7532 21.2579C12.946 20.7068 11.223 21.9368 10.4744 22.6736C10.5767 22.7727 10.6999 22.8504 10.8376 22.8993C10.9072 22.9241 10.9805 22.9415 11.0566 22.9505L18.8768 23.8808C19.0793 23.9049 19.2734 23.8675 19.4419 23.784C19.567 23.7221 19.6779 23.6348 19.7676 23.5286C19.046 22.6639 17.8022 21.6598 15.7532 21.2579Z" fill="#B11F42"/>
<path d="M20.2483 23.9436C20.1267 23.9436 20.0107 23.8897 19.932 23.7972C19.7138 23.5396 19.5943 23.213 19.5943 22.8773L19.5936 12.0613C19.5936 11.6339 19.7801 11.2361 20.1046 10.9681C24.0196 7.73827 28.0733 8.9834 29.6347 9.66846C30.1658 9.90119 30.5014 10.426 30.4897 11.0041L30.4777 11.5925L30.4606 12.4289L30.2653 21.9761C30.2577 22.3546 30.103 22.7081 29.8302 22.9719C29.6686 23.128 29.4117 23.1273 29.2515 22.9692C29.2282 22.9463 29.2041 22.923 29.179 22.8994C28.4298 22.1933 26.8586 21.1715 24.3435 21.6654C22.3763 22.0516 21.2102 23.0283 20.5756 23.7844C20.5726 23.788 20.5696 23.7916 20.5666 23.7951C20.5322 23.8366 20.4903 23.8704 20.4437 23.8953C20.3849 23.9267 20.3186 23.9439 20.2504 23.9443H20.249L20.2483 23.9436ZM25.7999 9.68227C24.2482 9.68227 22.4236 10.1291 20.6316 11.6076C20.499 11.7167 20.423 11.8825 20.423 12.0613V22.7365C21.1992 21.9927 22.4022 21.2013 24.1839 20.8518C26.7495 20.3484 28.4725 21.2393 29.4324 22.0203C29.4352 22.0003 29.4366 21.9796 29.4366 21.9589L29.661 10.9868C29.6658 10.7444 29.5249 10.5248 29.3019 10.4267C28.5961 10.1173 27.3309 9.68227 25.7999 9.68227Z" fill="#F3EBE3"/>
<path d="M24.2634 21.2579C27.0706 20.7068 28.7936 21.9368 29.5422 22.6736C29.4399 22.7727 29.3166 22.8504 29.179 22.8994C29.1094 22.9241 29.0361 22.9415 28.96 22.9505L21.1398 23.8808C20.9376 23.9049 20.7438 23.8676 20.5756 23.7844C20.4502 23.7225 20.3389 23.635 20.249 23.5286C20.9706 22.6639 22.2144 21.6598 24.2634 21.2579Z" fill="#B11F42"/>
<path d="M27.3489 16.8333C27.1203 16.8333 26.9346 16.6475 26.9346 16.419V12.7671C26.9346 12.5385 27.1203 12.3528 27.3489 12.3528C27.5775 12.3528 27.7633 12.5385 27.7633 12.7671V16.4196C27.7633 16.6482 27.5775 16.8333 27.3489 16.8333Z" fill="#F3EBE3"/>
<path d="M24.7288 16.2795H23.012C22.3456 16.2795 21.8035 15.7373 21.8035 15.0709V13.5282C21.8035 13.2996 21.9893 13.1138 22.2178 13.1138C22.4464 13.1138 22.6322 13.2996 22.6322 13.5282V15.0709C22.6322 15.2802 22.8028 15.4508 23.012 15.4508H24.7288C24.9381 15.4508 25.1086 15.2802 25.1086 15.0709V13.5282C25.1086 13.2996 25.2944 13.1138 25.523 13.1138C25.7516 13.1138 25.9373 13.2996 25.9373 13.5282V15.0709C25.9373 15.7373 25.3952 16.2795 24.7288 16.2795Z" fill="#F3EBE3"/>
<path d="M23.8704 18.0936C23.6418 18.0936 23.4561 17.9079 23.4561 17.6793V16.9977C23.4561 16.7691 23.6418 16.5833 23.8704 16.5833C24.099 16.5833 24.2848 16.7691 24.2848 16.9977V17.6793C24.2848 17.9079 24.099 18.0936 23.8704 18.0936Z" fill="#F3EBE3"/>
<path d="M18.7117 15.3479C18.6088 15.3479 18.5066 15.3099 18.4265 15.2339C18.4155 15.2235 17.8119 14.6642 16.7235 14.2933C15.2629 13.7954 13.6628 13.8527 11.9681 14.4653C11.7534 14.5433 11.5151 14.4314 11.4378 14.2167C11.3597 14.0012 11.4716 13.7636 11.6864 13.6863C16.2222 12.0475 18.8871 14.5288 18.9983 14.6352C19.1634 14.7933 19.1696 15.0557 19.0114 15.2208C18.9299 15.3057 18.8208 15.3479 18.7117 15.3479Z" fill="#F3EBE3"/>
<path d="M18.7117 19.4638C18.6088 19.4638 18.5066 19.4258 18.4265 19.3498C18.4155 19.3395 17.8119 18.7801 16.7235 18.4092C15.2629 17.9113 13.6628 17.9686 11.9681 18.5812C11.7534 18.6592 11.5151 18.5473 11.4378 18.3326C11.3597 18.1171 11.4716 17.8795 11.6864 17.8022C16.2222 16.1634 18.8871 18.6447 18.9983 18.7511C19.1634 18.9092 19.1696 19.1716 19.0114 19.3367C18.9299 19.4216 18.8208 19.4638 18.7117 19.4638Z" fill="#F3EBE3"/>
<path d="M18.7117 17.4058C18.6088 17.4058 18.5066 17.3678 18.4265 17.2919C18.4037 17.2705 17.0419 16.0191 14.678 16.0191C14.6552 16.0191 14.6317 16.0191 14.6082 16.0191H14.6041C14.3769 16.0191 14.1925 15.8361 14.1898 15.6089C14.1877 15.3803 14.3707 15.1925 14.6 15.1904C14.6269 15.1904 14.6531 15.1904 14.6801 15.1904C17.3982 15.1904 18.9348 16.6303 18.999 16.6924C19.1641 16.8506 19.1703 17.113 19.0121 17.278C18.9306 17.363 18.8208 17.4058 18.7117 17.4058Z" fill="#F3EBE3"/>
<path d="M11.8273 16.5481C11.6574 16.5481 11.4985 16.4431 11.4378 16.2746C11.3597 16.0592 11.4716 15.8216 11.6864 15.7443C12.2036 15.5571 12.7229 15.4162 13.2298 15.3244C13.4543 15.2836 13.6704 15.4328 13.7112 15.6579C13.7519 15.8831 13.6028 16.0985 13.3776 16.1393C12.9156 16.2228 12.4419 16.352 11.9681 16.5232C11.9219 16.5398 11.8742 16.5481 11.8273 16.5481Z" fill="#F3EBE3"/>
<path d="M20.0294 26.0085C19.8008 26.0085 19.615 25.8227 19.615 25.5941V24.1613V23.9142V23.1467C19.615 22.9181 19.8008 22.7323 20.0294 22.7323C20.2579 22.7323 20.4437 22.9181 20.4437 23.1467V23.8953V24.1808V25.5941C20.4437 25.8227 20.2579 26.0085 20.0294 26.0085Z" fill="#F3EBE3"/>
<path d="M10.1871 22.9713C9.91432 22.7074 9.75963 22.3539 9.75203 21.9754L9.55491 12.3689L9.36945 12.3535C9.09736 12.3307 8.8377 12.4205 8.63673 12.6062C8.43646 12.7913 8.32666 13.0441 8.32804 13.3168L8.38071 24.2051C8.38558 24.2304 8.38812 24.2566 8.38812 24.2834V24.512C8.38812 24.8655 8.65331 25.1639 9.00413 25.2046L19.9147 26.4857C19.9707 26.4919 20.0266 26.4919 20.0825 26.4857L31.0601 25.1141C31.3941 25.0724 31.6499 24.7966 31.67 24.4644L31.6706 17.5191V13.3679C31.6706 13.0889 31.556 12.8334 31.3474 12.6483C31.1388 12.4633 30.8716 12.3797 30.5947 12.4129L30.4606 12.4289L30.2653 21.9761C30.2577 22.3546 30.103 22.7081 29.8302 22.9719C29.6037 23.1909 29.3192 23.3255 29.0084 23.3628L21.1882 24.293C21.1315 24.2999 21.0756 24.3027 21.019 24.3027C20.819 24.3027 20.6234 24.2605 20.4437 24.1808V25.5941C20.4437 25.8227 20.2579 26.0085 20.0294 26.0085C19.8008 26.0085 19.615 25.8227 19.615 25.5941V24.1613C19.4239 24.2536 19.2133 24.3027 18.9976 24.3027C18.9417 24.3027 18.8851 24.2993 18.8284 24.2923L11.0082 23.3621C10.6974 23.3248 10.4129 23.1902 10.1871 22.9713Z" fill="#F3EBE3"/>
<path fill-rule="evenodd" clip-rule="evenodd" d="M25.7447 30.4303C25.8662 30.6209 26.0768 30.7362 26.3034 30.7362H27.6749C28.199 30.7362 28.516 30.1568 28.2335 29.7155L27.1518 28.0249L24.4336 28.381L25.7454 30.431L25.7447 30.4303ZM26.0941 30.2065L24.8883 28.3226L26.6984 28.0857L27.8841 29.9386C27.9559 30.0505 27.9145 30.1534 27.8931 30.192C27.8717 30.2307 27.8081 30.3212 27.6749 30.3212H26.3034C26.2184 30.3212 26.1404 30.2784 26.0941 30.2065Z" fill="#F3EBE3"/>
<path d="M26.3034 30.7362C26.0768 30.7362 25.8662 30.6209 25.7447 30.4303L25.7454 30.431L24.4336 28.381L23.9799 28.4405L25.3959 30.6534C25.5948 30.9641 25.9339 31.1499 26.3034 31.1499H27.6749L27.6735 31.1492C28.0678 31.1492 28.4297 30.9344 28.6189 30.5891C28.8081 30.2438 28.7936 29.8226 28.5816 29.4911L27.6055 27.9654L27.1518 28.0249L28.2335 29.7155C28.516 30.1568 28.199 30.7362 27.6749 30.7362H26.3034Z" fill="#F3EBE3"/>
<path d="M24.1881 27.9974L26.9062 27.641L27.1518 28.0249L27.6055 27.9654L27.2543 27.4166C27.1712 27.2863 27.0229 27.213 26.8697 27.2267L24.1228 27.5866C23.9865 27.6082 23.8696 27.6954 23.8117 27.8213C23.7523 27.9504 23.762 28.1003 23.8386 28.2197L23.9799 28.4405L24.4336 28.381L24.1881 27.9974Z" fill="#F3EBE3"/>
<path d="M26.9062 27.641L24.1881 27.9974L24.4336 28.381L27.1518 28.0249L26.9062 27.641Z" fill="#F3EBE3"/>
<path d="M19.7732 28.931C19.8519 28.9414 19.9306 28.9469 20.01 28.9469L20.0086 28.9455C20.0867 28.9455 20.164 28.9407 20.2414 28.9303L23.9799 28.4405L23.8386 28.2197C23.762 28.1003 23.7523 27.9504 23.8117 27.8213C23.8696 27.6954 23.9865 27.6082 24.1228 27.5866L20.1343 28.1092C20.0508 28.1203 19.9658 28.1203 19.8823 28.1092L9.22235 26.6852C8.79569 26.6286 8.46172 26.291 8.3988 25.8752C7.89707 25.6223 7.55942 25.1029 7.55942 24.512V24.2834C7.55942 24.0548 7.74519 23.869 7.97377 23.869C8.17559 23.869 8.34403 24.0138 8.38071 24.2051L8.32804 13.3168C8.32666 13.0441 8.43646 12.7913 8.63673 12.6062C8.8377 12.4205 9.09736 12.3307 9.36945 12.3535L9.55491 12.3689L9.53781 11.5358L9.43851 11.5275C8.9399 11.4861 8.44199 11.658 8.0746 11.9978C7.7072 12.3383 7.49726 12.8203 7.50003 13.321L7.56011 25.7412C7.56425 26.63 8.23205 27.3889 9.11324 27.507L12.2913 27.9316L12.6421 27.3834C12.7292 27.2481 12.8866 27.1749 13.0461 27.1963L15.7601 27.5588C15.9003 27.5775 16.0219 27.6666 16.0813 27.795C16.1407 27.9235 16.131 28.0733 16.0543 28.1928L15.912 28.4152L19.7732 28.931Z" fill="#F3EBE3"/>
<path fill-rule="evenodd" clip-rule="evenodd" d="M12.2009 31.1499H13.5724C13.9418 31.1499 14.2809 30.9641 14.4798 30.6534L15.912 28.4152L16.0543 28.1928C16.131 28.0733 16.1407 27.9235 16.0813 27.795C16.0219 27.6666 15.9003 27.5775 15.7601 27.5588L13.0461 27.1963C12.8866 27.1749 12.7292 27.2481 12.6421 27.3834L12.2913 27.9316L11.2927 29.4918C11.0807 29.8233 11.0662 30.2445 11.2554 30.5898C11.4447 30.9351 11.8072 31.1499 12.2009 31.1499ZM13.1981 28.0526L15.0046 28.2936L15.4586 28.3547L14.1304 30.4303C14.0081 30.6209 13.7975 30.7362 13.5717 30.7362H12.2002C11.676 30.7362 11.359 30.1568 11.6415 29.7155L12.7445 27.9921L13.1981 28.0526Z" fill="#F3EBE3"/>
<path d="M11.6415 29.7155C11.359 30.1568 11.676 30.7362 12.2002 30.7362H13.5717C13.7975 30.7362 14.0081 30.6209 14.1304 30.4303L15.4586 28.3547L15.0046 28.2936L13.7809 30.2065C13.7353 30.2784 13.6566 30.3212 13.5717 30.3212H12.2002C12.0669 30.3212 12.0034 30.2307 11.9819 30.192C11.9612 30.1534 11.9191 30.0505 11.9909 29.9386L13.1981 28.0526L12.7445 27.9921L11.6415 29.7155Z" fill="#F3EBE3"/>
<path fill-rule="evenodd" clip-rule="evenodd" d="M24.1228 27.5866L26.8697 27.2267C26.8637 27.2272 26.8577 27.2279 26.8517 27.2287L24.1335 27.5851L24.1228 27.5866ZM32.409 17.5848C32.4655 17.4826 32.4993 17.4216 32.4993 17.5191C32.4993 17.7476 32.3135 17.9334 32.085 17.9334C32.216 17.9334 32.333 17.722 32.409 17.5848ZM31.7609 17.5847C31.8369 17.722 31.9539 17.9334 32.085 17.9334C31.8564 17.9334 31.6706 17.7476 31.6706 17.5191C31.6706 17.4216 31.7044 17.4826 31.7609 17.5847ZM32.4987 24.4848C32.4759 25.0443 32.1483 25.5344 31.6695 25.7804C31.6698 25.7715 31.6699 25.7626 31.6699 25.7536L31.67 24.4644C31.6709 24.4504 31.6713 24.4363 31.6713 24.4222V24.2841C31.6713 24.0555 31.8571 23.8697 32.0856 23.8697C32.3033 23.8697 32.4821 24.0381 32.4987 24.2516C32.4996 24.2623 32.5 24.2731 32.5 24.2841V24.4222C32.5 24.4431 32.4996 24.464 32.4987 24.4848ZM12.2913 27.9316L12.7445 27.9921L15.4586 28.3547L15.912 28.4152L16.0543 28.1928C16.131 28.0733 16.1407 27.9235 16.0813 27.795C16.0219 27.6666 15.9003 27.5775 15.7601 27.5588L13.0461 27.1963C12.8866 27.1749 12.7292 27.2481 12.6421 27.3834L12.2913 27.9316ZM9.53781 11.5358L9.55491 12.3689L9.92675 12.3997C10.156 12.4198 10.3556 12.2492 10.3743 12.0213C10.3936 11.7927 10.2237 11.5924 9.99581 11.5738L9.53781 11.5358Z" fill="#F3EBE3"/>
<path d="M19.818 27.3088C19.8767 27.3157 19.9361 27.3192 19.9955 27.3192L19.9962 27.3199C20.0591 27.3199 20.1226 27.3157 20.1854 27.3081L31.163 25.9366C31.3442 25.914 31.5148 25.8599 31.6695 25.7804C31.6698 25.7715 31.6699 25.7626 31.6699 25.7536L31.67 24.4644C31.6499 24.7966 31.3941 25.0724 31.0601 25.1141L20.0825 26.4857C20.0266 26.4919 19.9707 26.4919 19.9147 26.4857L9.00413 25.2046C8.65331 25.1639 8.38812 24.8655 8.38812 24.512V24.2834C8.38812 24.2566 8.38558 24.2304 8.38071 24.2051L8.38812 25.7371C8.38833 25.7839 8.39196 25.83 8.3988 25.8752C8.55431 25.9536 8.72558 26.0064 8.90744 26.0278L19.818 27.3088Z" fill="#F3EBE3"/>
<path d="M7.55942 24.2834V24.512C7.55942 25.1029 7.89707 25.6223 8.3988 25.8752C8.39196 25.83 8.38833 25.7839 8.38812 25.7371L8.38071 24.2051C8.34403 24.0138 8.17559 23.869 7.97377 23.869C7.74519 23.869 7.55942 24.0548 7.55942 24.2834Z" fill="#F3EBE3"/>
<path fill-rule="evenodd" clip-rule="evenodd" d="M10.0607 22.675C10.0614 22.7869 10.107 22.8939 10.1871 22.9713C10.3487 23.1273 10.6056 23.1259 10.7658 22.9685C10.7888 22.9458 10.8127 22.9228 10.8376 22.8993C10.9072 22.9241 10.9805 22.9415 11.0566 22.9505L18.8768 23.8808C19.0793 23.9049 19.2734 23.8675 19.4419 23.784L19.4507 23.7944C19.4951 23.8479 19.5518 23.8888 19.615 23.9142V24.1613C19.7923 24.0756 19.9527 23.9527 20.0846 23.7972C20.2151 23.6439 20.2158 23.4181 20.0867 23.2634C19.3685 22.4029 18.0481 21.2855 15.8334 20.8511C12.8604 20.2676 11.0179 21.5576 10.1843 22.378C10.1049 22.4561 10.0607 22.5631 10.0607 22.675ZM18.9265 23.4699L11.2444 22.5562L11.2437 22.5555C12.0945 21.9133 13.5475 21.2475 15.6738 21.6647C17.3658 21.9968 18.4645 22.7655 19.1426 23.4554C19.0729 23.4733 18.9997 23.4788 18.9265 23.4699Z" fill="#F3EBE3"/>
<path fill-rule="evenodd" clip-rule="evenodd" d="M29.8302 22.9719C29.6686 23.128 29.4117 23.1273 29.2515 22.9692C29.2282 22.9463 29.2041 22.923 29.179 22.8994C29.1094 22.9241 29.0361 22.9415 28.96 22.9505L21.1398 23.8808C20.9376 23.9049 20.7438 23.8676 20.5756 23.7844L20.5666 23.7951C20.5322 23.8366 20.4903 23.8704 20.4437 23.8953V24.1808C20.2497 24.0948 20.0743 23.965 19.932 23.7972C19.8022 23.6432 19.8008 23.4188 19.9299 23.2641C20.6481 22.4036 21.9692 21.2869 24.1839 20.8518C27.1576 20.2683 28.9987 21.5576 29.8323 22.3787C29.9117 22.4568 29.9566 22.5645 29.9559 22.6757C29.9552 22.7869 29.9103 22.8939 29.8302 22.9719ZM21.0901 23.4699C21.0169 23.4781 20.9437 23.4733 20.874 23.4554L20.8733 23.456C21.5514 22.7661 22.6522 21.9975 24.3435 21.6654C26.4705 21.2475 27.9214 21.9133 28.7722 22.5562L21.0901 23.4699Z" fill="#F3EBE3"/>
<path fill-rule="evenodd" clip-rule="evenodd" d="M31.6706 17.5191C31.6706 17.7476 31.8564 17.9334 32.085 17.9334C32.3135 17.9334 32.4993 17.7476 32.4993 17.5191C32.4993 17.4216 32.4655 17.4826 32.409 17.5848C32.333 17.722 32.216 17.9334 32.085 17.9334C31.9539 17.9334 31.8369 17.722 31.7609 17.5847C31.7044 17.4826 31.6706 17.4216 31.6706 17.5191ZM30.4606 12.4289L30.4777 11.5925L30.0042 11.6491C29.777 11.676 29.6147 11.8825 29.6423 12.1097C29.6693 12.3369 29.8765 12.4985 30.103 12.4716L30.4606 12.4289Z" fill="#F3EBE3"/>
<path d="M30.9406 27.5284C31.8287 27.4124 32.4986 26.6493 32.4986 25.7536L32.4987 24.4848C32.4759 25.0443 32.1483 25.5344 31.6695 25.7804C31.6565 26.2501 31.3019 26.6463 30.8336 26.7073L26.8697 27.2267C27.0229 27.213 27.1712 27.2863 27.2543 27.4166L27.6055 27.9654L30.9406 27.5284Z" fill="#F3EBE3"/>
<path d="M32.085 17.9334C31.8564 17.9334 31.6706 17.7476 31.6706 17.5191L31.67 24.4644C31.6709 24.4504 31.6713 24.4363 31.6713 24.4222V24.2841C31.6713 24.0555 31.8571 23.8697 32.0856 23.8697C32.3033 23.8697 32.4821 24.0381 32.4987 24.2516L32.4993 17.5191C32.4993 17.7476 32.3135 17.9334 32.085 17.9334Z" fill="#F3EBE3"/>
<path d="M31.6706 13.3679V17.5191C31.6706 17.4216 31.7044 17.4826 31.7609 17.5847C31.8369 17.722 31.9539 17.9334 32.085 17.9334C32.216 17.9334 32.333 17.722 32.409 17.5848C32.4655 17.4826 32.4993 17.4216 32.4993 17.5191V13.3679C32.4993 12.8562 32.2797 12.3687 31.8971 12.0289C31.5145 11.6891 31.0042 11.5296 30.4959 11.5904L30.4777 11.5925L30.4606 12.4289L30.5947 12.4129C30.8716 12.3797 31.1388 12.4633 31.3474 12.6483C31.556 12.8334 31.6706 13.0889 31.6706 13.3679Z" fill="#F3EBE3"/>
</svg>
