<svg width="38" height="40" viewBox="0 0 38 40" fill="none" xmlns="http://www.w3.org/2000/svg">
<rect width="37.9995" height="40" rx="8" fill="#B11F42"/>
<path d="M11.7658 18.9713V21.3542V25.3488L20.6549 26.0102V17.7449L11.7658 18.9713Z" fill="#F3EBE3"/>
<path d="M30.2722 18.9889L21.3843 17.7795V26.0102L23.4129 25.8567V21.1509C23.4129 20.64 23.8285 20.2237 24.3401 20.2237H26.8128C27.3237 20.2237 27.74 20.6394 27.74 21.1509V25.5296L30.2722 25.3379V18.9889Z" fill="#F3EBE3"/>
<path d="M27.0112 25.5842L27.0106 21.1509C27.0106 21.0411 26.9214 20.9519 26.8116 20.9519H24.3389C24.229 20.9519 24.1398 21.0411 24.1398 21.1509V25.8015L27.0112 25.5842Z" fill="#F3EBE3"/>
<path d="M26.8122 20.5872H24.3395C24.0282 20.5872 23.7764 20.8396 23.7764 21.1503V26.1656C23.7764 26.1753 23.7776 26.1844 23.7776 26.1941L27.3759 25.9222V21.1509C27.3759 20.8396 27.1229 20.5872 26.8122 20.5872Z" fill="#B11F42"/>
<path d="M23.7776 26.5582C23.689 26.5582 23.6034 26.526 23.5367 26.4671C23.4632 26.4022 23.4189 26.3106 23.4141 26.2123C23.4129 26.1947 23.4123 26.1801 23.4123 26.1656L23.4129 21.1509C23.4129 20.64 23.8285 20.2237 24.3401 20.2237H26.8128C27.3237 20.2237 27.74 20.6394 27.74 21.1509L27.7394 25.9216C27.7394 26.1122 27.5926 26.2705 27.4026 26.2845L23.8043 26.5563C23.7952 26.557 23.7867 26.5582 23.7776 26.5582ZM24.3389 20.9519C24.229 20.9519 24.1398 21.0411 24.1398 21.1509V25.8015L27.0112 25.5842L27.0118 21.1503C27.0118 21.0405 26.9226 20.9513 26.8128 20.9513H24.3401L24.3389 20.9519Z" fill="#F3EBE3"/>
<path d="M9.81861 9.91105L12.5923 10.3498L9.21423 12.2145L7.34952 15.5926L6.36406 9.36432L8.75427 9.74236" fill="#F3EBE3"/>
<path d="M7.34952 15.9567C7.32888 15.9567 7.30765 15.9548 7.28641 15.9512C7.13349 15.9245 7.01395 15.8031 6.98968 15.6496L6.00423 9.42136C5.98602 9.30607 6.02425 9.18896 6.10678 9.10704C6.1893 9.02451 6.30581 8.98628 6.4211 9.00449L8.8107 9.38253C9.00913 9.41408 9.14505 9.60037 9.1135 9.7988C9.08195 9.99722 8.89566 10.1331 8.69723 10.1016L6.80218 9.80244L7.54369 14.4882L8.89566 12.0385C8.92903 11.9784 8.97818 11.9287 9.03826 11.8959L11.4879 10.544L9.76157 10.2709C9.56314 10.2393 9.42722 10.053 9.45877 9.85462C9.49033 9.6562 9.67722 9.52088 9.87504 9.55183L12.6488 9.99055C12.8023 10.0148 12.9236 10.1338 12.9503 10.2873C12.977 10.4402 12.9036 10.5937 12.7677 10.669L9.48122 12.4827L7.66748 15.7692C7.60255 15.8869 7.48059 15.9567 7.34952 15.9567Z" fill="#F3EBE3"/>
<path fill-rule="evenodd" clip-rule="evenodd" d="M30.7328 13.6963C30.7328 13.6963 27.6947 12.8629 25.7491 12.3292L25.458 12.4323L25.3019 12.584L25.3939 12.7875L25.4998 13C27.3411 13.5051 30.2728 14.325 30.2728 14.325V14.385L21.3837 13.1757V11.8868C21.3837 11.8868 23.8707 12.5533 25.4998 13L25.3939 12.7875L25.3019 12.584L25.458 12.4323L25.748 12.3289L21.1155 11.0585C21.1113 11.0573 21.107 11.0567 21.1028 11.0555C21.0955 11.0537 21.0888 11.0525 21.0815 11.0512C21.0749 11.05 21.0676 11.0494 21.0609 11.0482C21.0542 11.0476 21.0476 11.0464 21.0403 11.0464H21.019H20.999C20.9917 11.0464 20.9844 11.0476 20.9772 11.0482C20.9705 11.0488 20.9644 11.05 20.9577 11.0506C20.9505 11.0518 20.9432 11.0537 20.9359 11.0555C20.9317 11.0567 20.9274 11.0573 20.9232 11.0579L11.3053 13.6963C11.1469 13.7394 11.0377 13.8832 11.0377 14.0476V21.3542L11.4018 21.7183L11.7658 21.3542V18.9713L20.6549 17.7449V26.0102L11.7658 25.3488V21.3542L11.4018 21.7183L11.0377 21.3542V29.0691C11.0377 29.2469 11.1657 29.3986 11.3411 29.4284L20.9031 31.04C20.9232 31.0437 20.9432 31.0449 20.9638 31.0449C20.9844 31.0449 21.0057 31.0431 21.0263 31.0394L21.0809 31.0297L30.6982 29.3531C30.8723 29.3228 30.9998 29.1717 30.9998 28.9945V14.0476C30.9998 13.8838 30.8905 13.74 30.7328 13.6963ZM12.1694 26.1091L11.7658 26.0794V27.3579L12.2282 27.3919V26.1134L12.1694 26.1091ZM30.2722 27.347V26.0685L29.7904 26.1049L29.7 26.1116V27.3901L30.2722 27.347ZM22.9402 26.6225V27.901L25.6556 27.6959V26.4174L22.9402 26.6225ZM21.7023 27.9939L22.212 27.9556V26.6771L21.3831 26.7396V28.0181L21.7023 27.9939ZM26.3838 26.3622V27.6407L28.9712 27.4453V26.1668L26.3838 26.3622ZM20.6549 13.8759L11.7658 15.1023V16.4834L20.6549 15.257V13.8759ZM21.3831 16.0271V17.0447L30.2722 18.254V17.2364L21.3831 16.0271ZM21.3831 15.2922L30.2722 16.5016V15.1199L21.3831 13.9105V15.2922ZM20.6549 15.9925L11.7658 17.2188V18.2364L20.6549 17.0101V15.9925ZM21.3843 17.7795L30.2722 18.9889V25.3379L27.74 25.5296V21.1509L27.7394 25.9216C27.7394 26.1122 27.5926 26.2705 27.4026 26.2845L23.8043 26.5563C23.7952 26.557 23.7867 26.5582 23.7776 26.5582C23.689 26.5582 23.6034 26.526 23.5367 26.4671C23.4632 26.4022 23.4189 26.3106 23.4141 26.2123C23.4129 26.1947 23.4123 26.1801 23.4123 26.1656L23.4129 25.8567L21.3843 26.0102V17.7795ZM12.9564 26.168V27.4465L15.6494 27.6468V26.3682L12.9564 26.168ZM16.3776 26.4222V27.7008L18.9195 27.8901V26.6116L16.3776 26.4222ZM19.6477 26.6656V27.9441L20.6549 28.0194V26.7408L19.6477 26.6656ZM20.6549 13.1417V11.8874L11.7658 14.3262V14.368L20.6549 13.1417ZM13.9388 29.1274V28.2493L11.7658 28.0879V28.7609L13.9388 29.1274ZM17.2841 28.4993L17.0517 28.4817L14.667 28.3039V29.2512L17.2841 29.6923V28.4993ZM20.6549 30.2597V28.7493L18.0123 28.5527V29.8143L20.6549 30.2597ZM23.9341 29.7943V28.5564L21.3831 28.7487V30.2384L23.9341 29.7943ZM27.314 29.205V28.3003L24.6623 28.5012V29.6668L27.314 29.205ZM28.0422 28.2457V29.0782L30.2722 28.6899V28.077L28.0422 28.2457Z" fill="#F3EBE3"/>
</svg>
