<svg width="40" height="40" viewBox="0 0 40 40" fill="none" xmlns="http://www.w3.org/2000/svg">
<rect width="40" height="40" rx="8" fill="#B11F42"/>
<path d="M24.3139 26.8063C24.2503 26.8063 24.1845 26.803 24.1172 26.7953C23.9436 26.7753 23.76 26.7254 23.5785 26.6249C23.5379 26.6024 23.5021 26.5727 23.4729 26.5369C23.4578 26.5187 23.4001 26.4889 23.354 26.4653C23.2715 26.4228 23.1683 26.3706 23.0737 26.2814C22.9796 26.1934 22.939 26.0624 22.9669 25.9368C23.0124 25.7329 23.1313 25.5988 23.2181 25.5011C23.2357 25.4817 23.2533 25.4617 23.2697 25.4416C23.4201 25.2554 23.5051 25.0497 23.5227 24.83C23.5506 24.4787 23.7666 24.3246 23.9432 24.2572L24.0148 24.2293C24.2715 24.1292 24.5621 24.0157 24.9407 24.0794C25.2702 24.1352 25.6367 24.0831 26.0287 23.9241C26.1379 23.8798 26.2623 23.8913 26.3618 23.955C26.4613 24.0187 26.5238 24.1267 26.5293 24.2445C26.562 24.9416 26.3964 25.5053 26.022 25.9677C25.8388 26.1946 25.6288 26.3621 25.3995 26.4659C25.3509 26.4877 25.2951 26.5199 25.2356 26.5539C25.0936 26.6352 24.9328 26.728 24.7399 26.7632C24.7005 26.7703 24.6585 26.7773 24.6143 26.7835C24.523 26.7963 24.4221 26.8057 24.3145 26.8057L24.3139 26.8063ZM23.9766 26.0108C24.1404 26.086 24.3382 26.097 24.6082 26.0472C24.6717 26.0357 24.758 25.9881 24.8447 25.9388C24.8507 25.9354 24.8566 25.932 24.8625 25.9286C24.8659 25.9267 24.8694 25.9248 24.8728 25.9228C24.8776 25.92 24.8825 25.9173 24.8873 25.9145C24.9549 25.8758 25.0245 25.836 25.1003 25.8021C25.2253 25.7456 25.3448 25.6473 25.4559 25.5102C25.6154 25.313 25.7183 25.0898 25.7688 24.8276C25.7728 24.8066 25.7765 24.7853 25.7799 24.7639C25.4474 24.8379 25.1258 24.8494 24.8194 24.7978C24.6483 24.7687 24.5093 24.8179 24.2793 24.9077L24.246 24.921C24.2114 25.2766 24.0736 25.6061 23.8364 25.8991L23.8352 25.9004C23.8559 25.9134 23.8768 25.9276 23.8976 25.9433C23.8999 25.945 23.9022 25.9468 23.9045 25.9485C23.9289 25.9673 23.9531 25.988 23.9766 26.0108Z" fill="#F3EBE3"/>
<path d="M15.529 26.799C15.456 26.799 15.3806 26.7954 15.3037 26.7865C15.1332 26.7668 14.9551 26.7212 14.7778 26.6321C14.7317 26.6091 14.691 26.5763 14.6588 26.5363C14.6443 26.5181 14.5866 26.4889 14.5405 26.4653C14.4574 26.4228 14.3542 26.37 14.259 26.2802C14.1601 26.1874 14.1212 26.0466 14.1582 25.9161C14.2147 25.7165 14.3342 25.5836 14.4307 25.4768C14.4774 25.4253 14.5302 25.3664 14.5399 25.3336C14.7371 24.6504 15.248 24.6765 15.5356 24.7529C15.6473 24.7827 15.7729 24.7742 15.8712 24.7299C16.4525 24.469 17.0107 24.6067 17.4427 25.1188C17.5326 25.225 17.5538 25.3737 17.498 25.5005C17.2995 25.9501 16.9755 26.2851 16.5356 26.4944C16.5217 26.5011 16.4877 26.5229 16.461 26.5405C16.3378 26.62 16.1515 26.7408 15.8851 26.7741C15.8597 26.7773 15.8335 26.7803 15.8068 26.7831C15.7199 26.7923 15.6264 26.799 15.529 26.799ZM15.1576 26.0059C15.3214 26.0733 15.5162 26.0872 15.7941 26.0521C15.8955 26.0393 15.978 25.9859 16.0654 25.9295C16.0702 25.9264 16.0751 25.9232 16.08 25.9201C16.1246 25.8914 16.171 25.8619 16.2219 25.8379C16.4046 25.7508 16.5525 25.6333 16.6691 25.4828C16.6842 25.4634 16.6988 25.4434 16.7128 25.4228C16.5241 25.2869 16.3548 25.3112 16.1697 25.3943C15.9203 25.5066 15.6206 25.529 15.3481 25.4568C15.3136 25.4477 15.2893 25.4441 15.2735 25.4428C15.265 25.4592 15.2529 25.4878 15.2389 25.5357C15.1934 25.6934 15.1066 25.8093 15.0253 25.904C15.0416 25.9146 15.0581 25.9259 15.0745 25.938C15.0782 25.9407 15.0819 25.9435 15.0855 25.9462C15.1096 25.9644 15.1336 25.9844 15.157 26.0065L15.1576 26.0059Z" fill="#F3EBE3"/>
<path d="M16.1685 28.8918L14.9823 28.8875C14.9216 28.8875 14.8627 28.8724 14.8093 28.8432C14.6983 28.7826 14.5193 28.6333 14.5715 28.3105L14.5727 28.3026C14.5715 27.7826 14.5733 27.2553 14.5751 26.745L14.5769 26.3063C14.5775 26.1115 14.731 25.9519 14.9258 25.9441C14.9804 25.9417 15.0338 25.9429 15.0855 25.9462C15.1839 25.9526 15.2766 25.9667 15.3621 25.9798C15.5041 26.0017 15.6273 26.0199 15.7359 25.9999C15.7401 25.9987 15.7656 25.989 15.782 25.9823C15.8915 25.9401 15.991 25.9194 16.08 25.9201C16.2307 25.9212 16.3515 25.9837 16.4403 26.1073C16.5653 26.2802 16.5502 26.4786 16.5386 26.623C16.5362 26.6558 16.5338 26.6874 16.5338 26.7098C16.5338 27.0344 16.532 27.3591 16.5302 27.6837L16.5283 28.0556L16.5326 28.5247C16.5332 28.6218 16.495 28.7158 16.4264 28.7844C16.3578 28.853 16.265 28.8918 16.1685 28.8918ZM15.3008 28.1606L15.802 28.1624V28.0569L15.8032 27.6794C15.8049 27.3809 15.8061 27.0818 15.8068 26.7831C15.8068 26.7637 15.8068 26.7444 15.8069 26.725C15.623 26.7492 15.4555 26.7292 15.3038 26.7068V26.748C15.3038 26.7608 15.3037 26.7737 15.3037 26.7865C15.3019 27.238 15.3002 27.7016 15.3008 28.1606Z" fill="#F3EBE3"/>
<path d="M12.8676 28.9033C12.7038 28.9033 12.5715 28.8523 12.4744 28.751C12.361 28.6333 12.3179 28.4695 12.3458 28.265C12.3506 28.2316 12.35 28.1861 12.35 28.1382C12.35 28.1096 12.35 28.0811 12.35 28.052L12.3537 26.2553C12.3537 26.1352 12.4131 26.0229 12.5127 25.9556C12.6122 25.8876 12.7384 25.8737 12.85 25.9174C13.1692 26.0417 13.4787 26.0417 13.7966 25.9174C13.9083 25.8737 14.0345 25.8876 14.134 25.9556C14.2335 26.0229 14.293 26.1352 14.293 26.2553L14.2984 28.0459C14.3148 28.3518 14.3245 28.5544 14.1625 28.7255C13.9999 28.8973 13.7905 28.8972 13.5011 28.8972C13.4386 28.8972 13.3767 28.896 13.3142 28.8942C13.1856 28.8912 13.0636 28.8888 12.9508 28.8997C12.9222 28.9027 12.8943 28.9039 12.867 28.9039L12.8676 28.9033ZM13.1443 28.163C13.208 28.163 13.2699 28.1643 13.3318 28.1661C13.4131 28.1679 13.495 28.1691 13.577 28.1685C13.5757 28.1382 13.5739 28.106 13.5721 28.0757C13.5721 28.0696 13.5721 28.0635 13.5721 28.0569L13.5687 26.7973L13.5685 26.7232C13.4064 26.7438 13.2444 26.7438 13.083 26.7232L13.0829 26.7958L13.08 28.0575C13.08 28.0575 13.08 28.0629 13.08 28.066C13.08 28.089 13.08 28.1127 13.08 28.1363V28.1637C13.1018 28.1637 13.1237 28.1637 13.1455 28.1637L13.1443 28.163Z" fill="#F3EBE3"/>
<path d="M24.982 28.8912L23.7963 28.8881C23.7369 28.8881 23.6786 28.8736 23.6264 28.8457C23.5136 28.7856 23.3315 28.6363 23.3856 28.3111L23.3868 28.3032C23.3856 27.7899 23.3874 27.2693 23.3892 26.765L23.391 26.3051C23.3916 26.1061 23.5524 25.944 23.7514 25.9422C23.8041 25.9418 23.8551 25.9443 23.9045 25.9485C23.988 25.9557 24.0667 25.9679 24.1401 25.9792C24.1414 25.9794 24.1427 25.9796 24.144 25.9798L24.1449 25.98C24.2926 26.003 24.4203 26.0229 24.5275 25.9962C24.6204 25.9732 24.7114 25.9598 24.7987 25.9459C24.8139 25.9435 24.8292 25.9412 24.8447 25.9388C24.8684 25.9352 24.8925 25.9315 24.9171 25.9271C25.0226 25.9089 25.1313 25.9386 25.2132 26.0078C25.2951 26.0769 25.3424 26.1789 25.3424 26.2857V28.052L25.3461 28.5235C25.3467 28.6206 25.3084 28.714 25.2399 28.7832C25.1713 28.8517 25.0785 28.8912 24.982 28.8912ZM24.1137 28.1606L24.6149 28.1618V28.0569L24.6143 28.0538V26.7835V26.7207C24.4341 26.7505 24.2684 26.7341 24.1173 26.7116V26.7668C24.1173 26.7763 24.1173 26.7858 24.1172 26.7953C24.1154 27.2433 24.1137 27.7043 24.1143 28.16L24.1137 28.1606Z" fill="#F3EBE3"/>
<path d="M21.6823 28.9021C21.5767 28.9021 21.4062 28.8815 21.2788 28.7431C21.172 28.6272 21.132 28.4731 21.1599 28.2838C21.1653 28.248 21.1647 28.1988 21.1647 28.1461C21.1647 28.1145 21.1647 28.083 21.1647 28.052L21.169 26.2553C21.169 26.1352 21.2291 26.0229 21.328 25.9556C21.4275 25.8876 21.5537 25.8737 21.6653 25.9174C21.9839 26.0417 22.294 26.0417 22.6119 25.9174C22.7236 25.8737 22.8498 25.8882 22.9493 25.9556C23.0488 26.0229 23.1083 26.1352 23.1083 26.2553L23.1131 28.0465C23.1289 28.3524 23.1374 28.555 22.9754 28.7255C22.8128 28.8966 22.604 28.8966 22.3152 28.8966C22.2545 28.8966 22.1938 28.8954 22.1326 28.8948C21.9997 28.893 21.8747 28.8912 21.7539 28.8991C21.7369 28.9003 21.7121 28.9021 21.6823 28.9021ZM21.9608 28.1655C22.0024 28.1655 22.0435 28.166 22.0842 28.1666C22.104 28.1668 22.1238 28.1671 22.1435 28.1673C22.2254 28.1685 22.3073 28.1691 22.3892 28.1691C22.388 28.1382 22.3862 28.1066 22.3844 28.0757C22.3844 28.0696 22.3844 28.0641 22.3844 28.0581L22.3809 26.7957L22.3807 26.7238C22.2187 26.7444 22.0573 26.7444 21.8953 26.7238L21.8951 26.7975L21.8923 28.0581C21.8923 28.0581 21.8923 28.0629 21.8923 28.066C21.8923 28.0914 21.8923 28.1163 21.8923 28.1418C21.8923 28.1497 21.8923 28.1582 21.8923 28.1661C21.9038 28.1661 21.9152 28.1659 21.9266 28.1658C21.9379 28.1656 21.9493 28.1655 21.9608 28.1655Z" fill="#F3EBE3"/>
<path d="M25.1282 19.1967C25.1203 19.1967 25.1131 19.1967 25.1052 19.1967C24.7144 19.1912 24.3461 19.0298 24.0943 18.7543C23.8546 18.4922 23.7375 18.1487 23.7648 17.7883C23.8206 17.0553 24.0014 16.346 24.1768 15.6609C24.2144 15.5135 24.252 15.3667 24.2884 15.2192C24.3861 14.8224 24.7308 14.5815 25.1616 14.6045C25.5712 14.627 25.8843 14.8752 25.9783 15.252C26.1889 16.0942 26.3861 16.9085 26.4874 17.616C26.4898 17.6336 26.4911 17.6518 26.4911 17.67C26.4886 18.1578 26.3394 18.5607 26.0596 18.835C25.8181 19.0723 25.4959 19.1973 25.1276 19.1973L25.1282 19.1967ZM25.1009 15.3309C25.0111 15.3309 25.002 15.3667 24.9953 15.3934C24.9583 15.5426 24.9207 15.6919 24.8825 15.8406C24.7071 16.5256 24.5421 17.173 24.4911 17.8429C24.4759 18.0456 24.5591 18.1833 24.6319 18.2628C24.749 18.3908 24.925 18.4655 25.1155 18.4685C25.2999 18.4709 25.4438 18.4194 25.5505 18.315C25.684 18.1839 25.7575 17.9685 25.7635 17.6918C25.6652 17.0244 25.4753 16.2404 25.2726 15.4285C25.2641 15.3946 25.2502 15.3381 25.1228 15.3315C25.1155 15.3315 25.1082 15.3315 25.1015 15.3315L25.1009 15.3309Z" fill="#F3EBE3"/>
<path d="M29.9496 18.2399C29.7725 18.2231 29.6303 18.0774 29.6214 17.8945C29.6117 17.6937 29.7671 17.5232 29.9679 17.5134L28.3872 17.5232C28.3581 17.5223 28.3241 17.5223 28.2853 17.5232L28.1609 17.525L28.1595 17.525C28.0223 17.5271 27.8809 17.5293 27.7306 17.5505C27.735 17.576 27.7384 17.6017 27.741 17.6275C27.7634 17.681 27.8364 17.7999 27.8973 17.897C27.9076 17.9133 27.9174 17.929 27.9267 17.9437C27.9989 18.0583 28.0623 18.161 28.1149 18.2551C28.1333 18.2548 28.1519 18.2546 28.1706 18.2543L28.2974 18.2525C28.3442 18.2513 28.3448 18.2513 28.38 18.2525L29.9496 18.2399Z" fill="#F3EBE3"/>
<path d="M30.4709 12.8716C30.0893 12.7589 29.7201 12.76 29.3629 12.7671C29.3695 12.8249 29.373 12.884 29.3733 12.9444C29.3733 12.9863 29.3739 13.0281 29.3745 13.07V13.1296V13.1313C29.3757 13.1495 29.3745 13.1677 29.372 13.1853C29.357 13.293 29.3317 13.3969 29.297 13.4957L29.3126 13.4953L29.3167 13.4953C29.6526 13.4886 29.9691 13.4824 30.2646 13.5694C31.0449 13.7993 31.5249 14.3048 31.7312 15.1148C31.7373 15.1743 31.7512 15.2277 31.7719 15.2756V15.7756C31.6493 16.1973 31.5383 16.5208 31.3053 16.792C30.9679 17.184 30.545 17.4194 30.0116 17.511L29.9679 17.5134C29.7671 17.5232 29.6117 17.6937 29.6214 17.8945C29.6303 18.0774 29.7725 18.2231 29.9496 18.2399L30.0362 18.2392L30.0698 18.2373C30.0832 18.2367 30.0965 18.2355 30.1099 18.2331C30.8186 18.1166 31.4066 17.7913 31.8574 17.2665C32.2208 16.8437 32.3672 16.3375 32.4848 15.9307L32.4854 15.9285C32.4951 15.8958 32.5 15.8618 32.5 15.8278V15.1646C32.5 15.096 32.4806 15.0299 32.4454 14.9729C32.4442 14.9656 32.4424 14.9583 32.4405 14.951C32.1717 13.8776 31.5091 13.178 30.4709 12.8716Z" fill="#F3EBE3"/>
<path d="M25.5851 24.8512C25.5469 24.8555 25.5087 24.8597 25.4705 24.8652C25.2302 24.8986 24.9741 24.8949 24.7095 24.8555C24.6319 24.844 24.5955 24.8512 24.5724 24.8585C24.2933 24.9483 24.2775 24.9866 24.2617 25.1182C24.2262 25.4101 24.1063 25.6828 23.8976 25.9433C23.8999 25.945 23.9022 25.9468 23.9045 25.9485C23.988 25.9557 24.0667 25.9679 24.1401 25.9792L24.144 25.9798L24.1449 25.98C24.2926 26.003 24.4203 26.0229 24.5275 25.9962C24.6204 25.9732 24.7114 25.9598 24.7987 25.9459C24.8139 25.9435 24.8292 25.9412 24.8447 25.9388C24.8507 25.9354 24.8566 25.932 24.8625 25.9286L24.8728 25.9228L24.8873 25.9145C24.9549 25.8758 25.0245 25.836 25.1003 25.8021C25.2253 25.7456 25.3448 25.6473 25.4559 25.5102C25.6154 25.313 25.7183 25.0898 25.7688 24.8276C25.7043 24.8379 25.6427 24.8448 25.5859 24.8511L25.5851 24.8512Z" fill="#F3EBE3"/>
<path d="M16.6691 25.4828C16.6675 25.4812 16.6659 25.4796 16.6642 25.478C16.5933 25.4077 16.4986 25.353 16.2923 25.4253C15.9822 25.5339 15.6631 25.5678 15.3184 25.5278C15.2534 25.6721 15.1719 25.8091 15.0745 25.938C15.0782 25.9407 15.0819 25.9435 15.0855 25.9462C15.1839 25.9526 15.2766 25.9667 15.3621 25.9798C15.5041 26.0017 15.6273 26.0199 15.7359 25.9999C15.7401 25.9987 15.7656 25.989 15.782 25.9823C15.8915 25.9401 15.991 25.9194 16.08 25.9201C16.1246 25.8914 16.171 25.8619 16.2219 25.8379C16.4046 25.7508 16.5525 25.6333 16.6691 25.4828Z" fill="#F3EBE3"/>
<path fill-rule="evenodd" clip-rule="evenodd" d="M13.4032 26.7984L13.3731 26.7978L13.2984 26.796C13.2754 26.796 13.2523 26.796 13.2293 26.7966C13.1872 26.7973 13.1373 26.7981 13.0829 26.7958C12.9074 26.7884 12.6827 26.7483 12.5036 26.5654C11.7615 26.2735 11.2111 25.4944 11.2069 24.7074C11.2069 24.6995 11.2065 24.6917 11.2061 24.6838L11.2058 24.6783L11.205 24.6637L11.2047 24.6563C11.2023 24.6036 11.199 24.5332 11.2123 24.4556C11.2645 24.148 11.077 23.9386 10.6553 23.8337C9.65654 23.5849 8.93933 23.0018 8.52429 22.1007C8.20513 21.4072 8.16933 20.6541 8.42114 19.9236L8.4237 19.9156L8.42539 19.9102L8.42267 19.9066C8.41942 19.9022 8.41534 19.8967 8.41022 19.8902C7.92843 19.2931 7.70757 18.6032 7.75247 17.8405C7.79798 17.0693 8.06193 16.4576 8.53582 16.0238C8.63169 15.9358 8.68691 15.8406 8.72999 15.7168C8.33437 15.684 7.98972 15.4771 7.73912 15.1154C7.43512 14.6774 7.42056 14.181 7.69786 13.718C7.91448 13.3558 8.24517 13.1246 8.62866 13.067C8.7488 13.0488 8.83982 13.016 8.94358 12.9523C9.4199 12.6616 9.85921 12.6968 10.2846 13.0597C10.5091 13.0263 10.7172 13.0597 10.9071 13.1125C11.2894 12.5658 11.898 12.1592 12.5982 11.9875C12.8095 11.7217 14.3112 11.425 15.1566 11.258C15.3843 11.213 15.5643 11.1774 15.6588 11.1544C16.2486 11.01 16.8141 11.135 17.3014 11.516C18.4215 10.8892 19.6363 10.9693 20.672 11.7345C20.9894 11.4572 21.4196 11.2921 21.8826 11.2763C22.3971 11.2581 22.8795 11.4317 23.2084 11.7521C23.2175 11.7612 23.2326 11.7757 23.2921 11.7709C23.6811 11.7369 24.0154 11.783 24.3091 11.911C24.5409 11.6077 24.8461 11.3977 25.2174 11.2855C25.9462 11.0658 26.6076 11.2145 27.1348 11.7157C27.5687 11.4183 28.0972 11.4001 28.5978 11.6689C29.0413 11.9074 29.3083 12.293 29.3629 12.7671L29.298 12.7684C29.2028 12.7702 29.1069 12.7721 29.0122 12.7721C28.94 12.7708 28.8648 12.7945 28.8035 12.837C28.7252 12.8915 28.6765 12.9569 28.6444 13.0149C28.6447 13.0361 28.6452 13.0573 28.6457 13.0785V13.1088C28.6033 13.3588 28.457 13.5645 28.241 13.6756C28.0244 13.7866 27.7708 13.7824 27.5456 13.664C27.1731 13.468 26.9522 13.6822 26.846 13.7848C26.3878 14.2272 26.5986 14.6739 26.7 14.889L26.7004 14.8897C26.9716 15.4643 26.9747 16.0723 26.7083 16.6973C26.593 16.9673 26.6409 17.2016 26.8503 17.3933C26.9486 17.4831 27.008 17.596 27.0165 17.71C27.0269 17.8465 27.0956 17.9837 27.2164 18.182C27.3072 18.2522 27.4275 18.298 27.5893 18.298L27.5887 18.2998C27.6482 18.2998 27.7125 18.2938 27.7835 18.2804C27.8868 18.261 27.9978 18.257 28.1149 18.2551C28.2184 18.4403 28.2801 18.5921 28.2841 18.7361C28.9922 19.5286 28.96 20.6833 28.2089 21.4235C28.1366 21.4945 28.1318 21.5267 28.1379 21.5886C28.2076 22.341 28.0068 23.0291 27.5402 23.6346C27.2289 24.0394 26.8357 24.3531 26.3703 24.5679C26.1804 24.7355 25.9619 24.7967 25.7688 24.8276C25.7043 24.8379 25.6427 24.8448 25.5859 24.8511L25.5851 24.8512C25.5469 24.8555 25.5087 24.8597 25.4705 24.8652C25.2302 24.8986 24.9741 24.8949 24.7095 24.8555C24.6319 24.844 24.5955 24.8512 24.5724 24.8585C24.2933 24.9483 24.2775 24.9866 24.2617 25.1182C24.2262 25.4101 24.1063 25.6828 23.8976 25.9433C23.8031 26.0613 23.6904 26.1768 23.5591 26.2905C23.4899 26.35 23.4013 26.3803 23.3158 26.3791C23.2915 26.3979 23.2618 26.4186 23.2272 26.4361C23.2066 26.4471 23.1859 26.4586 23.1653 26.4707C23.1064 26.5047 23.033 26.5466 22.9444 26.5781C22.7686 26.7489 22.5516 26.7881 22.3809 26.7957C22.3254 26.7982 22.2748 26.7973 22.2321 26.7966C22.2225 26.7966 22.2129 26.7964 22.2034 26.7962C22.1896 26.7959 22.1758 26.7956 22.1629 26.796L22.1534 26.796C22.1492 26.7961 22.145 26.7962 22.1408 26.7962C22.1359 26.7964 22.1311 26.7965 22.1262 26.7966L22.1138 26.797L22.0877 26.7978L22.0856 26.7978C22.03 26.7993 21.9651 26.8011 21.8951 26.7975C21.7106 26.7881 21.4904 26.7417 21.3098 26.5563C21.0727 26.4335 20.9109 26.1968 20.7777 26.0018L20.7764 25.9999L20.7649 25.983C20.7523 25.9645 20.7385 25.9443 20.7242 25.924C20.1854 26.4119 19.6272 26.6425 19.0659 26.6103C18.4045 26.5721 17.9433 26.1728 17.7601 25.9835C17.5386 25.9186 17.322 25.8288 17.1139 25.7159C17.1121 25.7159 17.1096 25.7153 17.1078 25.7147C16.9066 25.6908 16.7683 25.58 16.6691 25.4828L16.6642 25.478C16.5933 25.4077 16.4986 25.353 16.2923 25.4253C15.9822 25.5339 15.6631 25.5678 15.3184 25.5278C15.2534 25.6721 15.1719 25.8091 15.0745 25.938C14.9802 26.0629 14.871 26.18 14.7474 26.2887C14.6837 26.3445 14.6048 26.3755 14.5235 26.3791C14.4823 26.4125 14.4283 26.4477 14.3585 26.4695C14.3484 26.4726 14.3251 26.4849 14.3043 26.4959L14.2923 26.5023C14.2468 26.5272 14.191 26.5569 14.1237 26.5812C13.9496 26.7444 13.7434 26.7878 13.5687 26.7973C13.5373 26.799 13.507 26.7996 13.4781 26.7996C13.4518 26.7996 13.4269 26.799 13.4032 26.7984ZM27.8973 17.897C27.9871 17.8902 28.0766 17.889 28.1664 17.8878L28.2095 17.8872L28.2885 17.8862C28.3041 17.886 28.3154 17.8858 28.3243 17.8857C28.3338 17.8856 28.3406 17.8856 28.3475 17.8856L28.3823 17.8858C28.4022 17.886 28.4324 17.8863 28.4855 17.8866L29.9855 17.8763C30.0073 17.8757 30.0292 17.8745 30.051 17.8733C30.6608 17.7731 31.173 17.5037 31.5813 17.0286C31.8835 16.6773 32.0121 16.255 32.1359 15.8266V15.1634C32.1004 15.1421 32.0967 15.1087 32.093 15.075C32.0917 15.0626 32.0903 15.0502 32.0874 15.0384C31.855 14.11 31.2955 13.4935 30.3678 13.2199C30.0395 13.1229 29.7073 13.1231 29.3745 13.1296V13.1313C29.3757 13.1495 29.3745 13.1677 29.372 13.1853C29.357 13.293 29.3317 13.3969 29.297 13.4957L29.2264 13.4972C28.8484 14.3181 28.153 14.6015 27.3005 14.2799C27.2683 14.3351 27.2392 14.4073 27.2344 14.4522L27.2544 14.4956L27.2744 14.539L27.2773 14.5452C27.3316 14.6616 27.388 14.7824 27.4291 14.9219C27.6269 15.5833 27.6009 16.2398 27.3521 16.8739C27.3357 16.9164 27.3339 16.9358 27.3339 16.9406C27.3339 16.9406 27.3399 16.9504 27.3557 16.9667C27.522 17.1445 27.6027 17.3617 27.6591 17.5511C27.6603 17.5547 27.6609 17.5577 27.6621 17.5614C27.6852 17.5573 27.708 17.5536 27.7306 17.5505C27.735 17.576 27.7384 17.6017 27.741 17.6275C27.7634 17.681 27.8364 17.7999 27.8973 17.897ZM24.9953 15.3934C25.002 15.3667 25.0111 15.3309 25.1009 15.3309L25.1015 15.3315H25.1228C25.2502 15.3381 25.2641 15.3946 25.2726 15.4285C25.4753 16.2404 25.6652 17.0244 25.7635 17.6918C25.7575 17.9685 25.684 18.1839 25.5505 18.315C25.4438 18.4194 25.2999 18.4709 25.1155 18.4685C24.925 18.4655 24.749 18.3908 24.6319 18.2628C24.5591 18.1833 24.4759 18.0456 24.4911 17.8429C24.5421 17.173 24.7071 16.5256 24.8825 15.8406C24.9207 15.6919 24.9583 15.5426 24.9953 15.3934Z" fill="#F3EBE3"/>
<path fill-rule="evenodd" clip-rule="evenodd" d="M13.9301 26.2559L13.9356 28.0556C13.953 28.3736 13.8085 28.5326 13.5023 28.5326C13.443 28.5326 13.3835 28.5312 13.324 28.5299C13.1878 28.5268 13.0515 28.5237 12.9168 28.5368C12.7299 28.555 12.6844 28.4804 12.7068 28.3141C12.7147 28.2565 12.7147 28.1975 12.7146 28.1386C12.7146 28.1113 12.7146 28.084 12.7153 28.0569L12.719 26.2559C13.1225 26.4137 13.5266 26.4137 13.9301 26.2559ZM13.2984 26.796L13.3731 26.7978L13.4032 26.7984C13.4269 26.799 13.4518 26.7996 13.4781 26.7996C13.507 26.7996 13.5373 26.799 13.5687 26.7973L13.5721 28.0569V28.0757C13.5739 28.106 13.5757 28.1382 13.577 28.1685C13.495 28.1691 13.4131 28.1679 13.3318 28.1661C13.2699 28.1643 13.208 28.163 13.1443 28.163L13.1455 28.1637H13.08V28.1363V28.066V28.0575L13.0829 26.7958C13.1373 26.7981 13.1872 26.7973 13.2293 26.7966C13.2523 26.796 13.2754 26.796 13.2984 26.796Z" fill="#F3EBE3"/>
<path fill-rule="evenodd" clip-rule="evenodd" d="M16.177 26.5944C16.1739 26.6337 16.1709 26.6728 16.1709 26.7092C16.1705 27.008 16.169 27.3072 16.1676 27.6064C16.1668 27.7556 16.1661 27.9048 16.1655 28.0538C16.1673 28.2106 16.1685 28.3679 16.1697 28.5247L16.1697 28.5277C15.7741 28.5259 15.3791 28.5247 14.9835 28.5235C14.9123 28.4847 14.9221 28.4251 14.9313 28.3685C14.9344 28.3497 14.9374 28.3313 14.9374 28.3141C14.9359 27.7667 14.938 27.2196 14.9402 26.6722C14.9407 26.5505 14.9412 26.4287 14.9416 26.3069C15.065 26.3017 15.1865 26.3202 15.3084 26.3387C15.4705 26.3634 15.6333 26.3881 15.802 26.3573C15.836 26.3509 15.8741 26.3363 15.9126 26.3214C16.0031 26.2866 16.0962 26.2507 16.1461 26.3196C16.1932 26.3844 16.185 26.4904 16.177 26.5944ZM15.3037 26.7865C15.3806 26.7954 15.456 26.799 15.529 26.799C15.6264 26.799 15.7199 26.7923 15.8068 26.7831C15.8061 27.0818 15.8049 27.3809 15.8032 27.6794L15.802 28.0569V28.1624L15.3008 28.1606C15.3002 27.7016 15.3019 27.238 15.3037 26.7865Z" fill="#F3EBE3"/>
<path fill-rule="evenodd" clip-rule="evenodd" d="M22.746 27.1561C22.7468 27.4561 22.7475 27.7562 22.7484 28.0563C22.7646 28.3738 22.62 28.5326 22.3146 28.5326C22.2553 28.5326 22.1959 28.5316 22.1365 28.5307C22.0004 28.5285 21.8643 28.5263 21.729 28.5356C21.5731 28.5459 21.4942 28.5107 21.5197 28.3366C21.5288 28.2743 21.5283 28.2103 21.5279 28.1463C21.5276 28.1162 21.5274 28.0862 21.5282 28.0563C21.53 27.4561 21.5312 26.856 21.5324 26.2559C21.936 26.4131 22.3401 26.4137 22.7436 26.2559C22.7445 26.556 22.7452 26.856 22.746 27.1561ZM22.2321 26.7966C22.2748 26.7973 22.3254 26.7982 22.3809 26.7957L22.3844 28.0581V28.0757C22.3862 28.1066 22.388 28.1382 22.3892 28.1691C22.3073 28.1691 22.2254 28.1685 22.1435 28.1673C22.1238 28.1671 22.104 28.1668 22.0842 28.1666C22.0435 28.166 22.0024 28.1655 21.9608 28.1655C21.9493 28.1655 21.9379 28.1656 21.9266 28.1658C21.9152 28.1659 21.9038 28.1661 21.8923 28.1661V28.1418V28.066V28.0581L21.8951 26.7975C21.9651 26.8011 22.03 26.7993 22.0856 26.7978L22.0877 26.7978L22.1138 26.797L22.1262 26.7966L22.1408 26.7962L22.1534 26.796L22.1629 26.796C22.1758 26.7956 22.1896 26.7959 22.2034 26.7962C22.2129 26.7964 22.2225 26.7966 22.2321 26.7966Z" fill="#F3EBE3"/>
<path fill-rule="evenodd" clip-rule="evenodd" d="M24.9783 26.2869V28.0544L24.982 28.5265C24.7845 28.5259 24.587 28.5254 24.3895 28.525C24.192 28.5245 23.9945 28.5241 23.7969 28.5235C23.7249 28.4852 23.7348 28.4256 23.7441 28.3691C23.7472 28.3503 23.7502 28.3319 23.7502 28.3147C23.7487 27.7669 23.7509 27.2187 23.7531 26.6708C23.7536 26.5493 23.754 26.4278 23.7545 26.3063C23.866 26.3054 23.9765 26.3226 24.087 26.3398C24.2613 26.367 24.4356 26.3942 24.6143 26.35C24.6896 26.3319 24.7662 26.3202 24.8483 26.3076C24.8901 26.3012 24.9332 26.2946 24.9783 26.2869ZM24.1172 26.7953C24.1845 26.803 24.2503 26.8063 24.3139 26.8063L24.3145 26.8057C24.4221 26.8057 24.523 26.7963 24.6143 26.7835V28.0538L24.6149 28.0569V28.1618L24.1137 28.1606L24.1143 28.16C24.1137 27.7043 24.1154 27.2433 24.1172 26.7953Z" fill="#F3EBE3"/>
</svg>
