<svg width="40" height="40" viewBox="0 0 40 40" fill="none" xmlns="http://www.w3.org/2000/svg">
<g clip-path="url(#clip0_468_1912)">
<rect y="-1" width="40" height="40" rx="8" fill="#B11F42"/>
<path d="M21.2696 13.2515L21.2091 13.6899C20.9656 15.4284 20.7141 17.2263 21.4771 18.1958C21.7581 18.5528 22.1456 18.7633 22.6285 18.8208C22.822 18.8443 23.006 18.8558 23.1795 18.8558C23.831 18.8558 24.345 18.6938 24.7125 18.3723C25.102 18.0303 25.1685 17.6388 25.1775 17.5638C25.1855 17.4954 25.1798 17.4261 25.1608 17.3598C25.1419 17.2936 25.11 17.2317 25.067 17.1779C25.024 17.1241 24.9707 17.0793 24.9103 17.0462C24.8499 17.013 24.7835 16.9922 24.715 16.9849C24.426 16.9504 24.1585 17.1529 24.1235 17.4373C24.1235 17.4373 24.0895 17.5223 24.003 17.5983C23.783 17.7918 23.3395 17.8603 22.757 17.7898C22.558 17.7658 22.4221 17.6958 22.3171 17.5613C21.8251 16.9364 22.0666 15.2144 22.2591 13.8309C22.2816 13.6744 22.3026 13.5214 22.3236 13.3695C22.3956 13.374 22.4646 13.381 22.54 13.381C23.504 13.381 25.0235 12.992 26.1365 11.897C27.0054 11.041 27.4614 9.90155 27.4539 8.60108C27.4518 8.47189 27.402 8.34804 27.3141 8.25329C27.2263 8.15853 27.1066 8.09953 26.9779 8.0876C26.9564 8.0856 26.7579 8.0661 26.4429 8.0661C25.4645 8.0661 23.6485 8.25009 22.472 9.48256C22.3601 9.60113 22.2567 9.72744 22.1626 9.86055C22.0811 9.65087 21.9798 9.44946 21.8601 9.25906C20.6681 7.39911 18.0402 7.02063 17.9282 7.00513C17.7999 6.98713 17.6695 7.01643 17.5613 7.08755C17.4531 7.15868 17.3745 7.26676 17.3402 7.39162C16.8587 9.24506 17.5072 10.578 18.1362 11.37C19.0101 12.468 20.3206 13.1175 21.2696 13.2515ZM31.5493 19.7803C31.3393 19.6393 31.1083 19.5653 30.8828 19.5653C30.3468 19.5653 29.9558 19.9768 29.8879 20.0538C27.2689 22.8082 25.1845 24.6736 24.5775 24.8061C24.1695 24.8946 23.352 24.9541 22.5415 24.9541C21.2431 24.9541 19.6566 24.8176 19.4701 24.1662C19.4657 24.1502 19.4635 24.1337 19.4636 24.1172C19.4636 24.1067 19.4676 24.0987 19.4686 24.0882L20.2186 24.3347C20.5046 24.4277 21.1851 24.5847 22.5415 24.5847C23.445 24.5847 24.187 24.5127 24.501 24.4447C25.1555 24.2847 27.9724 21.5247 29.5934 19.8223L29.6294 19.7848L29.6309 19.7803C29.6474 19.7628 29.6714 19.7378 29.7024 19.7078L30.0608 19.3643L29.5624 19.3068C29.339 19.2835 29.1134 19.3169 28.9064 19.4038C28.6289 19.5183 28.4524 19.6813 28.4524 19.6813L24.885 23.1097L24.857 23.1342C24.2785 23.6597 23.2185 23.9642 22.1341 23.8952C21.5656 23.8582 21.1921 23.8422 20.8866 23.8422C20.6361 23.8422 20.4246 23.8552 20.2591 23.8797L19.4841 23.9962C19.5861 23.5432 20.2391 23.4732 20.8866 23.4732C21.1946 23.4732 21.5756 23.4892 22.1591 23.5272C23.644 23.6222 24.867 22.9447 24.866 22.3992C24.8775 22.1257 24.803 21.9162 24.6315 21.7382C24.017 21.1052 22.0966 20.8068 18.4042 20.7698L18.2917 20.7683C15.0537 20.7683 12.8453 22.9062 12.8168 22.9352L7.99994 28.2401L14.6993 32L14.8198 31.8005C15.0997 31.338 15.6347 30.477 16.0727 29.9045C16.4503 29.4113 16.8778 28.9582 17.3482 28.5525C17.3776 28.5286 17.4134 28.5138 17.4512 28.51C17.4947 28.505 21.8351 28.0626 23.4085 27.9766C25.355 27.8706 27.5119 25.6051 29.4189 23.6037L29.4654 23.5547C29.7214 23.2857 29.9728 23.0217 30.2173 22.7702C31.3288 21.6287 31.8723 20.7818 31.8348 20.2538C31.8183 20.0123 31.6718 19.8738 31.5493 19.7803Z" fill="#F3EBE3"/>
<path d="M25.157 21.8728L25.289 22.2047L28.1069 19.4983L28.5029 19.0953H27.9149C27.4049 19.0953 27.0239 19.4103 26.9429 19.4823L25.133 21.2858C25.1165 21.2956 25.1008 21.3066 25.086 21.3188L24.896 21.4538L25.03 21.6428C25.085 21.7208 25.127 21.7958 25.157 21.8728Z" fill="#F3EBE3"/>
</g>
<defs>
<clipPath id="clip0_468_1912">
<rect width="40" height="40" fill="white"/>
</clipPath>
</defs>
</svg>
