<svg width="44" height="44" viewBox="0 0 44 44" fill="none" xmlns="http://www.w3.org/2000/svg">
<path d="M38.0029 38.0029L38.0027 38.0031C36.5505 39.4533 34.6759 40.1504 32.1243 40.4934C29.595 40.8333 26.3274 40.8333 22.04 40.8333H22H21.96C17.6727 40.8333 14.4046 40.8333 11.8753 40.4931C9.32382 40.15 7.44942 39.4524 5.99905 38.0011C4.54765 36.5516 3.85007 34.6771 3.5069 32.1254C3.1667 29.5959 3.16671 26.3274 3.16671 22.04V22V21.9599C3.16671 17.6726 3.1667 14.4045 3.5069 11.875C3.85008 9.32327 4.54768 7.44848 5.99887 5.99722C7.44842 4.54668 9.32296 3.84955 11.8746 3.50661C14.4041 3.16665 17.6727 3.16665 21.9601 3.16666H22H22.04C26.3274 3.16665 29.5955 3.16665 32.125 3.50661C34.6767 3.84956 36.5515 4.54669 38.0028 5.99698L38.0032 5.99734C39.4533 7.44949 40.1505 9.32416 40.4934 11.8757C40.8334 14.405 40.8334 17.6727 40.8334 21.96V22V22.0399C40.8334 26.3273 40.8334 29.5959 40.4934 32.1256C40.1505 34.6775 39.4534 36.5524 38.0029 38.0029Z" fill="#DEEFFC" stroke="white"/>
<path d="M21.9449 17.4717C21.7021 17.211 21.5698 16.8663 21.5761 16.51C21.5824 16.1538 21.7267 15.814 21.9786 15.562C22.2306 15.3101 22.5704 15.1658 22.9267 15.1595C23.2829 15.1532 23.6276 15.2855 23.8883 15.5283L29.3883 21.0283C29.6458 21.2862 29.7904 21.6356 29.7904 22C29.7904 22.3644 29.6458 22.7139 29.3883 22.9717L23.8883 28.4717C23.7624 28.6068 23.6106 28.7151 23.4419 28.7903C23.2733 28.8654 23.0912 28.9058 22.9066 28.9091C22.722 28.9123 22.5386 28.8784 22.3674 28.8092C22.1961 28.7401 22.0406 28.6371 21.91 28.5066C21.7795 28.376 21.6765 28.2205 21.6074 28.0493C21.5382 27.8781 21.5043 27.6947 21.5075 27.51C21.5108 27.3254 21.5512 27.1433 21.6263 26.9747C21.7015 26.806 21.8099 26.6542 21.9449 26.5283L26.4733 22L21.9449 17.4717Z" fill="#005596"/>
<path d="M14.6117 17.4717C14.3688 17.211 14.2366 16.8663 14.2429 16.51C14.2492 16.1538 14.3935 15.814 14.6454 15.562C14.8973 15.3101 15.2372 15.1658 15.5934 15.1595C15.9496 15.1532 16.2944 15.2855 16.555 15.5283L22.055 21.0283C22.3125 21.2862 22.4572 21.6356 22.4572 22C22.4572 22.3644 22.3125 22.7139 22.055 22.9717L16.555 28.4717C16.4291 28.6068 16.2773 28.7151 16.1087 28.7903C15.94 28.8654 15.7579 28.9058 15.5733 28.9091C15.3887 28.9123 15.2053 28.8784 15.0341 28.8092C14.8629 28.7401 14.7074 28.6371 14.5768 28.5066C14.4462 28.376 14.3433 28.2205 14.2741 28.0493C14.205 27.8781 14.171 27.6947 14.1743 27.51C14.1775 27.3254 14.2179 27.1433 14.2931 26.9747C14.3682 26.806 14.4766 26.6542 14.6117 26.5283L19.14 22L14.6117 17.4717Z" fill="#005596"/>
</svg>
