<svg width="8" height="14" viewBox="0 0 8 14" fill="none" xmlns="http://www.w3.org/2000/svg">
<path d="M6.4426 0.402181C6.30929 0.401829 6.17722 0.427898 6.05404 0.478883C5.93086 0.529867 5.819 0.604756 5.72493 0.699221L0.30467 6.22639C0.103711 6.4278 0.116792 6.69642 0.116792 6.98308V7.01714C0.116792 7.30381 0.103711 7.5722 0.30467 7.77339L5.77838 13.3006C5.97009 13.4923 6.19834 13.5976 6.46922 13.5976C6.74055 13.5976 6.98188 13.492 7.17359 13.3006C7.56942 12.9047 7.56265 12.2608 7.16682 11.865L2.61739 7.31892C2.53261 7.23454 2.48482 7.11994 2.48453 7.00033C2.48423 6.88071 2.53146 6.76588 2.61581 6.68108L7.16119 2.13503C7.35118 1.94445 7.45785 1.6863 7.45781 1.41719C7.45777 1.14808 7.35102 0.88997 7.16096 0.699447C7.0668 0.604889 6.95484 0.529932 6.83154 0.478909C6.70824 0.427885 6.57605 0.401807 6.4426 0.402181Z" fill="#B11F42"/>
</svg>
