<svg width="40" height="40" viewBox="0 0 40 40" fill="none" xmlns="http://www.w3.org/2000/svg">
<rect width="40" height="40" rx="8" fill="#B11F42"/>
<path d="M32.3587 15.672L29.6651 12.8621L30.8375 12.1144L30.9059 11.5316L30.3621 11.4992L28.9519 12.5136L27.1921 12.5151L26.1148 11.8573L25.729 11.9361L25.7346 12.3637L26.429 13.1328L26.3375 13.5368L18.1653 14.4157L9.70041 14.1793L8.78822 14.5617L8.11631 15.4155L7.7706 17.4126L7.70954 18.8481L7.5 20.1887L7.5576 21.5238L7.79326 21.572L8.13581 21.1949L8.41429 19.9421L8.18857 18.2042L8.26709 18.1924L8.79768 20.8381L8.43626 23.1342L8.76625 27.7168L8.79768 28.2243L9.11926 28.4986L10.5411 28.5008L10.9993 28.3622L9.72722 26.2907L10.3583 23.66L10.6888 23.6606L11.842 27.1582L12.4365 28.0562L12.7297 28.2367L14.2993 28.2379L14.5007 27.9859L13.142 27.1513L12.2207 24.3141L12.4516 23.8536L12.9928 23.9038L13.3326 24.7357L13.8247 23.9248L14.3016 24.7392L14.7056 23.8549L15.8945 22.941L20.1135 22.537L20.8217 23.4027L21.4185 27.6349L21.7324 28.243L23.17 28.2424L23.325 28.0146L22.4512 26.7984L22.3462 24.4826L22.8181 24.7445L23.3151 26.2828L23.9471 28.2803L24.2306 28.5L25.5168 28.5008L25.6236 28.2103L25.2476 27.8623L24.0347 25.492L24.3143 23.008L25.6734 22.0027L27.6531 18.3255L29.9317 17.2735L32.0271 17.035L32.2067 16.8402L32.5 16.0138L32.3587 15.672Z" fill="#F3EBE3"/>
</svg>
