<svg width="40" height="40" viewBox="0 0 40 40" fill="none" xmlns="http://www.w3.org/2000/svg">
<rect width="40" height="40" rx="8" fill="#B11F42"/>
<path d="M19.9636 16.7006C21.5953 16.7006 22.918 15.3779 22.918 13.7462C22.918 12.1145 21.5953 10.7918 19.9636 10.7918C18.3319 10.7918 17.0092 12.1145 17.0092 13.7462C17.0092 15.3779 18.3319 16.7006 19.9636 16.7006Z" fill="#F3EBE3"/>
<path d="M19.9636 17.0647C18.1335 17.0647 16.6451 15.5756 16.6451 13.7462C16.6451 11.9167 18.1342 10.4277 19.9636 10.4277C21.793 10.4277 23.2821 11.9167 23.2821 13.7462C23.2821 15.5756 21.793 17.0647 19.9636 17.0647ZM19.9636 11.1558C18.5352 11.1558 17.3733 12.3178 17.3733 13.7462C17.3733 15.1746 18.5352 16.3365 19.9636 16.3365C21.392 16.3365 22.554 15.1746 22.554 13.7462C22.554 12.3178 21.392 11.1558 19.9636 11.1558Z" fill="#F3EBE3"/>
<path d="M19.9636 9.57943C19.7628 9.57943 19.5995 9.4162 19.5995 9.21536V7.36407C19.5995 7.16322 19.7628 7 19.9636 7C20.1644 7 20.3277 7.16322 20.3277 7.36407V9.21536C20.3277 9.4162 20.1644 9.57943 19.9636 9.57943Z" fill="#F3EBE3"/>
<path d="M19.9636 20.6295C19.7628 20.6295 19.5995 20.4663 19.5995 20.2655V18.4142C19.5995 18.2133 19.7628 18.0501 19.9636 18.0501C20.1644 18.0501 20.3277 18.2133 20.3277 18.4142V20.2655C20.3277 20.4663 20.1644 20.6295 19.9636 20.6295Z" fill="#F3EBE3"/>
<path d="M24.5248 18.74C24.4313 18.74 24.3385 18.7042 24.2675 18.6332L22.9587 17.3244C22.8167 17.1824 22.8167 16.9518 22.9587 16.8092C23.1007 16.6672 23.3312 16.6672 23.4738 16.8092L24.7827 18.1181C24.9246 18.26 24.9246 18.4906 24.7827 18.6332C24.7117 18.7042 24.6176 18.74 24.5248 18.74Z" fill="#F3EBE3"/>
<path d="M16.7113 10.9265C16.6178 10.9265 16.525 10.8907 16.454 10.8197L15.1452 9.51086C15.0032 9.36887 15.0032 9.1383 15.1452 8.9957C15.2871 8.85372 15.5177 8.85372 15.6603 8.9957L16.9691 10.3045C17.1111 10.4465 17.1111 10.6771 16.9691 10.8197C16.8981 10.8907 16.8041 10.9265 16.7113 10.9265Z" fill="#F3EBE3"/>
<path d="M15.4024 18.74C15.309 18.74 15.2161 18.7042 15.1452 18.6332C15.0032 18.4912 15.0032 18.2606 15.1452 18.1181L16.454 16.8092C16.596 16.6672 16.8265 16.6672 16.9691 16.8092C17.1117 16.9512 17.1111 17.1818 16.9691 17.3244L15.6603 18.6332C15.5893 18.7042 15.4953 18.74 15.4024 18.74Z" fill="#F3EBE3"/>
<path d="M23.2159 10.9265C23.1225 10.9265 23.0297 10.8907 22.9587 10.8197C22.8167 10.6777 22.8167 10.4471 22.9587 10.3045L24.2675 8.9957C24.4095 8.85372 24.6401 8.85372 24.7827 8.9957C24.9253 9.13769 24.9246 9.36827 24.7827 9.51086L23.4738 10.8197C23.4028 10.8907 23.3088 10.9265 23.2159 10.9265Z" fill="#F3EBE3"/>
<path d="M15.3642 14.1788H13.5129C13.3121 14.1788 13.1488 14.0156 13.1488 13.8148C13.1488 13.6139 13.3121 13.4507 13.5129 13.4507H15.3642C15.565 13.4507 15.7283 13.6139 15.7283 13.8148C15.7283 14.0156 15.565 14.1788 15.3642 14.1788Z" fill="#F3EBE3"/>
<path d="M26.4143 14.1788H24.563C24.3622 14.1788 24.1989 14.0156 24.1989 13.8148C24.1989 13.6139 24.3622 13.4507 24.563 13.4507H26.4143C26.6151 13.4507 26.7784 13.6139 26.7784 13.8148C26.7784 14.0156 26.6151 14.1788 26.4143 14.1788Z" fill="#F3EBE3"/>
<path d="M27.6734 25.8133C29.7443 23.0573 31.2188 19.0519 31.1982 18.0155C31.1915 17.6757 31.1181 17.5119 31.0513 17.4718C30.9912 17.4354 30.8311 17.4488 30.6096 17.5604C30.5428 17.5938 30.4828 17.6454 30.4348 17.7097L28.4039 20.4341C28.3246 20.5405 28.2292 20.6319 28.1222 20.7063C28.1989 20.8233 28.2674 20.964 28.3111 21.1295C28.4264 21.5676 28.3348 22.0433 28.038 22.5433C27.3287 23.7393 26.8117 24.9122 26.8069 24.9237C26.7468 25.0602 26.6127 25.1416 26.4725 25.1416C26.4234 25.1416 26.3742 25.1318 26.3263 25.1106C26.1425 25.0299 26.0581 24.8151 26.1394 24.6312L26.1412 24.6273C26.1807 24.5382 26.6919 23.3843 27.4112 22.172C27.6048 21.8455 27.6703 21.5573 27.6066 21.3152C27.5569 21.1265 27.4366 20.9984 27.3599 20.9327C27.3451 20.9324 27.3302 20.9319 27.3154 20.9311C27.0344 20.9165 26.8979 21.1277 26.5423 21.7854L26.5417 21.7866C26.0557 22.6852 25.3212 24.0432 23.2718 25.2963C20.6711 26.8867 20.9223 29.4837 21.3034 30.8902C21.3659 31.1202 21.5776 31.2785 21.8143 31.2713L25.1206 31.1893C25.2796 31.1857 25.4252 31.1105 25.5205 30.9836C25.6158 30.8568 25.6473 30.696 25.6073 30.5425L25.2396 29.1421C25.1091 28.6457 25.3039 28.1105 25.7244 27.8108C25.9354 27.6601 26.6663 26.8811 27.1861 26.3272C27.403 26.096 27.5831 25.904 27.6734 25.8133Z" fill="#F3EBE3"/>
<path fill-rule="evenodd" clip-rule="evenodd" d="M18.3696 25.792C18.4054 25.8155 18.4077 25.8197 18.388 25.8134L18.3812 25.8111C18.3715 25.8077 18.3585 25.8028 18.3429 25.7969C18.25 25.7616 18.0649 25.6915 17.9465 25.7068C17.9353 25.7082 17.9246 25.7104 17.9147 25.7135C18.0063 25.6613 18.1147 25.6526 18.2114 25.6854C18.2707 25.7055 18.3256 25.7412 18.3696 25.792ZM12.5023 20.2039C12.6114 20.218 12.7124 20.2814 12.7714 20.3844C12.8709 20.5579 12.8115 20.7788 12.6391 20.8795C12.6222 20.8898 12.5957 20.9074 12.5648 20.9327C12.287 20.9383 12.022 20.8578 11.8048 20.7076C11.9957 20.4159 12.2376 20.2703 12.2745 20.2491C12.3366 20.2135 12.4048 20.1982 12.4713 20.2012M17.8563 25.755C17.7039 25.8867 17.6876 26.1166 17.8192 26.2683C17.9031 26.3235 17.885 26.2376 17.8595 26.1168C17.8339 25.9956 17.8009 25.8392 17.8563 25.755Z" fill="#F3EBE3"/>
<path fill-rule="evenodd" clip-rule="evenodd" d="M12.2745 20.2491C12.2376 20.2703 11.9957 20.4159 11.8048 20.7076C12.022 20.8578 12.287 20.9383 12.5648 20.9327C12.5957 20.9074 12.6222 20.8898 12.6391 20.8795C12.8115 20.7788 12.8709 20.5579 12.7714 20.3844C12.7124 20.2814 12.6114 20.218 12.5023 20.2039C12.492 20.2025 12.4817 20.2016 12.4713 20.2012C12.4048 20.1982 12.3366 20.2135 12.2745 20.2491Z" fill="#F3EBE3"/>
<path d="M17.8192 26.2683C15.9898 25.0675 13.84 22.6313 13.3825 21.7854C13.0269 21.1277 12.8897 20.9165 12.6094 20.9311C12.5945 20.9319 12.5796 20.9324 12.5648 20.9327C12.394 21.0727 12.0885 21.4512 12.516 22.172C13.249 23.408 13.7665 24.5821 13.7878 24.6312C13.8685 24.8157 13.7847 25.0299 13.6009 25.1106C13.5536 25.1312 13.5038 25.1416 13.4547 25.1416C13.3145 25.1416 13.181 25.0602 13.1209 24.9237C13.1161 24.9122 12.5991 23.7393 11.8898 22.5433C11.5931 22.0427 11.5008 21.567 11.6167 21.1295C11.6603 20.9645 11.7284 20.8244 11.8048 20.7076C11.6969 20.633 11.6008 20.5411 11.5208 20.4341L9.48995 17.7091C9.44262 17.6454 9.38194 17.5938 9.3152 17.5604C9.09372 17.4488 8.93414 17.4354 8.87346 17.4718C8.80671 17.5119 8.73329 17.6757 8.72662 18.0155C8.69871 19.3965 11.1889 25.664 14.2004 27.8108C14.6209 28.1105 14.8151 28.6451 14.6852 29.1421L14.3175 30.5425C14.2775 30.696 14.309 30.8568 14.4043 30.9836C14.4995 31.1105 14.6452 31.1857 14.8041 31.1893L18.1105 31.2713C18.3471 31.2767 18.5595 31.1208 18.6214 30.8902C18.9066 29.8386 19.1809 27.8405 17.8192 26.2683Z" fill="#F3EBE3"/>
<path fill-rule="evenodd" clip-rule="evenodd" d="M27.7456 26.323C27.5848 26.2022 27.5526 25.9741 27.6734 25.8133C27.7388 25.7472 27.7284 25.8212 27.7126 25.9338C27.6943 26.0643 27.6687 26.2467 27.7456 26.323ZM27.778 26.3448C27.9115 26.4244 28.0798 26.4096 28.1968 26.3122C28.2155 26.2967 28.2329 26.279 28.2487 26.2593C28.2669 26.2408 28.2745 26.2306 28.2736 26.2263C28.2717 26.2178 28.2355 26.2337 28.1822 26.257C28.0693 26.3063 27.8796 26.3893 27.778 26.3448Z" fill="#F3EBE3"/>
<path d="M29.8511 17.2746L27.8202 19.9991C27.7353 20.1129 27.6019 20.1849 27.4525 20.2014C27.5203 20.1976 27.59 20.2128 27.6533 20.2491C27.6901 20.2698 27.9315 20.4153 28.1222 20.7063C28.2292 20.6319 28.3246 20.5405 28.4039 20.4341L30.4348 17.7097C30.4828 17.6454 30.5428 17.5938 30.6096 17.5604C30.8311 17.4488 30.9912 17.4354 31.0513 17.4718C31.1181 17.5119 31.1915 17.6757 31.1982 18.0155C31.2188 19.0519 29.7443 23.0573 27.6734 25.8133C27.7388 25.7472 27.7284 25.8212 27.7126 25.9338C27.6943 26.0643 27.6687 26.2467 27.7456 26.323C27.7561 26.3309 27.767 26.3381 27.778 26.3448C27.8796 26.3893 28.0693 26.3063 28.1822 26.257C28.2355 26.2337 28.2717 26.2178 28.2736 26.2263C30.3958 23.3904 31.9511 19.2867 31.9257 18.0009C31.9142 17.4288 31.7461 17.0404 31.4263 16.8481C31.1217 16.6648 30.7261 16.6861 30.2813 16.9106C30.1144 16.9949 29.9658 17.1205 29.8511 17.2746Z" fill="#F3EBE3"/>
<path d="M20.6013 31.0807C20.7494 31.6256 21.2403 31.9994 21.8022 31.9994H21.8331L25.1394 31.9175C25.5223 31.9078 25.8737 31.7269 26.1036 31.4211C26.3336 31.1153 26.4094 30.7276 26.3124 30.3574L25.9446 28.957C25.89 28.7477 25.9695 28.5304 26.1479 28.4036C26.3854 28.2342 27.1844 27.385 27.7437 26.7906C27.9322 26.5903 28.0934 26.4189 28.1968 26.3122C28.0798 26.4096 27.9115 26.4244 27.778 26.3448C27.7659 26.3394 27.7549 26.3322 27.7456 26.323C27.5848 26.2022 27.5526 25.9741 27.6734 25.8133C27.5831 25.904 27.403 26.096 27.1861 26.3272C26.6663 26.8811 25.9354 27.6601 25.7244 27.8108C25.3039 28.1105 25.1091 28.6457 25.2396 29.1421L25.6073 30.5425C25.6473 30.696 25.6158 30.8568 25.5205 30.9836C25.4252 31.1105 25.2796 31.1857 25.1206 31.1893L21.8143 31.2713C21.5776 31.2785 21.3659 31.1202 21.3034 30.8902C20.9223 29.4837 20.6711 26.8867 23.2718 25.2963C25.3212 24.0432 26.0557 22.6852 26.5417 21.7866L26.5423 21.7854C26.8979 21.1277 27.0344 20.9165 27.3154 20.9311C27.3302 20.9319 27.3451 20.9324 27.3599 20.9327C27.3205 20.899 27.2917 20.8813 27.2917 20.8813C27.1169 20.7818 27.0563 20.5591 27.1564 20.3844C27.2154 20.2807 27.3178 20.2172 27.4278 20.2036C27.4036 20.2052 27.379 20.2055 27.3542 20.2042C26.5928 20.1625 26.2749 20.7503 25.9067 21.4312L25.9022 21.4396C25.4271 22.3194 24.7754 23.5239 22.8925 24.6755C19.7743 26.582 20.2518 29.7901 20.6013 31.0807Z" fill="#F3EBE3"/>
<path d="M18.0935 31.9994H18.1251L18.1232 32C18.6857 32 19.1766 31.6262 19.3241 31.0813C19.6456 29.8949 19.9497 27.6367 18.388 25.8134L18.3812 25.8111C18.3715 25.8077 18.3585 25.8028 18.3429 25.7969C18.25 25.7616 18.0649 25.6915 17.9465 25.7068C17.9353 25.7082 17.9246 25.7104 17.9147 25.7135C17.8943 25.7252 17.8747 25.739 17.8563 25.755C17.8009 25.8392 17.8339 25.9956 17.8595 26.1168C17.885 26.2376 17.9031 26.3235 17.8192 26.2683C19.1809 27.8405 18.9066 29.8386 18.6214 30.8902C18.5595 31.1208 18.3471 31.2767 18.1105 31.2713L14.8041 31.1893C14.6452 31.1857 14.4995 31.1105 14.4043 30.9836C14.309 30.8568 14.2775 30.696 14.3175 30.5425L14.6852 29.1421C14.8151 28.6451 14.6209 28.1105 14.2004 27.8108C11.1889 25.664 8.69871 19.3965 8.72662 18.0155C8.73329 17.6757 8.80671 17.5119 8.87346 17.4718C8.93414 17.4354 9.09372 17.4488 9.3152 17.5604C9.38194 17.5938 9.44262 17.6454 9.48995 17.7091L11.5208 20.4341C11.6008 20.5411 11.6969 20.633 11.8048 20.7076C11.9957 20.4159 12.2376 20.2703 12.2745 20.2491C12.3366 20.2135 12.4048 20.1982 12.4713 20.2012C12.3222 20.1843 12.1904 20.1125 12.1058 19.9991L10.0755 17.2746C9.96081 17.1205 9.81154 16.9949 9.64468 16.9106C9.20052 16.6861 8.80429 16.6648 8.49968 16.8481C8.17991 17.0404 8.01183 17.4281 8.0003 18.0009C7.98331 18.8741 8.68536 20.9517 9.67016 22.9414C10.3934 24.4031 11.8892 27.0559 13.7793 28.4036C13.9577 28.531 14.0372 28.7483 13.9826 28.957L13.6148 30.3574C13.5178 30.7276 13.5936 31.1153 13.8236 31.4211C14.0536 31.7269 14.4049 31.9078 14.7872 31.9175L18.0935 31.9994Z" fill="#F3EBE3"/>
</svg>
