<svg width="40" height="40" viewBox="0 0 40 40" fill="none" xmlns="http://www.w3.org/2000/svg">
<rect width="40" height="40" rx="8" fill="#B11F42"/>
<path d="M31.7419 16.8742C31.5595 16.5575 31.2964 16.2945 30.9792 16.1117C30.662 15.9289 30.302 15.8329 29.9356 15.8333C29.5692 15.8338 29.2094 15.9307 28.8926 16.1143C28.5759 16.2979 28.3134 16.5616 28.1319 16.8787C27.0542 18.5489 25.9455 20.2072 24.8837 21.8829C24.4867 22.571 23.8385 23.0797 23.0742 23.3031C21.5596 23.7662 19.7769 24.3182 18.0612 24.9371C17.9137 24.9996 17.7518 25.0203 17.5933 24.9967C17.4347 24.9731 17.2859 24.9062 17.1632 24.8035C17.0566 24.702 16.9811 24.5725 16.9452 24.4301C16.9093 24.2877 16.9146 24.138 16.9603 23.9984C17.0061 23.8588 17.0905 23.7349 17.2039 23.641C17.3172 23.5472 17.4549 23.4872 17.601 23.4679C19.106 22.9459 20.6698 22.4217 22.1538 21.8963C23.6772 21.5242 24.0069 19.4005 22.6184 18.664C22.4152 18.5356 22.1858 18.4542 21.9469 18.4257C21.708 18.3972 21.4657 18.4223 21.2379 18.4993C19.4988 19.0163 17.787 19.5413 16.0372 20.0575C13.3374 20.824 10.9383 21.2534 9.90737 24.2248C9.31246 25.9856 8.70113 27.8487 8.07994 29.6118C8.04133 29.724 8.04878 29.8469 8.10066 29.9536C8.15255 30.0603 8.24466 30.1423 8.35693 30.1817L14.956 32.4746C15.0591 32.5109 15.1719 32.5083 15.2732 32.4672C15.3745 32.4262 15.4572 32.3496 15.5056 32.2519C15.627 32.0543 15.7874 31.8834 15.9771 31.7495C16.1668 31.6155 16.3818 31.5214 16.6091 31.4728C19.2332 30.5519 21.9726 29.584 24.6201 28.6813C25.7947 28.3034 26.7765 27.4863 27.3589 26.4018C28.2793 24.759 29.2354 23.1072 30.1603 21.5045C30.8026 20.12 32.5313 18.4093 31.7419 16.8742Z" fill="#F3EBE3"/>
<mask id="mask0_468_2096" style="mask-type:alpha" maskUnits="userSpaceOnUse" x="9" y="7" width="19" height="13">
<path d="M13.8568 19.7222C15.4355 19.2673 17.0235 18.7752 18.5924 18.3078C19.6769 18.0289 20.564 17.5732 21.7168 17.4779C22.1475 17.4935 22.5683 17.6122 22.9442 17.824C23.3201 18.0359 23.6403 18.3348 23.8783 18.696C24.2898 18.3581 24.6824 17.9977 25.0544 17.6163C26.0752 16.5767 27.2779 14.8902 27.2202 12.7753C27.1814 11.3917 26.6171 10.0756 25.6431 9.09729C24.6691 8.11897 23.3595 7.55275 21.9831 7.51494C20.6329 7.45332 19.3102 7.91303 18.2861 8.79992C18.1909 8.90526 18.1935 8.88059 18.0909 8.78653C17.3104 8.11682 16.3548 7.68708 15.338 7.54863C14.3212 7.41017 13.2862 7.56886 12.3567 8.00575C11.4296 8.4048 10.6364 9.06389 10.0721 9.9042C9.50772 10.7445 9.19612 11.7304 9.17451 12.7441C9.00943 15.5149 11.4749 18.1328 13.8568 19.7222Z" fill="#BBBB4A"/>
</mask>
<g mask="url(#mask0_468_2096)">
<path d="M17.6389 24.1667C17.6389 24.1667 8.05557 17.9083 8.05557 11.1948C8.05557 7.92691 10.5909 5.27777 13.7185 5.27777C15.24 5.27777 16.6214 5.9048 17.6389 6.92505C18.6564 5.9048 20.0378 5.27777 21.5594 5.27777C24.6869 5.27777 27.2222 7.92691 27.2222 11.1948C27.2222 17.9083 17.6389 24.1667 17.6389 24.1667Z" fill="#F2F2F2"/>
<path d="M10.8438 17.9419C13.6731 21.5768 17.6389 24.1667 17.6389 24.1667C17.6389 24.1667 21.6048 21.5768 24.434 17.9419H10.8438Z" fill="#2AAF2D"/>
<path d="M27.2156 11.5025C27.22 11.4001 27.2222 11.2975 27.2222 11.1948C27.2222 7.92691 24.6869 5.27777 21.5594 5.27777C20.0378 5.27777 18.6564 5.9048 17.6389 6.92505C16.6214 5.9048 15.24 5.27777 13.7185 5.27777C10.5909 5.27777 8.05557 7.92691 8.05557 11.1948C8.05557 11.2975 8.05782 11.4001 8.06223 11.5025L27.2156 11.5025Z" fill="black"/>
<path d="M9.03991 7.86008L16.3321 14.5076L11.6313 18.8965C9.70273 16.6831 8.05557 13.9781 8.05557 11.1948C8.05557 9.95785 8.41881 8.80959 9.03991 7.86008Z" fill="#DC3E3E"/>
</g>
</svg>
