<svg width="40" height="40" viewBox="0 0 40 40" fill="none" xmlns="http://www.w3.org/2000/svg">
<rect width="40" height="40" rx="8" fill="#B11F42"/>
<path d="M25.0926 30.6528L26.9444 29.9908V25.6389L25.0926 25.9491V30.6528Z" fill="#F3EBE3"/>
<path d="M7.5 17.625V18.5787L8.38889 18.5139C8.44969 18.5091 8.51085 18.5163 8.56884 18.5353C8.62682 18.5542 8.68047 18.5844 8.7267 18.6242C8.77294 18.664 8.81083 18.7126 8.83819 18.7671C8.86555 18.8216 8.88185 18.881 8.88613 18.9418C8.89041 19.0027 8.88259 19.0638 8.86313 19.1216C8.84367 19.1794 8.81295 19.2328 8.77274 19.2786C8.73254 19.3245 8.68364 19.362 8.62889 19.3888C8.57413 19.4157 8.51459 19.4315 8.4537 19.4352L7.5 19.5046V28.0093L20 32.4722L24.1667 30.9815V25.5556C24.1663 25.4454 24.2052 25.3387 24.2765 25.2546C24.3478 25.1706 24.4468 25.1148 24.5556 25.0972L27.3333 24.6343C27.3995 24.6242 27.4671 24.6285 27.5316 24.6468C27.596 24.6652 27.6557 24.6972 27.7066 24.7407C27.7576 24.7842 27.7985 24.8381 27.8268 24.8988C27.8551 24.9595 27.8699 25.0256 27.8704 25.0926V29.662L32.5 28.0093V19.5046L31.5463 19.4352C31.4854 19.4311 31.426 19.4151 31.3713 19.3879C31.3167 19.3608 31.268 19.3231 31.228 19.2771C31.188 19.231 31.1574 19.1775 31.1382 19.1197C31.1189 19.0618 31.1113 19.0007 31.1157 18.9398C31.1196 18.8791 31.1355 18.8197 31.1626 18.7652C31.1898 18.7107 31.2275 18.6622 31.2737 18.6225C31.3198 18.5828 31.3735 18.5527 31.4314 18.5341C31.4894 18.5154 31.5505 18.5086 31.6111 18.5139L32.5 18.5787V17.625L20 15.838L7.5 17.625ZM13.6019 19.0695C13.5648 19.0695 11.0324 19.2593 10.9954 19.2546C10.8769 19.2521 10.7638 19.2043 10.6794 19.1211C10.595 19.0378 10.5457 18.9255 10.5416 18.807C10.5374 18.6885 10.5788 18.573 10.6571 18.484C10.7355 18.3951 10.8449 18.3395 10.963 18.3287L13.537 18.1482C13.6576 18.1423 13.7757 18.184 13.866 18.2641C13.9563 18.3443 14.0116 18.4567 14.0201 18.5771C14.0286 18.6975 13.9895 18.8165 13.9114 18.9086C13.8332 19.0006 13.7221 19.0583 13.6019 19.0695ZM18.7454 18.7037C18.7083 18.7037 16.1759 18.8889 16.1389 18.8889C16.0204 18.8864 15.9073 18.8386 15.8229 18.7553C15.7386 18.6721 15.6892 18.5597 15.6851 18.4412C15.6809 18.3228 15.7223 18.2072 15.8006 18.1183C15.879 18.0293 15.9884 17.9738 16.1065 17.963L18.6806 17.7778C18.8017 17.772 18.9203 17.8139 19.011 17.8945C19.1017 17.9752 19.1572 18.088 19.1656 18.2091C19.1741 18.3301 19.1349 18.4496 19.0563 18.542C18.9778 18.6345 18.8662 18.6925 18.7454 18.7037ZM26.463 18.1435L29.037 18.3287C29.1551 18.3395 29.2645 18.3951 29.3429 18.484C29.4212 18.573 29.4626 18.6885 29.4584 18.807C29.4543 18.9255 29.405 19.0378 29.3206 19.1211C29.2362 19.2043 29.1231 19.2521 29.0046 19.2546H28.9722L26.3981 19.0695C26.2774 19.0583 26.1657 19.0002 26.0872 18.9078C26.0086 18.8153 25.9694 18.6958 25.9779 18.5748C25.9863 18.4538 26.0419 18.3409 26.1325 18.2603C26.2232 18.1797 26.3418 18.1378 26.463 18.1435ZM21.3194 17.7778L23.8935 17.963C24.0146 17.9736 24.1266 18.0315 24.2052 18.1242C24.2839 18.2168 24.3229 18.3367 24.3137 18.4579C24.3046 18.5791 24.2481 18.6918 24.1564 18.7716C24.0648 18.8514 23.9454 18.8919 23.8241 18.8843L21.2546 18.7037C21.1334 18.6931 21.0212 18.6353 20.9421 18.5427C20.8631 18.4502 20.8236 18.3303 20.8321 18.2089C20.8406 18.0875 20.8964 17.9743 20.9876 17.8937C21.0787 17.813 21.1979 17.7714 21.3194 17.7778Z" fill="#F3EBE3"/>
<path d="M20 7.52779L7.5 11.9907V14.7963L19.9028 12.1389C19.9668 12.125 20.0332 12.125 20.0972 12.1389L32.5 14.7963V11.9907L20 7.52779Z" fill="#F3EBE3"/>
<path d="M7.5 15.7454V16.6898C7.56019 16.6852 19.8843 14.9074 20 14.9074C20.1019 14.9074 32.4213 16.6806 32.5 16.6898V15.7454L20 13.0648L7.5 15.7454Z" fill="#F3EBE3"/>
</svg>
