<svg width="40" height="40" viewBox="0 0 40 40" fill="none" xmlns="http://www.w3.org/2000/svg">
<mask id="path-1-inside-1_468_2113" fill="white">
<rect width="40" height="40" rx="5"/>
</mask>
<rect width="40" height="40" rx="5" stroke="#B11F42" stroke-width="12" mask="url(#path-1-inside-1_468_2113)"/>
<path d="M20.5 17.0312L33 23.2812L20.5 29.5312L8 23.2812L20.5 17.0312Z" fill="#99CC33"/>
<path d="M20.5 17.0312L33 23.2812L20.5 29.5312L8 23.2812L20.5 17.0312Z" fill="#99CC33"/>
<path d="M20.5 17.0312L33 23.2812L20.5 29.5312L8 23.2812L20.5 17.0312Z" fill="#99CC33"/>
<path d="M20.5 18.7891L17.375 20.3516L20.5 21.9141L23.625 20.3516L20.5 18.7891Z" fill="#99CC33"/>
<path d="M20.5 18.7891L17.375 20.3516L20.5 21.9141L23.625 20.3516L20.5 18.7891Z" fill="#99CC33"/>
<path opacity="0.3" d="M20.5977 20.9375C21.4067 20.9375 22.0625 20.5877 22.0625 20.1562C22.0625 19.7248 21.4067 19.375 20.5977 19.375C19.7886 19.375 19.1328 19.7248 19.1328 20.1562C19.1328 20.5877 19.7886 20.9375 20.5977 20.9375Z" fill="black"/>
<path d="M20.8906 14.8828V20.1562C20.8906 20.2734 20.7539 20.3516 20.5977 20.3516C20.4414 20.3516 20.3047 20.2734 20.3047 20.1562V14.8828H20.8906Z" fill="#825012"/>
<path d="M22.1602 15.6641C22.8613 15.6641 23.4297 15.0957 23.4297 14.3945C23.4297 13.6934 22.8613 13.125 22.1602 13.125C21.459 13.125 20.8906 13.6934 20.8906 14.3945C20.8906 15.0957 21.459 15.6641 22.1602 15.6641Z" fill="#539B00"/>
<path d="M21.0859 14.2969C22.0568 14.2969 22.8438 13.5099 22.8438 12.5391C22.8438 11.5682 22.0568 10.7812 21.0859 10.7812C20.1151 10.7812 19.3281 11.5682 19.3281 12.5391C19.3281 13.5099 20.1151 14.2969 21.0859 14.2969Z" fill="#539B00"/>
<path d="M20.5 17.8906C19.9922 17.8906 19.9141 17.7148 19.9141 17.2266V15.6641H19.7188V17.6172C19.7188 17.9492 19.9727 18.2031 20.3047 18.2031H20.5V17.8906Z" fill="#825012"/>
<path d="M20.6953 17.9687C21.0273 17.9687 21.2812 17.8906 21.2812 17.5586V15.6641H21.4766V17.6172C21.4766 17.9492 21.2227 18.2031 20.8906 18.2031H20.6953V17.9687Z" fill="#825012"/>
<path d="M19.8164 17.2266C20.6254 17.2266 21.2812 16.5707 21.2812 15.7617C21.2812 14.9527 20.6254 14.2969 19.8164 14.2969C19.0074 14.2969 18.3516 14.9527 18.3516 15.7617C18.3516 16.5707 19.0074 17.2266 19.8164 17.2266Z" fill="#539B00"/>
<path d="M18.9375 16.25C19.5847 16.25 20.1094 15.7253 20.1094 15.0781C20.1094 14.4309 19.5847 13.9062 18.9375 13.9062C18.2903 13.9062 17.7656 14.4309 17.7656 15.0781C17.7656 15.7253 18.2903 16.25 18.9375 16.25Z" fill="#539B00"/>
<path d="M19.1328 14.8828C19.9958 14.8828 20.6953 14.1833 20.6953 13.3203C20.6953 12.4574 19.9958 11.7578 19.1328 11.7578C18.2699 11.7578 17.5703 12.4574 17.5703 13.3203C17.5703 14.1833 18.2699 14.8828 19.1328 14.8828Z" fill="#539B00"/>
<path d="M20.3047 13.125C21.1676 13.125 21.8672 12.4254 21.8672 11.5625C21.8672 10.6996 21.1676 10 20.3047 10C19.4417 10 18.7422 10.6996 18.7422 11.5625C18.7422 12.4254 19.4417 13.125 20.3047 13.125Z" fill="#539B00"/>
<path opacity="0.2" d="M20.207 12.7344C19.7773 12.7344 19.4062 12.9883 19.2499 13.3398C19.1718 13.3203 19.1132 13.3203 19.0351 13.3203C18.6835 13.3203 18.371 13.4961 18.1757 13.75C18.2538 13.3984 18.5663 13.125 18.9374 13.125H18.957C19.0546 12.6758 19.4452 12.3438 19.914 12.3438C20.3046 12.3438 20.6366 12.5781 20.7929 12.9102C20.6366 12.793 20.4218 12.7344 20.207 12.7344Z" fill="white"/>
<path d="M22.4532 13.7109C22.8415 13.7109 23.1563 13.3961 23.1563 13.0078C23.1563 12.6195 22.8415 12.3047 22.4532 12.3047C22.0649 12.3047 21.7501 12.6195 21.7501 13.0078C21.7501 13.3961 22.0649 13.7109 22.4532 13.7109Z" fill="#539B00"/>
<path opacity="0.2" d="M22.2579 12.832C22.2579 12.3438 21.9258 11.9336 21.4766 11.7969C21.4375 11.2305 20.9688 10.7812 20.4024 10.7812C20.0704 10.7812 19.7579 10.9375 19.5625 11.1914C19.6797 10.7227 20.1094 10.3906 20.5977 10.3906C21.1641 10.3906 21.6329 10.8203 21.6719 11.3867C22.1211 11.4844 22.4532 11.875 22.4532 12.3438C22.4532 12.5586 22.375 12.7734 22.2579 12.9297V12.832Z" fill="white"/>
<path d="M21.2422 17.6367C22.2454 17.6367 23.0586 16.8235 23.0586 15.8203C23.0586 14.8171 22.2454 14.0039 21.2422 14.0039C20.239 14.0039 19.4258 14.8171 19.4258 15.8203C19.4258 16.8235 20.239 17.6367 21.2422 17.6367Z" fill="#539B00"/>
<path d="M18.7031 15.0977C19.0591 15.0977 19.3477 14.8091 19.3477 14.4531C19.3477 14.0972 19.0591 13.8086 18.7031 13.8086C18.3472 13.8086 18.0586 14.0972 18.0586 14.4531C18.0586 14.8091 18.3472 15.0977 18.7031 15.0977Z" fill="#539B00"/>
<path opacity="0.3" d="M17.7656 15.0781C17.7656 15 17.7656 14.9219 17.7852 14.8438C17.9023 15.5859 18.5469 16.1523 19.3281 16.1523H19.4063C19.2695 16.2109 19.1133 16.25 18.9375 16.25C18.8008 16.25 18.6836 16.2305 18.5664 16.1914C18.8398 16.4648 19.2109 16.6406 19.6211 16.6406C19.8164 16.6406 20.0117 16.6016 20.1875 16.5234C20.5 16.8359 20.9492 17.0313 21.4375 17.0313C22.1211 17.0313 22.7266 16.6406 23.0195 16.0938C22.8828 16.9531 22.1406 17.6172 21.2422 17.6172C20.8125 17.6172 20.4023 17.4609 20.0898 17.207C19.9922 17.2266 19.9141 17.2266 19.8164 17.2266C19.1328 17.2266 18.5469 16.7578 18.3906 16.1133C18.0195 15.918 17.7656 15.5273 17.7656 15.0781Z" fill="black"/>
<path opacity="0.2" d="M21.5742 14.6875C21.4179 14.6875 21.2812 14.707 21.1445 14.7656C20.9687 14.4922 20.6562 14.2969 20.3046 14.2969C20.1093 14.2969 19.9336 14.3555 19.7773 14.4531C19.914 14.1406 20.2265 13.9062 20.5976 13.9062C20.9101 13.9062 21.1836 14.0625 21.3398 14.2969H21.4765C22.0429 14.2969 22.5312 14.707 22.6289 15.2539C22.3945 14.9023 22.0039 14.6875 21.5742 14.6875Z" fill="white"/>
<path opacity="0.3" d="M22.6484 14.9805C23.0195 14.8242 23.3125 14.5117 23.4102 14.1016C23.4297 14.1992 23.4492 14.2969 23.4492 14.3945C23.4492 14.8633 23.1953 15.2539 22.8242 15.4883C22.7852 15.3125 22.7266 15.1367 22.6484 14.9805Z" fill="black"/>
<path d="M19.6406 14.1602C19.6602 14.0039 19.7383 13.9062 19.8164 13.9062C19.8945 13.9062 19.9727 14.0039 19.9922 14.1602C20.0703 14.2187 20.1094 14.2969 20.1094 14.3945C20.1094 14.5508 19.9727 14.6875 19.8164 14.6875C19.6602 14.6875 19.5234 14.5508 19.5234 14.3945C19.5234 14.2969 19.5625 14.2187 19.6406 14.1602Z" fill="#FFCC00"/>
<path d="M21.3984 12.793C21.418 12.6367 21.4961 12.5391 21.5742 12.5391C21.6523 12.5391 21.7305 12.6367 21.75 12.793C21.8281 12.8516 21.8672 12.9297 21.8672 13.0273C21.8672 13.1836 21.7305 13.3203 21.5742 13.3203C21.418 13.3203 21.2812 13.1836 21.2812 13.0273C21.2812 12.9297 21.3203 12.8516 21.3984 12.793Z" fill="#FFCC00"/>
<path d="M21.0078 11.2305C21.0273 11.0742 21.1055 10.9766 21.1836 10.9766C21.2617 10.9766 21.3398 11.0742 21.3594 11.2305C21.4375 11.2891 21.4766 11.3672 21.4766 11.4648C21.4766 11.6211 21.3398 11.7578 21.1836 11.7578C21.0273 11.7578 20.8906 11.6211 20.8906 11.4648C20.8906 11.3672 20.9297 11.2891 21.0078 11.2305Z" fill="#FFCC00"/>
<path d="M19.6406 11.6211C19.6602 11.4648 19.7383 11.3672 19.8164 11.3672C19.8945 11.3672 19.9727 11.4648 19.9922 11.6211C20.0703 11.6797 20.1094 11.7578 20.1094 11.8555C20.1094 12.0117 19.9727 12.1484 19.8164 12.1484C19.6602 12.1484 19.5234 12.0117 19.5234 11.8555C19.5234 11.7578 19.5625 11.6797 19.6406 11.6211Z" fill="#FFCC00"/>
<path d="M20.0312 12.793C20.0508 12.6367 20.1289 12.5391 20.207 12.5391C20.2852 12.5391 20.3633 12.6367 20.3828 12.793C20.4609 12.8516 20.5 12.9297 20.5 13.0273C20.5 13.1836 20.3633 13.3203 20.207 13.3203C20.0508 13.3203 19.9141 13.1836 19.9141 13.0273C19.9141 12.9297 19.9531 12.8516 20.0312 12.793Z" fill="#FFCC00"/>
<path d="M18.4687 13.3789C18.4883 13.2227 18.5664 13.125 18.6445 13.125C18.7227 13.125 18.8008 13.2227 18.8203 13.3789C18.8984 13.4375 18.9375 13.5156 18.9375 13.6133C18.9375 13.7695 18.8008 13.9062 18.6445 13.9062C18.4883 13.9062 18.3516 13.7695 18.3516 13.6133C18.3516 13.5156 18.3906 13.4375 18.4687 13.3789Z" fill="#FFCC00"/>
<path d="M19.0547 15.1367C19.0742 14.9805 19.1523 14.8828 19.2305 14.8828C19.3086 14.8828 19.3867 14.9805 19.4063 15.1367C19.4844 15.1953 19.5234 15.2734 19.5234 15.3711C19.5234 15.5273 19.3867 15.6641 19.2305 15.6641C19.0742 15.6641 18.9375 15.5273 18.9375 15.3711C18.9375 15.2734 18.9766 15.1953 19.0547 15.1367Z" fill="#FFCC00"/>
<path d="M20.2266 15.918C20.2461 15.7617 20.3242 15.6641 20.4023 15.6641C20.4805 15.6641 20.5586 15.7617 20.5781 15.918C20.6563 15.9766 20.6953 16.0547 20.6953 16.1523C20.6953 16.3086 20.5586 16.4453 20.4023 16.4453C20.2461 16.4453 20.1094 16.3086 20.1094 16.1523C20.1094 16.0547 20.1484 15.9766 20.2266 15.918Z" fill="#FFCC00"/>
<path d="M20.8125 14.7461C20.832 14.5898 20.9102 14.4922 20.9883 14.4922C21.0664 14.4922 21.1445 14.5898 21.1641 14.7461C21.2422 14.8047 21.2812 14.8828 21.2812 14.9805C21.2812 15.1367 21.1445 15.2734 20.9883 15.2734C20.832 15.2734 20.6953 15.1367 20.6953 14.9805C20.6953 14.8828 20.7344 14.8047 20.8125 14.7461Z" fill="#FFCC00"/>
<path d="M22.1797 13.9648C22.1992 13.8086 22.2773 13.7109 22.3555 13.7109C22.4336 13.7109 22.5117 13.8086 22.5313 13.9648C22.6094 14.0234 22.6484 14.1016 22.6484 14.1992C22.6484 14.3555 22.5117 14.4922 22.3555 14.4922C22.1992 14.4922 22.0625 14.3555 22.0625 14.1992C22.0625 14.1016 22.1016 14.0234 22.1797 13.9648Z" fill="#FFCC00"/>
<path d="M21.5937 15.5273C21.6133 15.3711 21.6914 15.2734 21.7695 15.2734C21.8477 15.2734 21.9258 15.3711 21.9453 15.5273C22.0234 15.5859 22.0625 15.6641 22.0625 15.7617C22.0625 15.918 21.9258 16.0547 21.7695 16.0547C21.6133 16.0547 21.4766 15.918 21.4766 15.7617C21.4766 15.6641 21.5156 15.5859 21.5937 15.5273Z" fill="#FFCC00"/>
<path opacity="0.3" d="M26.6523 24.0625C27.4614 24.0625 28.1172 23.7127 28.1172 23.2812C28.1172 22.8498 27.4614 22.5 26.6523 22.5C25.8433 22.5 25.1875 22.8498 25.1875 23.2812C25.1875 23.7127 25.8433 24.0625 26.6523 24.0625Z" fill="black"/>
<path d="M26.3594 18.0078V23.2812C26.3594 23.3984 26.4961 23.4766 26.6523 23.4766C26.8086 23.4766 26.9453 23.3984 26.9453 23.2812V18.0078H26.3594Z" fill="#825012"/>
<path d="M25.0898 18.7891C25.791 18.7891 26.3594 18.2207 26.3594 17.5195C26.3594 16.8184 25.791 16.25 25.0898 16.25C24.3887 16.25 23.8203 16.8184 23.8203 17.5195C23.8203 18.2207 24.3887 18.7891 25.0898 18.7891Z" fill="#539B00"/>
<path d="M26.1641 17.4219C27.1349 17.4219 27.9219 16.6349 27.9219 15.6641C27.9219 14.6932 27.1349 13.9062 26.1641 13.9062C25.1932 13.9062 24.4062 14.6932 24.4062 15.6641C24.4062 16.6349 25.1932 17.4219 26.1641 17.4219Z" fill="#539B00"/>
<path d="M26.75 21.0156C27.2578 21.0156 27.3359 20.8398 27.3359 20.3516V18.7891H27.5312V20.7422C27.5312 21.0742 27.2773 21.3281 26.9453 21.3281H26.75V21.0156Z" fill="#825012"/>
<path d="M26.5547 21.0937C26.2227 21.0937 25.9688 21.0156 25.9688 20.6836V18.7891H25.7734V20.7422C25.7734 21.0742 26.0273 21.3281 26.3594 21.3281H26.5547V21.0937Z" fill="#825012"/>
<path d="M27.4336 20.3516C28.2426 20.3516 28.8984 19.6957 28.8984 18.8867C28.8984 18.0777 28.2426 17.4219 27.4336 17.4219C26.6246 17.4219 25.9688 18.0777 25.9688 18.8867C25.9688 19.6957 26.6246 20.3516 27.4336 20.3516Z" fill="#539B00"/>
<path d="M28.3125 19.375C28.9597 19.375 29.4844 18.8503 29.4844 18.2031C29.4844 17.5559 28.9597 17.0312 28.3125 17.0312C27.6653 17.0312 27.1406 17.5559 27.1406 18.2031C27.1406 18.8503 27.6653 19.375 28.3125 19.375Z" fill="#539B00"/>
<path d="M27.7266 17.6172C28.5895 17.6172 29.2891 16.9176 29.2891 16.0547C29.2891 15.1917 28.5895 14.4922 27.7266 14.4922C26.8636 14.4922 26.1641 15.1917 26.1641 16.0547C26.1641 16.9176 26.8636 17.6172 27.7266 17.6172Z" fill="#539B00"/>
<path d="M26.75 15.8594C27.6129 15.8594 28.3125 15.1598 28.3125 14.2969C28.3125 13.4339 27.6129 12.7344 26.75 12.7344C25.8871 12.7344 25.1875 13.4339 25.1875 14.2969C25.1875 15.1598 25.8871 15.8594 26.75 15.8594Z" fill="#539B00"/>
<path opacity="0.2" d="M27.043 15.8594C27.4727 15.8594 27.8438 16.1133 28 16.4648C28.0586 16.4453 28.1367 16.4453 28.2148 16.4453C28.5664 16.4453 28.8789 16.6211 29.0742 16.875C28.9961 16.5234 28.6836 16.25 28.3125 16.25H28.293C28.1953 15.8008 27.8047 15.4688 27.3359 15.4688C26.9453 15.4688 26.6133 15.7031 26.457 16.0352C26.6133 15.918 26.8281 15.8594 27.043 15.8594Z" fill="white"/>
<path d="M24.7968 16.8359C25.1851 16.8359 25.4999 16.5211 25.4999 16.1328C25.4999 15.7445 25.1851 15.4297 24.7968 15.4297C24.4084 15.4297 24.0936 15.7445 24.0936 16.1328C24.0936 16.5211 24.4084 16.8359 24.7968 16.8359Z" fill="#539B00"/>
<path opacity="0.2" d="M24.9922 15.957C24.9922 15.4688 25.3242 15.0586 25.7734 14.9219C25.8125 14.3555 26.2617 13.9062 26.8477 13.9062C27.1797 13.9062 27.4922 14.0625 27.6875 14.3164C27.5703 13.8477 27.1406 13.5156 26.6523 13.5156C26.0859 13.5156 25.6172 13.9453 25.5781 14.5117C25.1289 14.6094 24.7969 15 24.7969 15.4688C24.7969 15.6836 24.875 15.8984 24.9922 16.0547V15.957Z" fill="white"/>
<path d="M26.0273 20.7617C27.0305 20.7617 27.8437 19.9485 27.8437 18.9453C27.8437 17.9421 27.0305 17.1289 26.0273 17.1289C25.0242 17.1289 24.2109 17.9421 24.2109 18.9453C24.2109 19.9485 25.0242 20.7617 26.0273 20.7617Z" fill="#539B00"/>
<path d="M28.5664 18.2227C28.9224 18.2227 29.2109 17.9341 29.2109 17.5781C29.2109 17.2222 28.9224 16.9336 28.5664 16.9336C28.2104 16.9336 27.9219 17.2222 27.9219 17.5781C27.9219 17.9341 28.2104 18.2227 28.5664 18.2227Z" fill="#539B00"/>
<path opacity="0.3" d="M29.4844 18.2031C29.4844 18.125 29.4844 18.0469 29.4649 17.9688C29.3477 18.7109 28.7032 19.2773 27.9219 19.2773H27.8438C27.9805 19.3359 28.1563 19.375 28.3125 19.375C28.4493 19.375 28.5664 19.3555 28.6836 19.3164C28.4102 19.5898 28.0391 19.7656 27.6289 19.7656C27.4336 19.7656 27.2383 19.7266 27.0625 19.6484C26.75 19.9609 26.3008 20.1563 25.8321 20.1563C25.1485 20.1563 24.543 19.7656 24.25 19.2188C24.3868 20.0781 25.1289 20.7422 26.0274 20.7422C26.4571 20.7422 26.8672 20.5859 27.1797 20.332C27.2579 20.3516 27.336 20.3516 27.4336 20.3516C28.1172 20.3516 28.7032 19.8828 28.8594 19.2383C29.2305 19.043 29.4844 18.6523 29.4844 18.2031Z" fill="black"/>
<path opacity="0.2" d="M25.6757 17.8125C25.832 17.8125 25.9687 17.832 26.1054 17.8906C26.2812 17.6172 26.5937 17.4219 26.9452 17.4219C27.1405 17.4219 27.3163 17.4805 27.4726 17.5781C27.3359 17.2461 27.0234 17.0312 26.6523 17.0312C26.3398 17.0312 26.0663 17.1875 25.9101 17.4219H25.7734C25.207 17.4219 24.7187 17.832 24.621 18.3789C24.8554 18.0273 25.246 17.8125 25.6757 17.8125Z" fill="white"/>
<path opacity="0.3" d="M24.6016 18.1055C24.2305 17.9492 23.9376 17.6367 23.8399 17.2266C23.8204 17.3242 23.8009 17.4219 23.8009 17.5195C23.8009 17.9883 24.0548 18.3789 24.4259 18.6133C24.4649 18.4375 24.5235 18.2617 24.6016 18.1055Z" fill="black"/>
<path d="M27.6094 17.2852C27.5898 17.1289 27.5117 17.0312 27.4336 17.0312C27.3555 17.0312 27.2773 17.1289 27.2578 17.2852C27.1797 17.3437 27.1406 17.4219 27.1406 17.5195C27.1406 17.6758 27.2773 17.8125 27.4336 17.8125C27.5898 17.8125 27.7266 17.6758 27.7266 17.5195C27.7266 17.4219 27.6875 17.3437 27.6094 17.2852Z" fill="#FFCC00"/>
<path d="M25.8516 15.918C25.832 15.7617 25.7539 15.6641 25.6758 15.6641C25.5977 15.6641 25.5195 15.7617 25.5 15.918C25.4219 15.9766 25.3828 16.0547 25.3828 16.1523C25.3828 16.3086 25.5195 16.4453 25.6758 16.4453C25.832 16.4453 25.9688 16.3086 25.9688 16.1523C25.9688 16.0547 25.9297 15.9766 25.8516 15.918Z" fill="#FFCC00"/>
<path d="M26.6328 13.9648C26.6133 13.8086 26.5352 13.7109 26.457 13.7109C26.3789 13.7109 26.3008 13.8086 26.2812 13.9648C26.2031 14.0234 26.1641 14.1016 26.1641 14.1992C26.1641 14.3555 26.3008 14.4922 26.457 14.4922C26.6133 14.4922 26.75 14.3555 26.75 14.1992C26.75 14.1016 26.7109 14.0234 26.6328 13.9648Z" fill="#FFCC00"/>
<path d="M27.8047 14.7461C27.7852 14.5898 27.707 14.4922 27.6289 14.4922C27.5508 14.4922 27.4727 14.5898 27.4531 14.7461C27.375 14.8047 27.3359 14.8828 27.3359 14.9805C27.3359 15.1367 27.4727 15.2734 27.6289 15.2734C27.7852 15.2734 27.9219 15.1367 27.9219 14.9805C27.9219 14.8828 27.8828 14.8047 27.8047 14.7461Z" fill="#FFCC00"/>
<path d="M26.8281 15.5273C26.8086 15.3711 26.7305 15.2734 26.6523 15.2734C26.5742 15.2734 26.4961 15.3711 26.4766 15.5273C26.3984 15.5859 26.3594 15.6641 26.3594 15.7617C26.3594 15.918 26.4961 16.0547 26.6523 16.0547C26.8086 16.0547 26.9453 15.918 26.9453 15.7617C26.9453 15.6641 26.9063 15.5859 26.8281 15.5273Z" fill="#FFCC00"/>
<path d="M28.7813 16.5039C28.7617 16.3477 28.6836 16.25 28.6055 16.25C28.5273 16.25 28.4492 16.3477 28.4297 16.5039C28.3516 16.5625 28.3125 16.6406 28.3125 16.7383C28.3125 16.8945 28.4492 17.0312 28.6055 17.0312C28.7617 17.0312 28.8984 16.8945 28.8984 16.7383C28.8984 16.6406 28.8594 16.5625 28.7813 16.5039Z" fill="#FFCC00"/>
<path d="M28.3906 18.0664C28.3711 17.9102 28.293 17.8125 28.2148 17.8125C28.1367 17.8125 28.0586 17.9102 28.0391 18.0664C27.9609 18.125 27.9219 18.2031 27.9219 18.3008C27.9219 18.457 28.0586 18.5938 28.2148 18.5938C28.3711 18.5938 28.5078 18.457 28.5078 18.3008C28.5078 18.2031 28.4688 18.125 28.3906 18.0664Z" fill="#FFCC00"/>
<path d="M27.0234 19.043C27.0039 18.8867 26.9258 18.7891 26.8477 18.7891C26.7695 18.7891 26.6914 18.8867 26.6719 19.043C26.5937 19.1016 26.5547 19.1797 26.5547 19.2773C26.5547 19.4336 26.6914 19.5703 26.8477 19.5703C27.0039 19.5703 27.1406 19.4336 27.1406 19.2773C27.1406 19.1797 27.1016 19.1016 27.0234 19.043Z" fill="#FFCC00"/>
<path d="M26.4375 17.0898C26.418 16.9336 26.3398 16.8359 26.2617 16.8359C26.1836 16.8359 26.1055 16.9336 26.0859 17.0898C26.0078 17.1484 25.9688 17.2266 25.9688 17.3242C25.9688 17.4805 26.1055 17.6172 26.2617 17.6172C26.418 17.6172 26.5547 17.4805 26.5547 17.3242C26.5547 17.2266 26.5156 17.1484 26.4375 17.0898Z" fill="#FFCC00"/>
<path d="M25.0703 17.0898C25.0508 16.9336 24.9727 16.8359 24.8945 16.8359C24.8164 16.8359 24.7383 16.9336 24.7187 17.0898C24.6406 17.1484 24.6016 17.2266 24.6016 17.3242C24.6016 17.4805 24.7383 17.6172 24.8945 17.6172C25.0508 17.6172 25.1875 17.4805 25.1875 17.3242C25.1875 17.2266 25.1484 17.1484 25.0703 17.0898Z" fill="#FFCC00"/>
<path d="M25.6563 18.6523C25.6367 18.4961 25.5586 18.3984 25.4805 18.3984C25.4023 18.3984 25.3242 18.4961 25.3047 18.6523C25.2266 18.7109 25.1875 18.7891 25.1875 18.8867C25.1875 19.043 25.3242 19.1797 25.4805 19.1797C25.6367 19.1797 25.7734 19.043 25.7734 18.8867C25.7734 18.7891 25.7344 18.7109 25.6563 18.6523Z" fill="#FFCC00"/>
<path opacity="0.3" d="M14.1523 24.0625C14.9614 24.0625 15.6172 23.7127 15.6172 23.2812C15.6172 22.8498 14.9614 22.5 14.1523 22.5C13.3433 22.5 12.6875 22.8498 12.6875 23.2812C12.6875 23.7127 13.3433 24.0625 14.1523 24.0625Z" fill="black"/>
<path d="M13.8594 18.0078V23.2812C13.8594 23.3984 13.9961 23.4766 14.1523 23.4766C14.3086 23.4766 14.4453 23.3984 14.4453 23.2812V18.0078H13.8594Z" fill="#825012"/>
<path d="M12.5898 18.7891C13.291 18.7891 13.8594 18.2207 13.8594 17.5195C13.8594 16.8184 13.291 16.25 12.5898 16.25C11.8887 16.25 11.3203 16.8184 11.3203 17.5195C11.3203 18.2207 11.8887 18.7891 12.5898 18.7891Z" fill="#539B00"/>
<path d="M13.2734 17.4219C14.2443 17.4219 15.0312 16.6349 15.0312 15.6641C15.0312 14.6932 14.2443 13.9062 13.2734 13.9062C12.3026 13.9062 11.5156 14.6932 11.5156 15.6641C11.5156 16.6349 12.3026 17.4219 13.2734 17.4219Z" fill="#539B00"/>
<path d="M14.25 21.0156C14.7578 21.0156 14.8359 20.8398 14.8359 20.3516V18.7891H15.0312V20.7422C15.0312 21.0742 14.7773 21.3281 14.4453 21.3281H14.25V21.0156Z" fill="#825012"/>
<path d="M14.0547 21.0937C13.7227 21.0937 13.4688 21.0156 13.4688 20.6836V18.7891H13.2734V20.7422C13.2734 21.0742 13.5273 21.3281 13.8594 21.3281H14.0547V21.0937Z" fill="#825012"/>
<path d="M14.9336 20.3516C15.7426 20.3516 16.3984 19.6957 16.3984 18.8867C16.3984 18.0777 15.7426 17.4219 14.9336 17.4219C14.1246 17.4219 13.4688 18.0777 13.4688 18.8867C13.4688 19.6957 14.1246 20.3516 14.9336 20.3516Z" fill="#539B00"/>
<path d="M15.8125 19.375C16.4597 19.375 16.9844 18.8503 16.9844 18.2031C16.9844 17.5559 16.4597 17.0312 15.8125 17.0312C15.1653 17.0312 14.6406 17.5559 14.6406 18.2031C14.6406 18.8503 15.1653 19.375 15.8125 19.375Z" fill="#539B00"/>
<path d="M15.0312 17.6172C15.8942 17.6172 16.5938 16.9176 16.5938 16.0547C16.5938 15.1917 15.8942 14.4922 15.0312 14.4922C14.1683 14.4922 13.4688 15.1917 13.4688 16.0547C13.4688 16.9176 14.1683 17.6172 15.0312 17.6172Z" fill="#539B00"/>
<path d="M13.6641 16.0547C14.527 16.0547 15.2266 15.3551 15.2266 14.4922C15.2266 13.6292 14.527 12.9297 13.6641 12.9297C12.8011 12.9297 12.1016 13.6292 12.1016 14.4922C12.1016 15.3551 12.8011 16.0547 13.6641 16.0547Z" fill="#539B00"/>
<path opacity="0.2" d="M13.957 15.6641C14.3867 15.6641 14.7578 15.918 14.9141 16.2695C14.9727 16.25 15.0508 16.25 15.1289 16.25C15.4805 16.25 15.793 16.4258 15.9883 16.6797C15.9102 16.3281 15.5977 16.0547 15.2266 16.0547H15.207C15.1094 15.6055 14.7188 15.2734 14.25 15.2734C13.8594 15.2734 13.5273 15.5078 13.3711 15.8398C13.5273 15.7227 13.7422 15.6641 13.957 15.6641Z" fill="white"/>
<path d="M12.1016 16.8359C12.49 16.8359 12.8048 16.5211 12.8048 16.1328C12.8048 15.7445 12.49 15.4297 12.1016 15.4297C11.7133 15.4297 11.3985 15.7445 11.3985 16.1328C11.3985 16.5211 11.7133 16.8359 12.1016 16.8359Z" fill="#539B00"/>
<path opacity="0.2" d="M12.1016 16.1523C12.1016 15.6641 12.4336 15.2539 12.8828 15.1172C12.9219 14.5508 13.3711 14.1016 13.957 14.1016C14.2891 14.1016 14.6016 14.2578 14.7969 14.5117C14.6797 14.043 14.25 13.7109 13.7617 13.7109C13.1953 13.7109 12.7266 14.1406 12.6875 14.707C12.2383 14.8047 11.9062 15.1953 11.9062 15.6641C11.9062 15.8789 11.9844 16.0938 12.1016 16.25V16.1523Z" fill="white"/>
<path d="M13.5273 20.7617C14.5305 20.7617 15.3437 19.9485 15.3437 18.9453C15.3437 17.9421 14.5305 17.1289 13.5273 17.1289C12.5242 17.1289 11.7109 17.9421 11.7109 18.9453C11.7109 19.9485 12.5242 20.7617 13.5273 20.7617Z" fill="#539B00"/>
<path d="M16.0664 18.2227C16.4224 18.2227 16.7109 17.9341 16.7109 17.5781C16.7109 17.2222 16.4224 16.9336 16.0664 16.9336C15.7104 16.9336 15.4219 17.2222 15.4219 17.5781C15.4219 17.9341 15.7104 18.2227 16.0664 18.2227Z" fill="#539B00"/>
<path opacity="0.3" d="M16.9844 18.2031C16.9844 18.125 16.9844 18.0469 16.9649 17.9688C16.8477 18.7109 16.2032 19.2773 15.4219 19.2773H15.3438C15.4805 19.3359 15.6563 19.375 15.8125 19.375C15.9493 19.375 16.0664 19.3555 16.1836 19.3164C15.9102 19.5898 15.5391 19.7656 15.1289 19.7656C14.9336 19.7656 14.7383 19.7266 14.5625 19.6484C14.25 19.9609 13.8008 20.1563 13.3321 20.1563C12.6485 20.1563 12.043 19.7656 11.75 19.2188C11.8868 20.0781 12.6289 20.7422 13.5274 20.7422C13.9571 20.7422 14.3672 20.5859 14.6797 20.332C14.7579 20.3516 14.836 20.3516 14.9336 20.3516C15.6172 20.3516 16.2032 19.8828 16.3594 19.2383C16.7305 19.043 16.9844 18.6523 16.9844 18.2031Z" fill="black"/>
<path opacity="0.2" d="M13.1757 17.8125C13.332 17.8125 13.4687 17.832 13.6054 17.8906C13.7812 17.6172 14.0937 17.4219 14.4452 17.4219C14.6405 17.4219 14.8163 17.4805 14.9726 17.5781C14.8359 17.2461 14.5234 17.0312 14.1523 17.0312C13.8398 17.0312 13.5663 17.1875 13.4101 17.4219H13.2734C12.707 17.4219 12.2187 17.832 12.121 18.3789C12.3554 18.0273 12.746 17.8125 13.1757 17.8125Z" fill="white"/>
<path opacity="0.3" d="M12.1014 18.1055C11.7304 17.9492 11.4374 17.6367 11.3397 17.2266C11.3202 17.3242 11.3007 17.4219 11.3007 17.5195C11.3007 17.9883 11.5546 18.3789 11.9257 18.6133C11.9647 18.4375 12.0233 18.2617 12.1014 18.1055Z" fill="black"/>
<path d="M15.5 16.8945C15.4805 16.7383 15.4023 16.6406 15.3242 16.6406C15.2461 16.6406 15.168 16.7383 15.1484 16.8945C15.0703 16.9531 15.0312 17.0312 15.0312 17.1289C15.0312 17.2852 15.168 17.4219 15.3242 17.4219C15.4805 17.4219 15.6172 17.2852 15.6172 17.1289C15.6172 17.0312 15.5781 16.9531 15.5 16.8945Z" fill="#FFCC00"/>
<path d="M13.3516 15.918C13.332 15.7617 13.2539 15.6641 13.1758 15.6641C13.0977 15.6641 13.0195 15.7617 13 15.918C12.9219 15.9766 12.8828 16.0547 12.8828 16.1523C12.8828 16.3086 13.0195 16.4453 13.1758 16.4453C13.332 16.4453 13.4688 16.3086 13.4688 16.1523C13.4688 16.0547 13.4297 15.9766 13.3516 15.918Z" fill="#FFCC00"/>
<path d="M13.3516 14.1602C13.332 14.0039 13.2539 13.9062 13.1758 13.9062C13.0977 13.9062 13.0195 14.0039 13 14.1602C12.9219 14.2187 12.8828 14.2969 12.8828 14.3945C12.8828 14.5508 13.0195 14.6875 13.1758 14.6875C13.332 14.6875 13.4688 14.5508 13.4688 14.3945C13.4688 14.2969 13.4297 14.2187 13.3516 14.1602Z" fill="#FFCC00"/>
<path d="M14.9141 14.7461C14.8945 14.5898 14.8164 14.4922 14.7383 14.4922C14.6602 14.4922 14.582 14.5898 14.5625 14.7461C14.4844 14.8047 14.4453 14.8828 14.4453 14.9805C14.4453 15.1367 14.582 15.2734 14.7383 15.2734C14.8945 15.2734 15.0312 15.1367 15.0312 14.9805C15.0312 14.8828 14.9922 14.8047 14.9141 14.7461Z" fill="#FFCC00"/>
<path d="M14.7188 15.918C14.6992 15.7617 14.6211 15.6641 14.543 15.6641C14.4648 15.6641 14.3867 15.7617 14.3672 15.918C14.2891 15.9766 14.25 16.0547 14.25 16.1523C14.25 16.3086 14.3867 16.4453 14.543 16.4453C14.6992 16.4453 14.8359 16.3086 14.8359 16.1523C14.8359 16.0547 14.7969 15.9766 14.7188 15.918Z" fill="#FFCC00"/>
<path d="M15.6953 15.5273C15.6758 15.3711 15.5977 15.2734 15.5195 15.2734C15.4414 15.2734 15.3633 15.3711 15.3437 15.5273C15.2656 15.5859 15.2266 15.6641 15.2266 15.7617C15.2266 15.918 15.3633 16.0547 15.5195 16.0547C15.6758 16.0547 15.8125 15.918 15.8125 15.7617C15.8125 15.6641 15.7734 15.5859 15.6953 15.5273Z" fill="#FFCC00"/>
<path d="M15.6953 18.2617C15.6758 18.1055 15.5977 18.0078 15.5195 18.0078C15.4414 18.0078 15.3633 18.1055 15.3437 18.2617C15.2656 18.3203 15.2266 18.3984 15.2266 18.4961C15.2266 18.6523 15.3633 18.7891 15.5195 18.7891C15.6758 18.7891 15.8125 18.6523 15.8125 18.4961C15.8125 18.3984 15.7734 18.3203 15.6953 18.2617Z" fill="#FFCC00"/>
<path d="M14.5234 19.043C14.5039 18.8867 14.4258 18.7891 14.3477 18.7891C14.2695 18.7891 14.1914 18.8867 14.1719 19.043C14.0938 19.1016 14.0547 19.1797 14.0547 19.2773C14.0547 19.4336 14.1914 19.5703 14.3477 19.5703C14.5039 19.5703 14.6406 19.4336 14.6406 19.2773C14.6406 19.1797 14.6016 19.1016 14.5234 19.043Z" fill="#FFCC00"/>
<path d="M13.9375 17.8711C13.918 17.7148 13.8398 17.6172 13.7617 17.6172C13.6836 17.6172 13.6055 17.7148 13.5859 17.8711C13.5078 17.9297 13.4688 18.0078 13.4688 18.1055C13.4688 18.2617 13.6055 18.3984 13.7617 18.3984C13.918 18.3984 14.0547 18.2617 14.0547 18.1055C14.0547 18.0078 14.0156 17.9297 13.9375 17.8711Z" fill="#FFCC00"/>
<path d="M12.5703 17.0898C12.5508 16.9336 12.4727 16.8359 12.3945 16.8359C12.3164 16.8359 12.2383 16.9336 12.2188 17.0898C12.1406 17.1484 12.1016 17.2266 12.1016 17.3242C12.1016 17.4805 12.2383 17.6172 12.3945 17.6172C12.5508 17.6172 12.6875 17.4805 12.6875 17.3242C12.6875 17.2266 12.6484 17.1484 12.5703 17.0898Z" fill="#FFCC00"/>
<path d="M13.1562 18.6523C13.1367 18.4961 13.0586 18.3984 12.9805 18.3984C12.9023 18.3984 12.8242 18.4961 12.8047 18.6523C12.7266 18.7109 12.6875 18.7891 12.6875 18.8867C12.6875 19.043 12.8242 19.1797 12.9805 19.1797C13.1367 19.1797 13.2734 19.043 13.2734 18.8867C13.2734 18.7891 13.2344 18.7109 13.1562 18.6523Z" fill="#FFCC00"/>
<path opacity="0.3" d="M20.4023 27.1875C21.2114 27.1875 21.8672 26.8377 21.8672 26.4062C21.8672 25.9748 21.2114 25.625 20.4023 25.625C19.5933 25.625 18.9375 25.9748 18.9375 26.4062C18.9375 26.8377 19.5933 27.1875 20.4023 27.1875Z" fill="black"/>
<path d="M20.1094 21.1328V26.4062C20.1094 26.5234 20.2461 26.6016 20.4023 26.6016C20.5586 26.6016 20.6953 26.5234 20.6953 26.4062V21.1328H20.1094Z" fill="#825012"/>
<path d="M18.8398 21.9141C19.541 21.9141 20.1094 21.3457 20.1094 20.6445C20.1094 19.9434 19.541 19.375 18.8398 19.375C18.1387 19.375 17.5703 19.9434 17.5703 20.6445C17.5703 21.3457 18.1387 21.9141 18.8398 21.9141Z" fill="#539B00"/>
<path d="M19.9141 20.5469C20.8849 20.5469 21.6719 19.7599 21.6719 18.7891C21.6719 17.8182 20.8849 17.0312 19.9141 17.0312C18.9432 17.0312 18.1562 17.8182 18.1562 18.7891C18.1562 19.7599 18.9432 20.5469 19.9141 20.5469Z" fill="#539B00"/>
<path d="M20.5 24.1406C21.0078 24.1406 21.0859 23.9648 21.0859 23.4766V21.9141H21.2812V23.8672C21.2812 24.1992 21.0273 24.4531 20.6953 24.4531H20.5V24.1406Z" fill="#825012"/>
<path d="M20.3047 24.2188C19.9727 24.2188 19.7188 24.1406 19.7188 23.8086V21.9141H19.5234V23.8672C19.5234 24.1992 19.7773 24.4531 20.1094 24.4531H20.3047V24.2188Z" fill="#825012"/>
<path d="M21.1836 23.4766C21.9926 23.4766 22.6484 22.8207 22.6484 22.0117C22.6484 21.2027 21.9926 20.5469 21.1836 20.5469C20.3746 20.5469 19.7188 21.2027 19.7188 22.0117C19.7188 22.8207 20.3746 23.4766 21.1836 23.4766Z" fill="#539B00"/>
<path d="M22.0625 22.5C22.7097 22.5 23.2344 21.9753 23.2344 21.3281C23.2344 20.6809 22.7097 20.1562 22.0625 20.1562C21.4153 20.1562 20.8906 20.6809 20.8906 21.3281C20.8906 21.9753 21.4153 22.5 22.0625 22.5Z" fill="#539B00"/>
<path d="M21.8672 21.1328C22.7301 21.1328 23.4297 20.4333 23.4297 19.5703C23.4297 18.7074 22.7301 18.0078 21.8672 18.0078C21.0042 18.0078 20.3047 18.7074 20.3047 19.5703C20.3047 20.4333 21.0042 21.1328 21.8672 21.1328Z" fill="#539B00"/>
<path d="M20.6953 19.375C21.5583 19.375 22.2578 18.6754 22.2578 17.8125C22.2578 16.9496 21.5583 16.25 20.6953 16.25C19.8324 16.25 19.1328 16.9496 19.1328 17.8125C19.1328 18.6754 19.8324 19.375 20.6953 19.375Z" fill="#539B00"/>
<path opacity="0.2" d="M20.793 18.9844C21.2227 18.9844 21.5938 19.2383 21.75 19.5898C21.8086 19.5703 21.8867 19.5703 21.9648 19.5703C22.3164 19.5703 22.6289 19.7461 22.8242 20C22.7461 19.6484 22.4336 19.375 22.0625 19.375H22.043C21.9453 18.9258 21.5547 18.5938 21.0859 18.5938C20.6953 18.5938 20.3633 18.8281 20.207 19.1602C20.3633 19.043 20.5781 18.9844 20.793 18.9844Z" fill="white"/>
<path d="M18.5468 19.9609C18.9351 19.9609 19.2499 19.6461 19.2499 19.2578C19.2499 18.8695 18.9351 18.5547 18.5468 18.5547C18.1584 18.5547 17.8436 18.8695 17.8436 19.2578C17.8436 19.6461 18.1584 19.9609 18.5468 19.9609Z" fill="#539B00"/>
<path opacity="0.2" d="M18.7422 19.082C18.7422 18.5938 19.0742 18.1836 19.5234 18.0469C19.5625 17.4805 20.0117 17.0312 20.5977 17.0312C20.9297 17.0312 21.2422 17.1875 21.4375 17.4414C21.3203 16.9727 20.8906 16.6406 20.4023 16.6406C19.8359 16.6406 19.3672 17.0703 19.3281 17.6367C18.8789 17.7344 18.5469 18.125 18.5469 18.5938C18.5469 18.8086 18.625 19.0234 18.7422 19.1797V19.082Z" fill="white"/>
<path d="M19.7773 23.8867C20.7805 23.8867 21.5937 23.0735 21.5937 22.0703C21.5937 21.0671 20.7805 20.2539 19.7773 20.2539C18.7742 20.2539 17.9609 21.0671 17.9609 22.0703C17.9609 23.0735 18.7742 23.8867 19.7773 23.8867Z" fill="#539B00"/>
<path d="M22.3164 21.3477C22.6724 21.3477 22.9609 21.0591 22.9609 20.7031C22.9609 20.3472 22.6724 20.0586 22.3164 20.0586C21.9604 20.0586 21.6719 20.3472 21.6719 20.7031C21.6719 21.0591 21.9604 21.3477 22.3164 21.3477Z" fill="#539B00"/>
<path opacity="0.3" d="M23.2344 21.3281C23.2344 21.25 23.2344 21.1719 23.2149 21.0938C23.0977 21.8359 22.4532 22.4023 21.6719 22.4023H21.5938C21.7305 22.4609 21.9063 22.5 22.0625 22.5C22.1993 22.5 22.3164 22.4805 22.4336 22.4414C22.1602 22.7148 21.7891 22.8906 21.3789 22.8906C21.1836 22.8906 20.9883 22.8516 20.8125 22.7734C20.5 23.0859 20.0508 23.2813 19.5821 23.2813C18.8985 23.2813 18.293 22.8906 18 22.3437C18.1368 23.2031 18.8789 23.8672 19.7774 23.8672C20.2071 23.8672 20.6172 23.7109 20.9297 23.457C21.0078 23.4766 21.086 23.4766 21.1836 23.4766C21.8672 23.4766 22.4532 23.0078 22.6094 22.3633C22.9805 22.168 23.2344 21.7773 23.2344 21.3281Z" fill="black"/>
<path opacity="0.2" d="M19.4257 20.9375C19.582 20.9375 19.7187 20.957 19.8554 21.0156C20.0312 20.7422 20.3437 20.5469 20.6952 20.5469C20.8905 20.5469 21.0663 20.6055 21.2226 20.7031C21.0859 20.3711 20.7734 20.1562 20.4023 20.1562C20.0898 20.1562 19.8163 20.3125 19.6601 20.5469H19.5234C18.957 20.5469 18.4687 20.957 18.371 21.5039C18.6054 21.1523 18.996 20.9375 19.4257 20.9375Z" fill="white"/>
<path opacity="0.3" d="M18.3516 21.2305C17.9805 21.0742 17.6876 20.7617 17.5899 20.3516C17.5704 20.4492 17.5509 20.5469 17.5509 20.6445C17.5509 21.1133 17.8048 21.5039 18.1759 21.7383C18.2149 21.5625 18.2735 21.3867 18.3516 21.2305Z" fill="black"/>
<path d="M21.3594 20.4102C21.3398 20.2539 21.2617 20.1562 21.1836 20.1562C21.1055 20.1562 21.0273 20.2539 21.0078 20.4102C20.9297 20.4687 20.8906 20.5469 20.8906 20.6445C20.8906 20.8008 21.0273 20.9375 21.1836 20.9375C21.3398 20.9375 21.4766 20.8008 21.4766 20.6445C21.4766 20.5469 21.4375 20.4687 21.3594 20.4102Z" fill="#FFCC00"/>
<path d="M19.6016 19.043C19.582 18.8867 19.5039 18.7891 19.4258 18.7891C19.3477 18.7891 19.2695 18.8867 19.25 19.043C19.1719 19.1016 19.1328 19.1797 19.1328 19.2773C19.1328 19.4336 19.2695 19.5703 19.4258 19.5703C19.582 19.5703 19.7188 19.4336 19.7188 19.2773C19.7188 19.1797 19.6797 19.1016 19.6016 19.043Z" fill="#FFCC00"/>
<path d="M19.9922 17.4805C19.9727 17.3242 19.8945 17.2266 19.8164 17.2266C19.7383 17.2266 19.6602 17.3242 19.6406 17.4805C19.5625 17.5391 19.5234 17.6172 19.5234 17.7148C19.5234 17.8711 19.6602 18.0078 19.8164 18.0078C19.9727 18.0078 20.1094 17.8711 20.1094 17.7148C20.1094 17.6172 20.0703 17.5391 19.9922 17.4805Z" fill="#FFCC00"/>
<path d="M21.3594 17.8711C21.3398 17.7148 21.2617 17.6172 21.1836 17.6172C21.1055 17.6172 21.0273 17.7148 21.0078 17.8711C20.9297 17.9297 20.8906 18.0078 20.8906 18.1055C20.8906 18.2617 21.0273 18.3984 21.1836 18.3984C21.3398 18.3984 21.4766 18.2617 21.4766 18.1055C21.4766 18.0078 21.4375 17.9297 21.3594 17.8711Z" fill="#FFCC00"/>
<path d="M20.9688 19.043C20.9492 18.8867 20.8711 18.7891 20.793 18.7891C20.7148 18.7891 20.6367 18.8867 20.6172 19.043C20.5391 19.1016 20.5 19.1797 20.5 19.2773C20.5 19.4336 20.6367 19.5703 20.793 19.5703C20.9492 19.5703 21.0859 19.4336 21.0859 19.2773C21.0859 19.1797 21.0469 19.1016 20.9688 19.043Z" fill="#FFCC00"/>
<path d="M22.5313 19.6289C22.5117 19.4727 22.4336 19.375 22.3555 19.375C22.2773 19.375 22.1992 19.4727 22.1797 19.6289C22.1016 19.6875 22.0625 19.7656 22.0625 19.8633C22.0625 20.0195 22.1992 20.1562 22.3555 20.1562C22.5117 20.1562 22.6484 20.0195 22.6484 19.8633C22.6484 19.7656 22.6094 19.6875 22.5313 19.6289Z" fill="#FFCC00"/>
<path d="M21.9453 21.3867C21.9258 21.2305 21.8477 21.1328 21.7695 21.1328C21.6914 21.1328 21.6133 21.2305 21.5937 21.3867C21.5156 21.4453 21.4766 21.5234 21.4766 21.6211C21.4766 21.7773 21.6133 21.9141 21.7695 21.9141C21.9258 21.9141 22.0625 21.7773 22.0625 21.6211C22.0625 21.5234 22.0234 21.4453 21.9453 21.3867Z" fill="#FFCC00"/>
<path d="M20.7734 22.168C20.7539 22.0117 20.6758 21.9141 20.5977 21.9141C20.5195 21.9141 20.4414 22.0117 20.4219 22.168C20.3437 22.2266 20.3047 22.3047 20.3047 22.4023C20.3047 22.5586 20.4414 22.6953 20.5977 22.6953C20.7539 22.6953 20.8906 22.5586 20.8906 22.4023C20.8906 22.3047 20.8516 22.2266 20.7734 22.168Z" fill="#FFCC00"/>
<path d="M20.1875 20.9961C20.168 20.8398 20.0898 20.7422 20.0117 20.7422C19.9336 20.7422 19.8555 20.8398 19.8359 20.9961C19.7578 21.0547 19.7188 21.1328 19.7188 21.2305C19.7188 21.3867 19.8555 21.5234 20.0117 21.5234C20.168 21.5234 20.3047 21.3867 20.3047 21.2305C20.3047 21.1328 20.2656 21.0547 20.1875 20.9961Z" fill="#FFCC00"/>
<path d="M18.8203 20.2148C18.8008 20.0586 18.7227 19.9609 18.6445 19.9609C18.5664 19.9609 18.4883 20.0586 18.4687 20.2148C18.3906 20.2734 18.3516 20.3516 18.3516 20.4492C18.3516 20.6055 18.4883 20.7422 18.6445 20.7422C18.8008 20.7422 18.9375 20.6055 18.9375 20.4492C18.9375 20.3516 18.8984 20.2734 18.8203 20.2148Z" fill="#FFCC00"/>
<path d="M19.4063 21.7773C19.3867 21.6211 19.3086 21.5234 19.2305 21.5234C19.1523 21.5234 19.0742 21.6211 19.0547 21.7773C18.9766 21.8359 18.9375 21.9141 18.9375 22.0117C18.9375 22.168 19.0742 22.3047 19.2305 22.3047C19.3867 22.3047 19.5234 22.168 19.5234 22.0117C19.5234 21.9141 19.4844 21.8359 19.4063 21.7773Z" fill="#FFCC00"/>
</svg>
