<svg width="40" height="40" viewBox="0 0 40 40" fill="none" xmlns="http://www.w3.org/2000/svg">
<g clip-path="url(#clip0_468_1917)">
<rect y="-1" width="40" height="40" rx="8" fill="#B11F42"/>
<path fill-rule="evenodd" clip-rule="evenodd" d="M8.22776 18.7181V29.9973H31.7716V15.8741H8.22776V18.7181ZM19.7424 27.6945C19.8134 27.7655 19.9063 27.8013 19.9997 27.8013C20.0925 27.8013 20.186 27.7655 20.257 27.6945L23.7758 24.1757C24.8881 23.0634 24.8881 21.254 23.7758 20.1417C22.7461 19.1119 21.118 19.0361 19.9997 19.9135C18.8814 19.0355 17.2533 19.1119 16.2236 20.1417C15.1113 21.254 15.1113 23.0634 16.2236 24.1757L19.7424 27.6945Z" fill="#F3EBE3"/>
<path fill-rule="evenodd" clip-rule="evenodd" d="M8.33092 15.1459H31.6685L30.3711 10.0026H26.3808H9.62826L8.33092 15.1459ZM16.0913 12.9384H23.9081C24.109 12.9384 24.2722 12.7751 24.2722 12.5743C24.2722 12.3734 24.109 12.2102 23.9081 12.2102H16.0913C15.8904 12.2102 15.7272 12.3734 15.7272 12.5743C15.7272 12.7751 15.8904 12.9384 16.0913 12.9384Z" fill="#F3EBE3"/>
<path fill-rule="evenodd" clip-rule="evenodd" d="M19.7424 27.6945C19.8134 27.7655 19.9063 27.8013 19.9997 27.8013C20.0925 27.8013 20.186 27.7655 20.257 27.6945L23.7758 24.1757C24.8881 23.0634 24.8881 21.254 23.7758 20.1417C22.7461 19.1119 21.118 19.0361 19.9997 19.9135C18.8814 19.0355 17.2533 19.1119 16.2236 20.1417C15.1113 21.254 15.1113 23.0634 16.2236 24.1757L19.7424 27.6945ZM16.4809 20.3996C17.4524 19.4281 19.0282 19.4281 19.9997 20.3996C20.9712 19.4281 22.5471 19.4281 23.5185 20.3996C24.49 21.3711 24.49 22.9469 23.5185 23.9184L19.9997 27.4373L16.4809 23.9184C15.5094 22.9469 15.5094 21.3711 16.4809 20.3996Z" fill="#F3EBE3"/>
<path fill-rule="evenodd" clip-rule="evenodd" d="M31.6685 15.1459L30.3711 10.0026H26.3808H9.62826L8.33092 15.1459H7.86368C7.70098 15.1459 7.56296 15.253 7.5164 15.4005L8.99173 9.54937C9.03238 9.38735 9.17801 9.27449 9.34488 9.27449H26.3808H30.6551C30.822 9.27449 30.9676 9.38796 31.0083 9.54937L32.4895 15.4208C32.4987 15.4573 32.502 15.4947 32.4998 15.5316V15.51C32.4998 15.3091 32.3366 15.1459 32.1357 15.1459H31.6685ZM31.7716 15.8741H32.1357L32.1369 15.8734C32.2492 15.8734 32.3554 15.8213 32.424 15.7333C32.4694 15.6749 32.4954 15.6043 32.4998 15.5316V30.3614C32.4998 30.5623 32.3366 30.7255 32.1357 30.7255H7.86368C7.66283 30.7255 7.4996 30.5629 7.4996 30.3614L7.49954 18.7181L7.4996 15.51C7.4996 15.4718 7.50549 15.435 7.5164 15.4005L7.51113 15.4214C7.48322 15.53 7.5081 15.6453 7.57667 15.7339C7.64523 15.8225 7.75142 15.8741 7.86368 15.8741H8.22776V18.7181V29.9973H31.7716V15.8741Z" fill="#F3EBE3"/>
</g>
<defs>
<clipPath id="clip0_468_1917">
<rect width="40" height="40" fill="white"/>
</clipPath>
</defs>
</svg>
