<svg width="40" height="40" viewBox="0 0 40 40" fill="none" xmlns="http://www.w3.org/2000/svg">
<rect width="40" height="40" rx="8" fill="#B11F42"/>
<path fill-rule="evenodd" clip-rule="evenodd" d="M29.7061 17.211C29.7061 24.9855 20.9297 32.1851 20.9297 32.1851C20.6617 32.3894 20.3341 32.5 19.9971 32.5C19.6601 32.5 19.3325 32.3894 19.0645 32.1851C19.0645 32.1851 10.289 24.9826 10.289 17.211C10.289 14.6354 11.3121 12.1654 13.1333 10.3443C14.9545 8.52312 17.4245 7.5 20 7.5C22.5755 7.5 25.0455 8.52312 26.8667 10.3443C28.6878 12.1654 29.7109 14.6354 29.7109 17.211H29.7061ZM22.2266 16.254C22.2019 16.6201 22.0512 16.9664 21.8 17.234H18.1887C17.9375 16.9664 17.7868 16.6201 17.7621 16.254C17.7374 15.8878 17.8402 15.5244 18.0531 15.2255C18.3759 14.7781 18.8299 14.4421 19.3521 14.264L19.9943 14.0342L20.6366 14.264C21.1588 14.4421 21.6128 14.7781 21.9356 15.2255C22.1485 15.5244 22.2513 15.8878 22.2266 16.254ZM16.6587 16.7033H17.1376V15.8379H14.83V16.7033H15.3127V21.8145H16.655V21.8164H17.2183H18.4288H19.1077H20.8807H21.5604H22.7709H23.3296V21.8174H24.6757V16.7004H23.3296V17.9282H22.3959V17.234H17.5885V17.9282H16.6587V16.7033ZM17.5885 17.9282V17.9292H22.3959V17.9282H17.5885ZM23.3296 17.9282V21.8164H23.3373V17.9282H23.3296ZM16.6587 17.9282V21.8145H16.655V17.9282H16.6587ZM16.6587 16.7033H15.3127V16.6975H16.6587V16.7033ZM15.9832 14.6207L15.9822 14.6207H15.9841L15.9832 14.6207ZM15.839 14.3706V13.6669C15.8366 13.6466 15.8386 13.626 15.8448 13.6064C15.8509 13.5869 15.8612 13.5689 15.8748 13.5536C15.8884 13.5384 15.9051 13.5261 15.9238 13.5177C15.9425 13.5094 15.9627 13.505 15.9832 13.505C16.0037 13.505 16.0239 13.5094 16.0426 13.5177C16.0613 13.5261 16.078 13.5384 16.0916 13.5536C16.1052 13.5689 16.1154 13.5869 16.1216 13.6064C16.1278 13.626 16.1298 13.6466 16.1274 13.6669V14.3686L16.4379 14.6784C16.5423 14.7827 16.6134 14.9157 16.6424 15.0605C16.6713 15.2052 16.6567 15.3553 16.6003 15.4918L16.4571 15.8379H15.511L15.3687 15.4918C15.3124 15.3553 15.2977 15.2052 15.3267 15.0605C15.3556 14.9157 15.4268 14.7827 15.5312 14.6784L15.839 14.3706ZM25.1583 16.6994H22.8507V15.8341H23.5291L23.5307 15.8379H24.4777L24.4793 15.8341H25.1583V16.6994ZM24.1478 14.3696V13.6669C24.1502 13.6465 24.1482 13.6259 24.142 13.6064C24.1358 13.5869 24.1256 13.5689 24.112 13.5536C24.0984 13.5383 24.0817 13.5261 24.063 13.5177C24.0443 13.5094 24.0241 13.505 24.0036 13.505C23.9831 13.505 23.9629 13.5094 23.9442 13.5177C23.9255 13.5261 23.9088 13.5383 23.8952 13.5536C23.8816 13.5689 23.8713 13.5869 23.8652 13.6064C23.859 13.6259 23.857 13.6465 23.8594 13.6669V14.3715L23.5509 14.6793C23.4464 14.7837 23.3753 14.9167 23.3464 15.0614C23.3174 15.2062 23.3321 15.3563 23.3884 15.4928L23.5291 15.8341H24.4793L24.62 15.4928C24.6764 15.3563 24.691 15.2062 24.6621 15.0614C24.6331 14.9167 24.562 14.7837 24.4575 14.6793L24.1478 14.3696ZM19.9944 14.0294L20.3136 14.1438C20.4078 14.0139 20.4628 13.8598 20.4722 13.6996C20.4816 13.5395 20.4449 13.38 20.3665 13.24L19.9954 12.5756L19.6233 13.24C19.5453 13.3798 19.5089 13.5389 19.5182 13.6987C19.5276 13.8584 19.5824 14.0122 19.6762 14.1419L19.9944 14.0294Z" fill="#F3EBE3"/>
</svg>
