<svg width="34" height="34" viewBox="0 0 34 34" fill="none" xmlns="http://www.w3.org/2000/svg">
<circle cx="17" cy="17" r="17" fill="#A6E1D5"/>
<path d="M9.70736 14.9167C9.57505 14.9172 9.44417 14.944 9.3223 14.9955C9.20042 15.047 9.08997 15.1222 8.99736 15.2167L8.28736 15.9167C8.19363 16.0096 8.11924 16.1202 8.06847 16.2421C8.0177 16.364 7.99156 16.4947 7.99156 16.6267C7.99156 16.7587 8.0177 16.8894 8.06847 17.0113C8.11924 17.1331 8.19363 17.2437 8.28736 17.3367L13.9474 22.9867C14.1347 23.1729 14.3882 23.2775 14.6524 23.2775C14.9165 23.2775 15.17 23.1729 15.3574 22.9867L25.9674 12.3867C26.0611 12.2937 26.1355 12.1831 26.1863 12.0613C26.237 11.9394 26.2632 11.8087 26.2632 11.6767C26.2632 11.5447 26.237 11.414 26.1863 11.2921C26.1355 11.1702 26.0611 11.0596 25.9674 10.9667L25.2574 10.2667C25.07 10.0804 24.8165 9.97589 24.5524 9.97589C24.2882 9.97589 24.0347 10.0804 23.8474 10.2667L15.3574 18.7467C15.17 18.9329 14.9165 19.0375 14.6524 19.0375C14.3882 19.0375 14.1347 18.9329 13.9474 18.7467L10.4074 15.2167C10.2227 15.0283 9.97113 14.9204 9.70736 14.9167Z" fill="#095B4B"/>
</svg>
