<svg width="40" height="40" viewBox="0 0 40 40" fill="none" xmlns="http://www.w3.org/2000/svg">
<g clip-path="url(#clip0_468_1933)">
<rect y="-1" width="40" height="40" rx="8" fill="#B11F42"/>
<path d="M19.9461 31.5683C19.9461 31.8066 19.7528 31.9999 19.5144 31.9999L27.1526 32C26.9143 32 26.721 31.8067 26.721 31.5684V29.3155C26.721 29.2237 26.7502 29.1343 26.8045 29.0603L29.8125 24.9585C30.0434 24.6436 30.1654 24.2709 30.1654 23.8805V13.0578C30.1654 13.0229 30.1371 12.9946 30.1023 12.9946C28.8001 12.9946 27.7408 14.0539 27.7408 15.3561V18.8256C27.7408 19.064 27.5476 19.2573 27.3092 19.2573C24.6119 19.2573 22.4176 21.4516 22.4176 24.1488V25.5579C22.4176 25.7963 22.2243 25.9895 21.9859 25.9895C21.7476 25.9895 21.5543 25.7963 21.5543 25.5579V24.6576L19.9461 26.2659V31.5683Z" fill="#F3EBE3"/>
<path d="M12.3076 31.5683C12.3076 31.8066 12.1144 31.9999 11.876 31.9999H19.5144C19.276 31.9999 19.0828 31.8066 19.0828 31.5683V26.2659L17.4743 24.6574V25.5578C17.4743 25.7962 17.281 25.9895 17.0426 25.9895C16.8043 25.9895 16.611 25.7962 16.611 25.5578V24.1487C16.611 21.4515 14.4167 19.2572 11.7195 19.2572C11.4811 19.2572 11.2878 19.0639 11.2878 18.8256V15.356C11.2878 14.0539 10.2285 12.9946 8.92635 12.9946C8.89154 12.9946 8.86322 13.0229 8.86322 13.0577V23.8804C8.86322 24.2708 8.98524 24.6436 9.2161 24.9584L12.2241 29.0602C12.2783 29.1341 12.3076 29.2236 12.3076 29.3154V31.5683Z" fill="#F3EBE3"/>
<path d="M13.118 15.0255C12.5698 15.7759 12.2731 16.6774 12.2731 17.6253C12.2731 17.8963 12.2983 18.1645 12.3468 18.4283C12.2819 18.4212 12.2167 18.4148 12.1511 18.4099V15.356C12.1512 14.614 11.8986 13.9303 11.4758 13.3848V9.94999C11.4758 9.49721 11.8441 9.1289 12.2969 9.1289C12.7496 9.1289 13.1179 9.49726 13.1179 9.94999L13.118 15.0255Z" fill="#F3EBE3"/>
<path d="M13.9813 8.68442C13.9813 8.23164 14.3493 7.86333 14.8016 7.86333C15.2544 7.86333 15.6227 8.23169 15.6227 8.68442V13.3349C15.0268 13.4826 14.4698 13.7544 13.9813 14.1357V8.68442Z" fill="#F3EBE3"/>
<path d="M16.486 11.7173C16.486 11.2645 16.8544 10.8962 17.3071 10.8962C17.7599 10.8962 18.1282 11.2646 18.1282 11.7173V13.4425C17.6725 13.2867 17.1896 13.2048 16.6939 13.2048C16.6243 13.2048 16.555 13.2067 16.486 13.2099V11.7173Z" fill="#F3EBE3"/>
<path d="M20.9006 11.7173C20.9006 11.2645 21.269 10.8962 21.7217 10.8962C22.1745 10.8962 22.5428 11.2646 22.5428 11.7173V13.2096C22.4738 13.2064 22.4046 13.2045 22.3351 13.2045C21.8394 13.2045 21.3565 13.2866 20.9005 13.4426L20.9006 11.7173Z" fill="#F3EBE3"/>
<path d="M23.4061 8.68442C23.4061 8.23164 23.7745 7.86333 24.2272 7.86333C24.6795 7.86333 25.0475 8.23169 25.0475 8.68442V14.1357C24.5586 13.7544 24.0016 13.4825 23.4061 13.3348V8.68442Z" fill="#F3EBE3"/>
<path d="M27.553 13.3848C27.1303 13.9303 26.8776 14.614 26.8776 15.356V18.4099C26.812 18.4148 26.7468 18.4212 26.6817 18.4283C26.7306 18.1641 26.7559 17.8958 26.7559 17.6253C26.7559 16.6773 26.4592 15.7756 25.9107 15.0251V9.94999C25.9107 9.49721 26.2791 9.1289 26.7318 9.1289C27.1846 9.1289 27.5529 9.49726 27.5529 9.94999L27.553 13.3848Z" fill="#F3EBE3"/>
<path d="M25.7535 18.6079C23.5713 19.2216 21.9103 21.0925 21.6051 23.3861L19.5145 25.4767L17.4236 23.3858C17.1183 21.0922 15.4571 19.2212 13.2746 18.6077C13.1834 18.2892 13.1364 17.9598 13.1364 17.6253C13.1364 16.6745 13.5064 15.7813 14.1784 15.1099C14.8503 14.438 15.7436 14.068 16.6939 14.068C17.6441 14.068 18.5781 15.0781 19.2499 15.75C19.4184 15.9185 19.6916 15.9186 19.8602 15.7502C20.5331 15.0781 21.3858 14.0679 22.3351 14.0679C23.2845 14.0679 24.1778 14.438 24.8507 15.1101C25.5226 15.7813 25.8926 16.6745 25.8926 17.6253C25.8926 17.9589 25.8454 18.2884 25.7535 18.6079Z" fill="#F3EBE3"/>
</g>
<defs>
<clipPath id="clip0_468_1933">
<rect width="40" height="40" fill="white"/>
</clipPath>
</defs>
</svg>
