<svg width="40" height="40" viewBox="0 0 40 40" fill="none" xmlns="http://www.w3.org/2000/svg">
<rect width="40" height="40" rx="8" fill="#B11F42"/>
<path d="M15.31 28.5056C15.3552 28.5476 15.4171 28.5675 15.4776 28.558C17.939 28.2116 19.8985 29.5956 19.918 29.6096C19.99 29.6587 20.0857 29.6593 20.1577 29.6096C20.1772 29.5956 22.1356 28.2108 24.5982 28.558C24.7216 28.579 24.8421 28.468 24.8314 28.3426L24.5424 23.2868C24.5384 23.2161 24.4983 23.1523 24.4362 23.1184C24.37 23.0818 22.8048 22.2666 20.0378 24.1826C17.2587 22.2758 15.527 22.9871 15.5331 23.2867L15.2441 28.3426C15.2406 28.4043 15.2648 28.4641 15.31 28.5056ZM24.14 23.4393L24.4078 28.1212C22.4705 27.9265 20.8976 28.6859 20.243 29.0691V24.5391C22.42 23.021 23.7766 23.3145 24.14 23.4393ZM15.9355 23.4393C16.3018 23.3137 17.658 23.0228 19.8326 24.5391V29.0689C19.2501 28.728 17.9402 28.0901 16.2942 28.0901C16.0905 28.0901 15.8812 28.0998 15.6679 28.1212L15.9355 23.4393Z" fill="#F3EBE3"/>
<path d="M15.9355 23.4393C16.3018 23.3137 17.658 23.0228 19.8326 24.5391V29.0689C19.2501 28.728 17.9402 28.0901 16.2942 28.0901C16.0905 28.0901 15.8812 28.0998 15.6679 28.1212L15.9355 23.4393Z" fill="#F3EBE3"/>
<path d="M24.14 23.4393L24.4078 28.1212C22.4705 27.9265 20.8976 28.6859 20.243 29.0691V24.5391C22.42 23.021 23.7766 23.3145 24.14 23.4393Z" fill="#F3EBE3"/>
<path d="M25.7975 31.1835L23.8035 29.817L25.745 29.1849C25.8358 29.1554 25.8941 29.0673 25.8861 28.9721L25.4694 24.0411C25.4612 23.9191 25.3359 23.8274 25.2169 23.8585L24.9521 23.9223C24.8421 23.949 24.7741 24.06 24.8006 24.1704C24.8288 24.2957 24.9629 24.3563 25.0806 24.3143L25.4634 28.8443C25.1441 28.9494 20.2037 30.5541 20.0393 30.6103L14.6123 28.8443L14.995 24.3143C15.2722 24.4118 15.4025 23.9997 15.1233 23.9223L14.8586 23.8584C14.7413 23.8278 14.6131 23.9186 14.6061 24.0411L14.1895 28.9721C14.1815 29.0673 14.2399 29.1554 14.3306 29.1849L16.2724 29.8168L14.2781 31.1835C14.2223 31.2218 14.1888 31.2853 14.1888 31.3531V32.6624C14.1888 32.7283 14.2202 32.7901 14.2734 32.8286C14.3267 32.8675 14.3953 32.8782 14.4574 32.8579L20.0387 31.0423L25.6183 32.8579C25.6803 32.8783 25.7492 32.8675 25.8023 32.8286C25.8554 32.7901 25.8869 32.7283 25.8869 32.6624V31.3531C25.8869 31.2853 25.8534 31.2218 25.7975 31.1835ZM14.5992 32.3796V31.4615L16.7652 29.9771L19.3742 30.8261L14.5992 32.3796ZM25.4764 32.3796L20.7034 30.8264L23.3109 29.9774L25.4764 31.4615V32.3796Z" fill="#F3EBE3"/>
<path d="M6.60816 25.8194L5.07286 24.5394C5.07286 24.5394 4.40492 23.4149 4.17726 22.6195C3.77842 21.2259 4.17726 18.9076 4.17726 18.9076C4.17726 18.9076 6.45391 17.3137 8.14346 16.9877C9.0279 16.817 10.4464 16.8597 10.4464 16.8597L11.5979 17.4997V14.4278C11.5979 14.4278 12.7112 12.8226 13.517 11.8678C14.2695 10.9762 14.6752 10.4475 15.5641 9.69191C17.1321 8.35891 20.17 7.13199 20.17 7.13199C20.17 7.13199 23.9586 8.78032 25.7994 10.5879C27.126 11.8905 28.6142 14.4278 28.6142 14.4278L28.7421 17.3717L30.2774 16.9877C30.2774 16.9877 31.302 16.9869 31.9406 17.1157C33.1243 17.3543 33.7494 17.7275 34.7554 18.3956C35.23 18.7108 35.9068 19.2916 35.9068 19.2916C35.9068 19.2916 36.1165 20.951 35.9068 21.9795C35.7806 22.599 35.6139 22.9223 35.3951 23.5155C35.2088 24.0205 34.8833 24.7954 34.8833 24.7954L33.2201 26.0754C33.2201 26.0754 33.8596 24.862 34.1157 24.0275C34.3399 23.2965 34.3993 22.8655 34.4995 22.1075C34.6045 21.3131 34.6274 20.0596 34.6274 20.0596C34.6274 20.0596 33.1277 18.6434 31.9406 18.1396C31.2709 17.8554 30.1495 17.6277 30.1495 17.6277L28.7421 17.3717C28.7421 17.3717 28.0259 15.7193 27.3347 14.8117C26.4772 13.6858 25.7751 13.2356 24.648 12.3798C23.1668 11.2552 20.5538 9.9479 20.5538 9.9479C20.5538 9.9479 18.3682 10.7288 17.0994 11.4839C16.1459 12.0512 15.6458 12.2481 14.7964 13.1478L12.6214 15.4517L11.5979 17.4997C11.5979 17.4997 10.1755 17.5472 9.29494 17.7557C7.72918 18.1262 5.58462 19.5476 5.58462 19.5476C5.58462 19.5476 5.41509 21.5094 5.58462 22.7475C5.70305 23.6124 6.09639 24.9234 6.09639 24.9234L6.60816 25.8194Z" fill="#F3EBE3"/>
<path d="M11.0931 25.9054L10.072 25.0538C10.072 25.0538 9.62775 24.3057 9.47633 23.7764C9.21107 22.8492 9.47633 21.3068 9.47633 21.3068C9.47633 21.3068 10.9905 20.2463 12.1142 20.0294C12.7025 19.9158 13.6459 19.9442 13.6459 19.9442L14.4118 20.37V18.3261C14.4118 18.3261 15.1522 17.2582 15.6882 16.6229C16.1886 16.0297 16.4585 15.678 17.0496 15.1752C18.0925 14.2883 20.113 13.472 20.113 13.472C20.113 13.472 22.6328 14.5687 23.8571 15.7713C24.7394 16.638 25.7292 18.3261 25.7292 18.3261L25.8143 20.2848L26.8354 20.0294C26.8354 20.0294 27.5169 20.0288 27.9416 20.1145C28.7288 20.2733 29.1446 20.5216 29.8137 20.9661C30.1293 21.1759 30.5795 21.5623 30.5795 21.5623C30.5795 21.5623 30.7189 22.6663 30.5795 23.3506C30.4955 23.7628 30.3846 23.9779 30.2391 24.3726C30.1152 24.7086 29.8987 25.2242 29.8987 25.2242L28.7925 26.0758C28.7925 26.0758 29.2179 25.2684 29.3882 24.7132C29.5373 24.2268 29.5768 23.9401 29.6435 23.4358C29.7133 22.9072 29.7286 22.0732 29.7286 22.0732C29.7286 22.0732 28.7311 21.131 27.9416 20.7958C27.4962 20.6067 26.7503 20.4552 26.7503 20.4552L25.8143 20.2848C25.8143 20.2848 25.3379 19.1855 24.8782 18.5816C24.3079 17.8325 23.8409 17.533 23.0913 16.9636C22.1062 16.2153 20.3683 15.3455 20.3683 15.3455C20.3683 15.3455 18.9146 15.8651 18.0708 16.3675C17.4366 16.745 17.104 16.8759 16.5391 17.4745L15.0925 19.0074L14.4118 20.37C14.4118 20.37 13.4657 20.4017 12.8801 20.5403C11.8387 20.7869 10.4124 21.7326 10.4124 21.7326C10.4124 21.7326 10.2996 23.0378 10.4124 23.8616C10.4911 24.437 10.7527 25.3093 10.7527 25.3093L11.0931 25.9054Z" fill="#F3EBE3"/>
</svg>
