<svg width="44" height="44" viewBox="0 0 44 44" fill="none" xmlns="http://www.w3.org/2000/svg">
<path d="M5.99712 38.0029L5.99736 38.0031C7.4495 39.4533 9.32418 40.1504 11.8757 40.4934C14.405 40.8333 17.6727 40.8333 21.9601 40.8333H22H22.0401C26.3274 40.8333 29.5955 40.8333 32.1248 40.4931C34.6762 40.15 36.5506 39.4524 38.001 38.0011C39.4524 36.5516 40.15 34.6771 40.4931 32.1254C40.8333 29.5959 40.8333 26.3274 40.8333 22.04V22V21.9599C40.8333 17.6726 40.8333 14.4045 40.4931 11.875C40.15 9.32327 39.4524 7.44848 38.0012 5.99722C36.5516 4.54668 34.6771 3.84955 32.1254 3.50661C29.5959 3.16665 26.3273 3.16665 22.04 3.16666H22H21.96C17.6727 3.16665 14.4046 3.16665 11.875 3.50661C9.32332 3.84956 7.44853 4.54669 5.99724 5.99698L5.99688 5.99734C4.54672 7.44949 3.84958 9.32416 3.50663 11.8757C3.16667 14.405 3.16667 17.6727 3.16667 21.96V22V22.0399C3.16667 26.3273 3.16667 29.5959 3.50663 32.1256C3.84957 34.6775 4.54669 36.5524 5.99712 38.0029Z" fill="#DEEFFC" stroke="white"/>
<path d="M22.055 17.4717C22.2979 17.211 22.4301 16.8663 22.4238 16.51C22.4175 16.1538 22.2732 15.814 22.0213 15.562C21.7694 15.3101 21.4295 15.1658 21.0733 15.1595C20.7171 15.1532 20.3723 15.2855 20.1117 15.5283L14.6117 21.0283C14.3542 21.2862 14.2095 21.6356 14.2095 22C14.2095 22.3644 14.3542 22.7139 14.6117 22.9717L20.1117 28.4717C20.2376 28.6068 20.3894 28.7151 20.558 28.7903C20.7267 28.8654 20.9088 28.9058 21.0934 28.9091C21.278 28.9123 21.4614 28.8784 21.6326 28.8092C21.8038 28.7401 21.9593 28.6371 22.0899 28.5066C22.2205 28.376 22.3234 28.2205 22.3926 28.0493C22.4617 27.8781 22.4957 27.6947 22.4924 27.51C22.4892 27.3254 22.4488 27.1433 22.3736 26.9747C22.2985 26.806 22.1901 26.6542 22.055 26.5283L17.5267 22L22.055 17.4717Z" fill="#005596"/>
<path d="M29.3883 17.4717C29.6312 17.211 29.7634 16.8663 29.7572 16.51C29.7509 16.1538 29.6066 15.814 29.3546 15.562C29.1027 15.3101 28.7628 15.1658 28.4066 15.1595C28.0504 15.1532 27.7057 15.2855 27.445 15.5283L21.945 21.0283C21.6875 21.2862 21.5429 21.6356 21.5429 22C21.5429 22.3644 21.6875 22.7139 21.945 22.9717L27.445 28.4717C27.5709 28.6068 27.7227 28.7151 27.8913 28.7903C28.06 28.8654 28.2421 28.9058 28.4267 28.9091C28.6113 28.9123 28.7947 28.8784 28.9659 28.8092C29.1371 28.7401 29.2927 28.6371 29.4232 28.5066C29.5538 28.376 29.6567 28.2205 29.7259 28.0493C29.795 27.8781 29.829 27.6947 29.8258 27.51C29.8225 27.3254 29.7821 27.1433 29.7069 26.9747C29.6318 26.806 29.5234 26.6542 29.3883 26.5283L24.86 22L29.3883 17.4717Z" fill="#005596"/>
</svg>
