<svg width="40" height="40" viewBox="0 0 40 40" fill="none" xmlns="http://www.w3.org/2000/svg">
<g clip-path="url(#clip0_468_1927)">
<rect y="-1" width="40" height="40" rx="8" fill="#B11F42"/>
<path fill-rule="evenodd" clip-rule="evenodd" d="M20.4421 24.8717C20.3998 24.5914 20.3493 24.3282 20.2912 24.0873C20.607 24.1223 20.9228 24.117 21.2362 24.0712C21.2964 24.2906 21.35 24.5387 21.3956 24.8089C21.0692 24.7571 20.7445 24.7819 20.4421 24.8717ZM19.4812 28.5021L18.3029 30.554L18.7915 30.4971C18.9492 30.4789 19.1005 30.5666 19.1634 30.7133L19.358 31.1666L20.5363 29.112C20.5217 29.1084 20.507 29.1057 20.4924 29.1017C20.101 28.9962 19.7544 28.7888 19.4812 28.5021ZM22.1499 28.8825C21.9688 28.9876 21.7768 29.0641 21.5793 29.1133L22.757 31.1667L22.9515 30.7133C23.0145 30.5666 23.1656 30.4788 23.3235 30.4972L23.8121 30.5541L22.6337 28.5021C22.4927 28.6492 22.3307 28.7775 22.1499 28.8825ZM20.6788 28.4021C20.3003 28.3002 19.9842 28.0564 19.7886 27.716C19.593 27.3754 19.5411 26.9784 19.6423 26.5979C19.8177 25.9408 20.4107 25.5063 21.057 25.5063C21.1822 25.5063 21.3094 25.5226 21.436 25.5568C22.2155 25.7671 22.6805 26.5767 22.4726 27.361C22.3713 27.7409 22.1289 28.0585 21.79 28.2551C21.4512 28.4518 21.0567 28.5041 20.6788 28.4021ZM20.9115 27.5294C21.2127 27.6102 21.5231 27.43 21.6034 27.127C21.6837 26.8241 21.5046 26.5118 21.2034 26.4311C20.9023 26.3487 20.5919 26.5289 20.5115 26.8319C20.4312 27.1363 20.6104 27.4471 20.9115 27.5294ZM20.9383 29.8604C21.0226 29.8659 21.1069 29.8742 21.1909 29.8854L21.0575 29.6527L20.9383 29.8604ZM11.6751 26.4746C11.6751 26.7442 11.6488 27.0073 11.5976 27.2557C12.0138 27.2068 12.3748 27.1862 12.7428 27.1897C12.745 27.1209 12.7464 27.0515 12.7464 26.981C12.7464 25.217 12.058 23.9765 11.3442 23.7537C11.2619 23.742 11.1795 23.7305 11.0972 23.7184C10.8545 23.7248 10.6074 23.8544 10.3818 24.0886C10.6227 24.1243 10.8494 24.2426 11.0325 24.434C11.4287 24.8472 11.6751 25.6293 11.6751 26.4746ZM11.146 28.0488C11.1277 28.0517 11.1093 28.0531 11.0911 28.0531C10.9814 28.0531 10.8765 28.0026 10.8077 27.9142C10.7274 27.811 10.7087 27.6723 10.7589 27.5514C10.8872 27.2422 10.955 26.8698 10.955 26.4746C10.955 25.8298 10.7778 25.2116 10.5139 24.9365C10.4112 24.829 10.2898 24.7844 10.1624 24.8071C10.0037 24.8354 9.85627 24.9648 9.77746 25.1448L9.77499 25.1437C9.59634 25.6509 9.48523 26.2736 9.48523 26.981C9.48523 28.9177 10.315 30.223 11.097 30.2436C11.1797 30.2315 11.2625 30.2198 11.3454 30.208C11.9249 30.0262 12.4871 29.173 12.6778 27.9138C12.214 27.9131 11.7524 27.9548 11.146 28.0488ZM18.9468 26.4104C19.0803 25.9099 19.3766 25.4964 19.7627 25.2111C19.7252 24.9201 19.6789 24.6487 19.6246 24.4018C17.3127 24.3705 14.9717 24.211 12.6419 23.9259C13.149 24.6519 13.4665 25.7417 13.4665 26.981C13.4665 28.2202 13.1487 29.3113 12.6411 30.0373C14.4074 29.8233 16.2067 29.6814 18.0112 29.6138L19.0398 27.8227C18.8546 27.3771 18.8204 26.8851 18.9468 26.4104ZM29.9075 23.7178C27.3034 24.1002 24.6624 24.3258 22.0502 24.3898C22.0942 24.6082 22.1327 24.8416 22.1652 25.0867C22.9891 25.5755 23.4263 26.5744 23.1681 27.5481C23.143 27.6424 23.1115 27.7339 23.075 27.8227L24.1345 29.6676C26.0709 29.7738 28.0118 29.9671 29.9074 30.2442C30.6882 30.2186 31.5146 28.9139 31.5146 26.981C31.5146 25.0481 30.6882 23.7436 29.9075 23.7178ZM20.4999 16.6078C20.4594 16.6078 20.419 16.6009 20.3803 16.5872L12.8545 13.9196V16.7631C15.5322 18.328 18.0351 19.1091 20.4999 19.1491C22.9647 19.1092 25.4676 18.328 28.1453 16.7631V13.9196L20.6196 16.5872C20.5808 16.6009 20.5403 16.6078 20.4999 16.6078ZM32.9999 11.4308L20.5 7L7.99994 11.4309L20.5 15.8617L32.9999 11.4308ZM20.4999 19.8735H20.4943C18.0136 19.8344 15.5089 19.0888 12.8545 17.5972V18.92C15.5342 20.4861 18.0368 21.2672 20.4999 21.3071C22.963 21.2672 25.4656 20.4861 28.1453 18.92V17.5972C25.491 19.0888 22.9862 19.8344 20.5056 19.8735H20.4999ZM31.1107 18.8326C31.2903 18.6312 31.3997 18.3652 31.3997 18.0739C31.3997 17.5746 31.0774 17.1498 30.6312 16.9983V13.0386L29.9111 13.2939V16.9983C29.4648 17.1498 29.1426 17.5746 29.1426 18.0739C29.1426 18.3652 29.252 18.6312 29.4315 18.8326L28.7343 20.8974C28.6749 21.0721 28.6838 21.2583 28.759 21.4208C28.8445 21.6078 28.994 21.7151 29.1691 21.7151H31.3731C31.5482 21.7151 31.6977 21.6078 31.7828 21.4216C31.8584 21.2584 31.8673 21.0722 31.808 20.8978L31.1107 18.8326Z" fill="#F3EBE3"/>
</g>
<defs>
<clipPath id="clip0_468_1927">
<rect width="40" height="40" fill="white"/>
</clipPath>
</defs>
</svg>
